<svg xmlns="http://www.w3.org/2000/svg" xmlns:xlink="http://www.w3.org/1999/xlink" width="200" zoomAndPan="magnify" viewBox="0 0 150 149.999998" height="200" preserveAspectRatio="xMidYMid meet" version="1.0"><defs><clipPath id="id1"><path d="M 0 8 L 150 8 L 150 142.6875 L 0 142.6875 Z M 0 8 " clip-rule="nonzero"/></clipPath></defs><g clip-path="url(#id1)"><path fill="rgb(100%, 100%, 100%)" d="M 142.558594 53.964844 C 145.578125 50.105469 147.824219 45.847656 148.960938 41.054688 C 149.539062 38.609375 149.839844 35.847656 149.171875 33.386719 C 148.546875 31.09375 147.355469 29 145.902344 27.140625 C 144.539062 25.394531 142.925781 23.847656 141.117188 22.574219 C 139.410156 21.375 137.308594 20.109375 135.132812 20.347656 C 133.28125 20.546875 131.894531 21.96875 132.199219 23.859375 C 132.554688 26.09375 134.570312 27.382812 135.785156 29.121094 C 137.101562 31.011719 138.109375 33.132812 138.296875 35.457031 C 138.5 37.957031 138.015625 40.546875 137.339844 42.945312 C 136.078125 47.417969 132.816406 51.273438 129.113281 53.949219 C 127.257812 55.292969 124.90625 54.910156 122.746094 54.679688 C 120.832031 54.367188 118.914062 54.039062 117 53.71875 C 112.539062 52.96875 108.050781 52.289062 103.535156 52.003906 C 98.53125 51.6875 93.476562 51.703125 88.460938 51.660156 C 86.546875 51.644531 84.632812 51.648438 82.722656 51.734375 C 80.777344 51.828125 78.648438 52.027344 76.726562 51.597656 C 74.667969 51.140625 72.808594 50.109375 70.914062 49.230469 C 68.628906 48.171875 66.398438 47.488281 63.871094 47.371094 C 61.988281 47.285156 59.992188 47.4375 58.238281 46.605469 C 57.347656 46.183594 56.949219 45.398438 56.351562 44.675781 C 55.652344 43.824219 54.878906 43.042969 54.152344 42.21875 C 53.367188 41.324219 52.699219 40.441406 52.191406 39.367188 C 51.652344 38.226562 51.105469 37.089844 50.601562 35.933594 C 49.78125 34.058594 49.210938 32.273438 49.308594 30.207031 C 49.410156 28.042969 49.261719 25.875 48.25 23.914062 C 47.226562 21.929688 45.933594 20.074219 44.363281 18.484375 C 43.460938 17.570312 42.464844 16.703125 41.355469 16.050781 C 40.6875 15.65625 40.089844 15.078125 39.550781 14.523438 C 38.789062 13.742188 38.035156 13.117188 37.09375 12.554688 C 35.101562 11.371094 32.890625 10.554688 30.628906 10.082031 C 29.566406 9.839844 28.425781 10.019531 27.390625 9.71875 C 26.320312 9.414062 25.410156 9.042969 24.332031 9.5625 C 23.636719 9.898438 23.136719 10.480469 22.59375 11.003906 C 21.941406 11.636719 21.101562 12.195312 20.242188 12.496094 C 19.273438 12.832031 18.015625 12.480469 17.03125 12.296875 C 15.742188 12.0625 14.507812 11.378906 13.273438 10.933594 C 11.539062 10.304688 9.769531 9.761719 7.980469 9.316406 C 6.292969 8.894531 4.15625 7.675781 3.121094 9.792969 C 2.691406 10.679688 2.453125 11.652344 2.023438 12.542969 C 1.820312 12.972656 1.792969 13.371094 1.902344 13.828125 C 2.015625 14.3125 1.675781 14.753906 1.417969 15.136719 C 0.140625 16.824219 0.449219 18.789062 1.699219 20.410156 C 2.238281 21.117188 2.238281 22.230469 2.519531 23.082031 C 2.855469 24.101562 3.535156 24.964844 4.300781 25.695312 C 4.574219 25.953125 4.863281 26.195312 5.136719 26.453125 C 5.375 26.875 5.609375 27.289062 5.910156 27.667969 C 6.523438 28.4375 7.304688 29.042969 8.167969 29.507812 C 8.878906 29.890625 9.632812 30.171875 10.398438 30.429688 C 11.320312 30.746094 11.882812 31.289062 12.457031 32.09375 C 13.015625 32.871094 13.351562 33.777344 14.113281 34.40625 C 14.9375 35.082031 16.070312 35.230469 17.074219 35.472656 C 17.359375 35.542969 18.113281 36.035156 18.03125 36.367188 C 17.941406 36.746094 17.785156 37.113281 17.597656 37.453125 C 17.160156 38.25 16.585938 38.953125 16.070312 39.695312 C 15.484375 40.535156 14.980469 41.429688 14.644531 42.402344 C 14.191406 43.710938 15.203125 44.28125 16.296875 43.613281 C 17.179688 43.078125 17.859375 42.363281 18.886719 42.082031 C 19.355469 41.957031 19.839844 41.902344 20.320312 41.941406 C 20.464844 41.953125 20.605469 41.972656 20.742188 42.003906 C 20.726562 42.359375 20.695312 42.714844 20.65625 43.066406 C 20.550781 43.96875 20.550781 44.863281 20.980469 45.691406 C 21.109375 45.9375 20.777344 46.5 20.699219 46.765625 C 20.527344 47.347656 20.398438 47.945312 20.332031 48.546875 C 20.078125 50.871094 21.0625 52.792969 22.765625 54.335938 C 22.957031 54.507812 23.863281 55.054688 23.828125 55.257812 C 23.769531 55.570312 23.730469 55.882812 23.707031 56.199219 C 23.628906 57.242188 23.703125 58.300781 23.859375 59.335938 C 24.214844 61.609375 24.933594 63.824219 25.578125 66.03125 C 26.285156 68.453125 26.515625 70.902344 26.460938 73.425781 C 26.421875 75.21875 26.097656 77.152344 26.402344 78.929688 C 26.8125 81.308594 28.671875 82.925781 30.238281 84.597656 C 30.921875 85.324219 31.519531 86.128906 32.179688 86.875 C 32.539062 87.285156 32.914062 87.683594 33.320312 88.050781 C 33.472656 88.1875 34.605469 88.9375 34.585938 89.082031 C 34.164062 90.75 34.460938 92.464844 34.621094 94.144531 C 34.785156 95.792969 34.769531 97.394531 34.414062 99.019531 C 34 100.917969 34.019531 102.71875 34.007812 104.65625 C 33.996094 107.511719 33.949219 110.445312 33.4375 113.265625 C 33.320312 113.929688 33.1875 114.667969 32.734375 115.195312 C 31.824219 116.253906 29.949219 115.777344 28.765625 116.375 C 27.472656 117.027344 26.5 118.507812 26.15625 119.894531 C 26.058594 120.285156 26.003906 120.6875 25.996094 121.089844 C 25.703125 121.472656 25.5625 121.984375 25.472656 122.449219 C 25.722656 122.496094 25.976562 122.535156 26.230469 122.507812 C 26.605469 122.472656 26.8125 122.15625 27.097656 122.394531 C 27.480469 122.714844 28.125 122.875 28.597656 122.667969 C 28.457031 122.882812 28.332031 123.699219 28.644531 123.867188 C 28.796875 123.949219 29.398438 123.617188 29.53125 123.546875 C 30.007812 123.28125 30.085938 123.066406 30.636719 123.4375 C 31.152344 123.789062 31.605469 124.152344 32.203125 124.367188 C 33.117188 124.695312 34.238281 124.671875 34.964844 123.945312 C 35.300781 123.609375 35.457031 122.457031 35.824219 122.4375 C 36.4375 122.410156 37.070312 122.304688 37.648438 122.074219 C 38.710938 121.648438 38.953125 120.257812 39.234375 119.292969 C 39.640625 117.882812 39.863281 116.425781 40.277344 115.019531 C 40.617188 113.863281 41.871094 109.449219 43.640625 110.734375 C 43.511719 110.617188 43.65625 110.75 43.640625 110.734375 C 43.453125 110.628906 43.578125 109.429688 43.585938 109.234375 C 43.640625 107.847656 43.835938 106.46875 44.136719 105.113281 C 44.683594 102.625 45.472656 100.28125 45.378906 97.691406 C 45.480469 98.007812 46.371094 101.902344 46.234375 102.105469 C 46.730469 105.675781 47.097656 109.214844 47.164062 112.828125 C 46.957031 113.453125 47.167969 114.328125 47.164062 114.988281 C 47.15625 115.949219 47.113281 116.925781 47.148438 117.886719 C 47.09375 119.964844 47.277344 122.023438 47.386719 124.097656 C 47.472656 125.738281 47.726562 127.679688 47.175781 129.257812 C 46.699219 130.632812 45.636719 131.648438 44.609375 132.628906 C 43.511719 133.679688 42.496094 134.914062 41.644531 136.171875 C 41.238281 136.777344 40.960938 137.460938 40.847656 138.183594 C 40.710938 138.949219 40.34375 139.351562 40.769531 140.164062 C 41.003906 140.023438 41.25 139.867188 41.429688 139.65625 C 41.363281 140.003906 41.515625 140.347656 41.703125 140.625 C 42.140625 140.578125 42.3125 140.253906 42.667969 140.503906 C 43.265625 140.921875 44.351562 141.496094 45.058594 141.046875 C 45.027344 142.675781 46.246094 141.089844 46.878906 141.25 C 48.007812 141.515625 48.980469 142.015625 50.179688 142.003906 C 52.832031 141.976562 53.242188 138.3125 54.566406 136.621094 C 56.128906 134.925781 55.9375 132.84375 55.824219 130.71875 C 55.777344 129.789062 55.882812 129.042969 56.417969 128.265625 C 56.714844 127.835938 57.144531 127.429688 57.304688 126.921875 C 57.351562 126.785156 57.40625 125.902344 57.449219 125.90625 C 58.074219 125.957031 58.425781 125.6875 58.160156 124.828125 C 57.808594 123.707031 57.6875 122.550781 57.914062 121.390625 C 58.136719 119.050781 58.570312 116.734375 58.949219 114.417969 C 59.816406 109.125 60.398438 103.832031 60.652344 98.472656 C 64.164062 98.851562 67.644531 97.992188 70.964844 96.898438 C 75.734375 95.328125 80.296875 93.214844 84.945312 91.328125 C 88.878906 89.730469 92.910156 87.976562 97.042969 86.941406 C 99.167969 86.414062 101.214844 85.785156 103.371094 86.476562 C 105.582031 87.183594 107.703125 88.570312 109.472656 90.054688 C 112.105469 92.261719 114.121094 95.15625 115.671875 98.207031 C 116.546875 99.847656 117.261719 101.570312 118.105469 103.226562 C 118.484375 103.96875 118.890625 104.703125 119.359375 105.394531 C 119.597656 105.75 119.6875 105.832031 119.609375 106.242188 C 119.539062 106.617188 119.441406 106.984375 119.316406 107.34375 C 119.121094 107.90625 118.886719 108.613281 118.417969 109.007812 C 117.789062 109.542969 116.8125 109.535156 116.046875 109.710938 C 114.5 110.066406 112.691406 110.769531 111.515625 111.878906 C 111.042969 112.324219 110.652344 112.914062 110.617188 113.585938 C 110.605469 113.851562 110.714844 113.992188 110.523438 114.183594 C 110.285156 114.421875 110.132812 114.730469 110.09375 115.066406 C 110.003906 115.800781 110.507812 116.011719 111.054688 115.625 C 111.257812 115.480469 111.542969 115.730469 111.785156 115.804688 C 112.25 115.949219 112.667969 115.882812 113.113281 115.691406 C 112.894531 116.042969 112.703125 116.617188 113.152344 116.828125 C 113.46875 116.972656 113.824219 117.007812 114.152344 116.863281 C 114.523438 116.703125 114.570312 116.472656 115 116.6875 C 115.3125 116.84375 115.570312 117.117188 115.855469 117.316406 C 116.53125 117.792969 117.320312 118.046875 118.140625 117.863281 C 118.972656 117.671875 119.652344 116.800781 120.230469 116.21875 C 120.671875 115.773438 121.148438 116.230469 121.765625 116.097656 C 122.566406 115.925781 123.191406 115.195312 123.5625 114.511719 C 124.035156 113.640625 124.28125 112.597656 124.480469 111.632812 C 124.582031 111.140625 124.574219 110.554688 124.738281 110.082031 C 127.707031 112.414062 130.621094 114.84375 133.542969 117.230469 C 134.421875 117.945312 135.355469 118.640625 136.140625 119.457031 C 137.242188 120.601562 137.808594 122.152344 137.929688 123.722656 C 138.0625 125.480469 137.929688 127.414062 137.292969 129.066406 C 137.011719 129.800781 136.546875 130.433594 136.390625 131.21875 C 136.328125 131.523438 136.328125 131.832031 136.300781 132.140625 C 135.890625 132.152344 135.503906 132.1875 135.109375 132.304688 C 134.347656 132.4375 133.84375 133.226562 133.46875 133.832031 C 132.996094 134.601562 132.460938 135.292969 131.882812 135.988281 C 131.429688 136.527344 130.816406 136.808594 130.410156 137.40625 C 130.273438 137.609375 130.101562 137.820312 130.132812 138.078125 C 130.214844 138.773438 130.757812 138.617188 131.195312 138.34375 C 131.085938 138.601562 131.050781 138.882812 131.085938 139.160156 C 131.386719 139.21875 131.699219 139.242188 131.996094 139.175781 C 132.359375 139.097656 132.714844 139.515625 132.988281 139.742188 C 133.773438 140.390625 134.84375 141.460938 135.925781 140.761719 C 136.035156 141.867188 137.09375 140.550781 137.242188 140.242188 C 138.507812 141.042969 140.65625 141.238281 141.785156 140.089844 C 142.394531 139.46875 142.175781 138.625 142.671875 137.980469 C 143.203125 137.292969 143.9375 136.980469 144.269531 136.113281 C 144.5625 135.347656 144.453125 134.652344 144.394531 133.871094 C 144.363281 132.917969 144.292969 131.972656 144.320312 131.019531 C 144.371094 129.167969 144.613281 127.332031 144.898438 125.503906 C 145.230469 123.40625 145.589844 121.3125 145.839844 119.207031 C 146.085938 117.132812 146.601562 114.554688 145.90625 112.53125 C 145.21875 110.535156 143.199219 109.605469 141.621094 108.433594 C 140.019531 107.25 139.058594 105.777344 138.324219 103.9375 C 138.40625 104.121094 138.199219 103.5625 138.164062 103.460938 C 138 102.960938 137.855469 102.453125 137.71875 101.941406 C 137.273438 100.238281 136.960938 98.5 136.785156 96.746094 C 136.378906 92.765625 136.53125 88.640625 136.667969 84.648438 C 136.738281 82.613281 136.449219 80.691406 135.96875 78.722656 C 135.441406 76.558594 134.910156 74.34375 134.136719 72.257812 C 133.539062 70.652344 132.6875 69.074219 132.375 67.375 C 132.09375 65.84375 132.621094 64.636719 133.675781 63.558594 C 136.742188 60.445312 139.859375 57.417969 142.558594 53.964844 " fill-opacity="1" fill-rule="nonzero"/></g></svg>