<svg xmlns="http://www.w3.org/2000/svg" xmlns:xlink="http://www.w3.org/1999/xlink" width="500" zoomAndPan="magnify" viewBox="0 0 375 374.999991" height="500" preserveAspectRatio="xMidYMid meet" version="1.0"><defs><clipPath id="id1"><path d="M 143 79 L 370.332031 79 L 370.332031 247 L 143 247 Z M 143 79 " clip-rule="nonzero"/></clipPath><clipPath id="id2"><path d="M 4.332031 202 L 101 202 L 101 247 L 4.332031 247 Z M 4.332031 202 " clip-rule="nonzero"/></clipPath><clipPath id="id3"><path d="M 244 251 L 263 251 L 263 256.304688 L 244 256.304688 Z M 244 251 " clip-rule="nonzero"/></clipPath></defs><g clip-path="url(#id1)"><path fill="rgb(0%, 0%, 0%)" d="M 370.242188 241.140625 C 370.242188 239.316406 357.761719 237.714844 339.078125 236.828125 C 338.957031 238.234375 338.832031 239.488281 338.71875 240.539062 L 335.828125 240.597656 C 336.097656 238.199219 336.429688 234.644531 336.636719 230.433594 C 336.667969 229.800781 336.605469 229.105469 336.480469 228.375 C 337.410156 227.589844 338.175781 226.726562 338.792969 225.808594 C 341.425781 221.882812 341.46875 217.058594 341.234375 214.09375 C 341.171875 213.300781 340.859375 212.664062 340.378906 212.148438 C 338.449219 210.066406 333.738281 209.992188 331.015625 210.046875 C 328.726562 210.09375 325.324219 213.671875 324.789062 216.355469 C 322.679688 215.121094 324.351562 211.65625 326.644531 209.472656 C 325.273438 207.546875 324.320312 206.324219 324.320312 206.324219 L 296.210938 172.070312 L 289.867188 181.921875 L 290.21875 176.082031 L 290.609375 169.550781 L 290.546875 169.53125 C 290.578125 169.421875 290.625 169.320312 290.648438 169.207031 C 291.214844 166.507812 289.492188 163.859375 286.796875 163.292969 C 278.230469 161.484375 268.390625 153.585938 257.972656 145.222656 C 244.394531 134.316406 229.210938 122.132812 213.246094 121.722656 C 189.613281 120.210938 161.6875 131.011719 157.6875 111.164062 C 153.453125 90.140625 162.859375 81.933594 156.96875 79.46875 C 151.078125 77.003906 136.367188 102.253906 146.738281 120.640625 C 156.480469 137.902344 170.957031 139.351562 181.226562 140.179688 C 179.128906 142.953125 177.066406 146.03125 175.046875 149.449219 C 174.679688 150.074219 174.46875 150.75 174.394531 151.425781 C 174.117188 152.742188 174.183594 154.144531 174.671875 155.496094 L 180.738281 172.390625 L 176.859375 182.308594 C 176.621094 182.921875 176.46875 183.550781 176.394531 184.175781 L 164.941406 187.273438 C 161.589844 188.183594 159.304688 191.28125 159.417969 194.753906 L 160.285156 220.820312 C 160.375 223.46875 161.855469 225.875 164.175781 227.144531 L 173.714844 232.355469 C 174.851562 232.976562 176.078125 233.273438 177.289062 233.273438 C 179.933594 233.273438 182.5 231.859375 183.855469 229.367188 C 185.832031 225.734375 184.496094 221.1875 180.871094 219.207031 L 175.085938 216.042969 L 174.796875 207.433594 L 187.125 226.347656 C 187.886719 227.511719 188.957031 228.445312 190.214844 229.03125 L 198.550781 232.945312 C 199.578125 233.425781 200.65625 233.652344 201.714844 233.652344 C 204.527344 233.652344 207.21875 232.058594 208.488281 229.335938 C 210.238281 225.589844 208.628906 221.132812 204.890625 219.378906 L 198.476562 216.371094 L 188.574219 201.179688 L 198.589844 187.96875 L 210.011719 177.132812 C 216.277344 185.246094 214.910156 195.4375 236.402344 211.859375 L 227.242188 219.199219 L 222.449219 217.976562 C 219.191406 217.144531 215.867188 219.046875 214.929688 222.28125 C 213.992188 225.515625 215.78125 228.910156 218.976562 229.957031 L 227.289062 232.679688 C 229.101562 233.269531 231.082031 233.003906 232.667969 231.945312 L 249.070312 221.023438 L 257.949219 227.199219 L 260.320312 228.84375 C 259.339844 230.640625 259.289062 232.804688 260.210938 234.640625 L 263.355469 240.917969 L 260.183594 240.980469 L 258.515625 237.660156 C 247.414062 238.5625 240.585938 239.789062 240.585938 241.140625 C 240.585938 243.925781 269.613281 246.1875 305.414062 246.1875 C 341.21875 246.1875 370.242188 243.929688 370.242188 241.140625 Z M 298.34375 240.273438 C 297.640625 239.910156 296.273438 239.234375 294.941406 238.582031 C 293.320312 237.785156 291.734375 237 290.210938 236.238281 C 286.964844 236.296875 283.8125 236.378906 280.773438 236.476562 L 282.386719 240.554688 L 279.328125 240.617188 L 276.632812 233.804688 L 282.113281 228.636719 C 287.308594 231.859375 299.632812 237.566406 300.34375 238.105469 C 300.644531 238.335938 301.238281 239.628906 301.804688 241.296875 L 298.800781 241.359375 C 298.640625 240.925781 298.484375 240.554688 298.34375 240.273438 Z M 298.34375 240.273438 " fill-opacity="1" fill-rule="nonzero"/></g><g clip-path="url(#id2)"><path fill="rgb(0%, 0%, 0%)" d="M 52.671875 246.1875 C 79.328125 246.1875 100.9375 244.421875 100.9375 242.246094 C 100.9375 241.707031 99.613281 241.195312 97.222656 240.726562 C 94.742188 237.71875 90.625 229.882812 88.898438 228.6875 C 86.855469 227.265625 86.539062 221.117188 82.292969 220.015625 C 78.042969 218.910156 78.042969 210.710938 75.054688 208.347656 C 72.0625 205.980469 68.445312 208.503906 65.140625 211.34375 C 61.835938 214.179688 60.734375 205.195312 53.183594 202.671875 C 45.628906 200.148438 39.808594 209.136719 35.714844 210.082031 C 32.285156 210.875 24.648438 225.085938 22.277344 229.648438 C 20.230469 231.195312 18.296875 232.894531 16.363281 234.363281 C 12.371094 237.394531 7.828125 238.882812 7.289062 240.902344 C 5.425781 241.320312 4.40625 241.773438 4.40625 242.246094 C 4.40625 244.421875 26.015625 246.1875 52.671875 246.1875 Z M 52.671875 246.1875 " fill-opacity="1" fill-rule="nonzero"/></g><path fill="rgb(0%, 0%, 0%)" d="M 103.890625 170.714844 C 115.011719 179.542969 129.191406 168.453125 142.261719 174.667969 C 155.328125 180.882812 149.214844 170.925781 142.46875 169.582031 C 135.726562 168.242188 87.785156 157.929688 103.890625 170.714844 Z M 103.890625 170.714844 " fill-opacity="1" fill-rule="nonzero"/><path fill="rgb(0%, 0%, 0%)" d="M 236.496094 248.160156 C 236.496094 248.320312 236.4375 248.476562 236.328125 248.636719 C 236.214844 248.792969 236.050781 248.945312 235.832031 249.09375 C 235.609375 249.242188 235.34375 249.382812 235.023438 249.515625 C 234.703125 249.648438 234.34375 249.773438 233.9375 249.886719 C 233.53125 250 233.089844 250.101562 232.613281 250.191406 C 232.136719 250.28125 231.632812 250.355469 231.105469 250.417969 C 230.574219 250.476562 230.027344 250.523438 229.464844 250.554688 C 228.902344 250.585938 228.335938 250.601562 227.761719 250.601562 C 227.1875 250.601562 226.621094 250.585938 226.058594 250.554688 C 225.496094 250.523438 224.949219 250.476562 224.417969 250.417969 C 223.890625 250.355469 223.386719 250.28125 222.910156 250.191406 C 222.433594 250.101562 221.992188 250 221.585938 249.886719 C 221.179688 249.773438 220.820312 249.648438 220.5 249.515625 C 220.179688 249.382812 219.914062 249.242188 219.691406 249.09375 C 219.472656 248.945312 219.308594 248.792969 219.195312 248.636719 C 219.085938 248.476562 219.027344 248.320312 219.027344 248.160156 C 219.027344 247.996094 219.085938 247.839844 219.195312 247.683594 C 219.308594 247.523438 219.472656 247.371094 219.691406 247.222656 C 219.914062 247.074219 220.179688 246.933594 220.5 246.800781 C 220.820312 246.667969 221.179688 246.542969 221.585938 246.429688 C 221.992188 246.316406 222.433594 246.214844 222.910156 246.125 C 223.386719 246.039062 223.890625 245.960938 224.417969 245.902344 C 224.949219 245.839844 225.496094 245.792969 226.058594 245.761719 C 226.621094 245.730469 227.1875 245.714844 227.761719 245.714844 C 228.335938 245.714844 228.902344 245.730469 229.464844 245.761719 C 230.027344 245.792969 230.574219 245.839844 231.105469 245.902344 C 231.632812 245.960938 232.136719 246.039062 232.613281 246.125 C 233.089844 246.214844 233.53125 246.316406 233.9375 246.429688 C 234.34375 246.542969 234.703125 246.667969 235.023438 246.800781 C 235.34375 246.933594 235.609375 247.074219 235.832031 247.222656 C 236.050781 247.371094 236.214844 247.523438 236.328125 247.679688 C 236.4375 247.839844 236.496094 247.996094 236.496094 248.160156 Z M 236.496094 248.160156 " fill-opacity="1" fill-rule="nonzero"/><path fill="rgb(0%, 0%, 0%)" d="M 115.496094 236.570312 C 110.671875 236.570312 106.289062 241.132812 106.289062 242.484375 C 106.289062 243.832031 110.199219 244.925781 115.023438 244.925781 C 119.84375 244.925781 123.753906 243.832031 123.753906 242.484375 C 123.753906 241.132812 120.316406 236.570312 115.496094 236.570312 Z M 115.496094 236.570312 " fill-opacity="1" fill-rule="nonzero"/><path fill="rgb(0%, 0%, 0%)" d="M 135.046875 243.4375 C 138.152344 243.4375 140.671875 242.734375 140.671875 241.863281 C 140.671875 240.996094 138.457031 238.054688 135.347656 238.054688 C 132.242188 238.054688 129.417969 240.996094 129.417969 241.863281 C 129.417969 242.734375 131.9375 243.4375 135.046875 243.4375 Z M 135.046875 243.4375 " fill-opacity="1" fill-rule="nonzero"/><g clip-path="url(#id3)"><path fill="rgb(0%, 0%, 0%)" d="M 262.222656 253.835938 C 262.222656 253.996094 262.167969 254.152344 262.054688 254.3125 C 261.941406 254.46875 261.777344 254.621094 261.558594 254.769531 C 261.335938 254.917969 261.070312 255.058594 260.75 255.191406 C 260.429688 255.324219 260.070312 255.449219 259.664062 255.5625 C 259.257812 255.675781 258.816406 255.777344 258.339844 255.867188 C 257.863281 255.957031 257.359375 256.03125 256.832031 256.09375 C 256.300781 256.152344 255.753906 256.199219 255.191406 256.230469 C 254.628906 256.261719 254.0625 256.277344 253.488281 256.277344 C 252.914062 256.277344 252.347656 256.261719 251.785156 256.230469 C 251.222656 256.199219 250.675781 256.152344 250.144531 256.09375 C 249.617188 256.03125 249.113281 255.957031 248.636719 255.867188 C 248.160156 255.777344 247.71875 255.675781 247.3125 255.5625 C 246.90625 255.449219 246.546875 255.324219 246.226562 255.191406 C 245.910156 255.058594 245.640625 254.917969 245.421875 254.769531 C 245.199219 254.621094 245.035156 254.46875 244.921875 254.3125 C 244.8125 254.152344 244.753906 253.996094 244.753906 253.835938 C 244.753906 253.675781 244.8125 253.515625 244.921875 253.359375 C 245.035156 253.199219 245.199219 253.046875 245.421875 252.898438 C 245.640625 252.75 245.910156 252.609375 246.226562 252.476562 C 246.546875 252.34375 246.90625 252.21875 247.3125 252.105469 C 247.71875 251.992188 248.160156 251.890625 248.636719 251.800781 C 249.113281 251.714844 249.617188 251.636719 250.148438 251.578125 C 250.675781 251.515625 251.222656 251.46875 251.785156 251.4375 C 252.347656 251.40625 252.914062 251.390625 253.488281 251.390625 C 254.0625 251.390625 254.628906 251.40625 255.191406 251.4375 C 255.753906 251.46875 256.300781 251.515625 256.832031 251.578125 C 257.359375 251.636719 257.863281 251.714844 258.339844 251.800781 C 258.816406 251.890625 259.257812 251.992188 259.664062 252.105469 C 260.070312 252.21875 260.429688 252.34375 260.75 252.476562 C 261.070312 252.609375 261.335938 252.75 261.558594 252.898438 C 261.777344 253.046875 261.941406 253.199219 262.054688 253.359375 C 262.167969 253.515625 262.222656 253.675781 262.222656 253.835938 Z M 262.222656 253.835938 " fill-opacity="1" fill-rule="nonzero"/></g><path fill="rgb(0%, 0%, 0%)" d="M 159.710938 165.300781 C 159.710938 165.300781 147.4375 159.9375 145.078125 162.621094 C 142.714844 165.300781 155.304688 165.617188 158.136719 167.507812 C 160.96875 169.402344 162.855469 167.191406 159.710938 165.300781 Z M 159.710938 165.300781 " fill-opacity="1" fill-rule="nonzero"/><path fill="rgb(0%, 0%, 0%)" d="M 127.515625 205.226562 C 127.515625 205.226562 114.402344 202.527344 112.648438 205.636719 C 110.890625 208.75 123.269531 206.449219 126.433594 207.714844 C 129.59375 208.976562 130.988281 206.429688 127.515625 205.226562 Z M 127.515625 205.226562 " fill-opacity="1" fill-rule="nonzero"/><path fill="rgb(0%, 0%, 0%)" d="M 322.273438 188.640625 C 315.355469 176.660156 307.457031 165.242188 298.796875 154.710938 L 297.355469 155.898438 C 305.949219 166.355469 313.789062 177.683594 320.65625 189.578125 Z M 322.273438 188.640625 " fill-opacity="1" fill-rule="nonzero"/><path fill="rgb(0%, 0%, 0%)" d="M 295.289062 153.421875 L 296.714844 152.210938 C 287.398438 141.179688 277.285156 131.179688 266.660156 122.484375 L 265.476562 123.9375 C 276.015625 132.558594 286.042969 142.476562 295.289062 153.421875 Z M 295.289062 153.421875 " fill-opacity="1" fill-rule="nonzero"/><path fill="rgb(0%, 0%, 0%)" d="M 259.390625 119.152344 L 260.511719 117.65625 C 251.746094 111.042969 246.140625 107.996094 245.90625 107.871094 L 245.019531 109.519531 C 245.078125 109.550781 250.734375 112.625 259.390625 119.152344 Z M 259.390625 119.152344 " fill-opacity="1" fill-rule="nonzero"/><path fill="rgb(0%, 0%, 0%)" d="M 324.203125 184 C 322.65625 180.511719 320.765625 176.789062 318.59375 172.9375 L 316.964844 173.855469 C 319.109375 177.65625 320.972656 181.324219 322.496094 184.757812 Z M 324.203125 184 " fill-opacity="1" fill-rule="nonzero"/><path fill="rgb(0%, 0%, 0%)" d="M 315.800781 168.171875 C 308.550781 156.222656 298.71875 142.9375 286.570312 128.6875 L 285.148438 129.90625 C 297.230469 144.078125 307.003906 157.28125 314.203125 169.144531 Z M 315.800781 168.171875 " fill-opacity="1" fill-rule="nonzero"/><path fill="rgb(0%, 0%, 0%)" d="M 266.042969 108.882812 C 266.113281 108.957031 273.289062 116.199219 282.613281 126.957031 L 284.023438 125.726562 C 274.652344 114.921875 267.4375 107.636719 267.367188 107.5625 Z M 266.042969 108.882812 " fill-opacity="1" fill-rule="nonzero"/><path fill="rgb(0%, 0%, 0%)" d="M 88.785156 187.433594 C 85.5625 187.320312 82.320312 187.25 79.152344 187.226562 L 79.140625 189.101562 C 82.289062 189.125 85.511719 189.191406 88.722656 189.304688 Z M 88.785156 187.433594 " fill-opacity="1" fill-rule="nonzero"/><path fill="rgb(0%, 0%, 0%)" d="M 151.09375 194.5 C 150.839844 194.445312 125.390625 189.011719 92.324219 187.570312 L 92.246094 189.441406 C 125.144531 190.875 150.449219 196.277344 150.699219 196.332031 Z M 151.09375 194.5 " fill-opacity="1" fill-rule="nonzero"/><path fill="rgb(0%, 0%, 0%)" d="M 81.46875 214.179688 C 81.46875 215.484375 82.523438 216.546875 83.828125 216.546875 C 85.132812 216.546875 86.1875 215.488281 86.1875 214.179688 C 86.1875 212.871094 85.132812 211.8125 83.828125 211.8125 C 82.523438 211.8125 81.46875 212.875 81.46875 214.179688 Z M 81.46875 214.179688 " fill-opacity="1" fill-rule="nonzero"/><path fill="rgb(0%, 0%, 0%)" d="M 18.371094 228.84375 C 19.675781 228.84375 20.730469 227.785156 20.730469 226.476562 C 20.730469 225.171875 19.675781 224.113281 18.371094 224.113281 C 17.066406 224.113281 16.011719 225.171875 16.011719 226.476562 C 16.011719 227.785156 17.066406 228.84375 18.371094 228.84375 Z M 18.371094 228.84375 " fill-opacity="1" fill-rule="nonzero"/><path fill="rgb(0%, 0%, 0%)" d="M 62.113281 205.824219 C 62.113281 207.128906 63.167969 208.1875 64.472656 208.1875 C 65.777344 208.1875 66.835938 207.128906 66.835938 205.824219 C 66.835938 204.515625 65.777344 203.457031 64.472656 203.457031 C 63.171875 203.457031 62.113281 204.515625 62.113281 205.824219 Z M 62.113281 205.824219 " fill-opacity="1" fill-rule="nonzero"/></svg>