<svg xmlns="http://www.w3.org/2000/svg" xmlns:xlink="http://www.w3.org/1999/xlink" width="200" zoomAndPan="magnify" viewBox="0 0 150 149.999998" height="200" preserveAspectRatio="xMidYMid meet" version="1.0"><defs><clipPath id="id1"><path d="M 45.179688 21 L 113.429688 21 L 113.429688 144.652344 L 45.179688 144.652344 Z M 45.179688 21 " clip-rule="nonzero"/></clipPath></defs><g clip-path="url(#id1)"><path fill="rgb(0%, 0%, 0%)" d="M 81.507812 116.84375 C 81.207031 117.339844 80.804688 118.242188 80.90625 118.839844 C 81.007812 119.4375 80.707031 120.339844 80.304688 122.140625 C 79.503906 121.941406 76.203125 122.140625 75.101562 122.742188 C 74 123.339844 73.097656 122.84375 71.597656 124.042969 C 71.296875 123.042969 72.300781 112.039062 72.699219 110.539062 C 73.097656 109.039062 73.5 102.9375 73.5 102.9375 C 74.300781 103.335938 76.902344 105.636719 77.003906 106.9375 C 77.105469 108.238281 77.601562 110.640625 78.003906 110.9375 C 78.402344 111.238281 79.003906 113.136719 79.605469 114.238281 C 80.207031 115.339844 81.507812 116.140625 81.507812 116.140625 C 81.507812 116.140625 81.507812 116.140625 81.507812 116.84375 Z M 113.03125 110.136719 C 112.832031 107.035156 112.132812 104.4375 110.832031 102.9375 C 110.929688 101.433594 109.429688 99.230469 108.929688 98.832031 C 108.425781 98.4375 107.027344 95.832031 106.726562 95.136719 C 106.429688 94.433594 106.527344 93.230469 105.527344 91.234375 C 104.523438 89.234375 101.921875 80.628906 100.023438 77.128906 C 98.117188 73.628906 95.117188 69.425781 93.917969 68.222656 C 93.316406 66.019531 92.316406 65.027344 92.015625 64.519531 C 91.714844 64.023438 90.816406 61.925781 90.3125 61.324219 C 89.8125 60.722656 89.214844 58.222656 88.613281 57.222656 C 88.011719 56.222656 86.210938 52.019531 85.609375 49.921875 C 85.007812 47.816406 81.207031 40.316406 80.304688 39.816406 C 81.707031 38.917969 81.507812 33.316406 81.507812 32.613281 C 81.507812 31.914062 81.804688 31.714844 82.207031 30.8125 C 82.605469 29.914062 81.707031 29.613281 81.90625 29.011719 C 82.105469 28.414062 81.507812 24.910156 81.304688 24.214844 C 81.105469 23.511719 81.507812 21.90625 81.40625 21.410156 C 81.304688 20.910156 79.503906 21.214844 78.003906 25.113281 C 76.503906 29.011719 74.601562 30.8125 74.601562 30.8125 C 74.699219 29.816406 73.148438 26.910156 72.949219 26.5625 C 72.75 26.210938 72.800781 23.8125 72.402344 22.910156 C 71.996094 22.011719 71.398438 24.363281 71.097656 25.660156 C 70.796875 26.960938 70.699219 28.910156 70.699219 29.613281 C 70.699219 30.316406 70.246094 30.609375 70.097656 31.3125 C 69.945312 32.015625 69.246094 31.863281 68.046875 31.964844 C 66.84375 32.0625 66.042969 32.761719 64.59375 32.863281 C 62.042969 33.164062 60.6875 34.714844 59.636719 36.214844 C 58.589844 37.714844 56.136719 37.816406 53.332031 37.964844 C 50.53125 38.117188 49.628906 38.769531 47.679688 38.964844 C 45.730469 39.167969 45.175781 39.914062 45.878906 41.667969 C 46.578125 43.417969 47.878906 45.472656 50.132812 46.519531 C 52.382812 47.570312 55.835938 47.464844 58.789062 47.519531 C 56.484375 47.972656 54.132812 51.917969 54.132812 51.917969 C 54.132812 51.917969 53.78125 51.621094 53.183594 51.121094 C 52.585938 50.621094 52.484375 51.621094 52.03125 52.871094 C 50.484375 54.019531 53.183594 56.222656 54.785156 56.917969 C 56.386719 57.621094 58.734375 56.320312 62.992188 54.824219 C 67.242188 53.320312 67.09375 55.167969 68.148438 56.222656 C 69.195312 57.269531 69.246094 60.722656 69.246094 63.019531 C 69.246094 65.324219 66.042969 71.375 65.894531 73.277344 C 65.34375 73.628906 64.191406 74.578125 63.441406 77.328125 C 62.691406 80.074219 64.742188 89.878906 65.242188 91.234375 C 65.746094 92.585938 65.941406 95.285156 65.941406 95.933594 C 65.941406 96.582031 65.242188 99.835938 65.894531 102.539062 C 66.542969 105.238281 67.042969 113.136719 66.996094 115.09375 C 66.945312 117.039062 66.59375 124.988281 66.195312 128.898438 C 65.792969 132.796875 64.695312 132.992188 63.84375 133.597656 C 62.992188 134.195312 62.789062 134.648438 62.789062 134.996094 C 62.789062 135.347656 63.339844 135.945312 62.339844 136.945312 C 61.339844 137.949219 61.339844 139.148438 61.589844 139.5 C 61.691406 140.851562 62.789062 140.445312 63.191406 140.246094 C 63.191406 141.546875 65.84375 140.445312 66.292969 140.148438 C 66.746094 139.847656 66.695312 139.09375 67.445312 138.746094 C 67.242188 138.992188 67.242188 139.347656 67.445312 139.796875 C 69.195312 140.148438 69.945312 139.09375 70.046875 137.949219 C 70.148438 136.792969 70.5 135.945312 70.796875 135.195312 C 71.097656 134.445312 71 132.84375 71.25 132.292969 C 71.496094 131.742188 71.597656 130.792969 71.496094 130.09375 C 71.398438 129.394531 71.347656 125.84375 71.347656 125.84375 C 71.347656 125.84375 71.597656 127.140625 72.402344 128.246094 C 73.199219 129.339844 75.253906 128.796875 76.351562 128.140625 C 77.453125 127.492188 79.105469 127.046875 80.453125 126.59375 C 80.804688 130.34375 79.503906 134.445312 78.902344 135.746094 C 78.304688 137.042969 76.753906 138.046875 76.503906 138.695312 C 76.253906 139.347656 76.550781 139.5 76.203125 139.996094 C 75.851562 140.496094 75.851562 141.851562 75.550781 142.996094 C 75.253906 144.148438 77.003906 143.5 77.703125 143.195312 C 77.851562 144.199219 78.703125 144.148438 80.007812 144 C 81.304688 143.851562 81.90625 142.5 81.90625 142.5 C 81.90625 142.5 81.90625 142.898438 81.855469 143.546875 C 82.007812 144.648438 84.558594 142.945312 84.660156 142.445312 C 84.761719 141.945312 84.609375 139.898438 84.957031 139.296875 C 85.511719 138.542969 85.3125 136.34375 84.957031 135.695312 C 84.609375 135.046875 85.210938 130.445312 85.660156 130.042969 C 86.808594 129.394531 86.511719 126.84375 86.511719 126.84375 C 86.511719 126.84375 86.511719 126.84375 86.859375 126.945312 C 88.160156 127.140625 88.414062 126.339844 88.011719 125.441406 C 88.761719 125.546875 93.117188 125.441406 94.015625 125.34375 C 94.917969 125.242188 94.015625 125.34375 96.570312 126.84375 C 99.121094 128.34375 101.324219 125.992188 100.824219 125.09375 C 102.023438 125.640625 105.425781 126.042969 105.777344 126.144531 C 106.125 126.242188 105.777344 126.691406 105.226562 126.796875 C 103.023438 127.242188 102.074219 129.792969 102.074219 131.195312 C 102.074219 132.59375 101.972656 133.5 102.375 133.445312 C 102.273438 134.546875 103.324219 134.945312 104.328125 134.796875 C 104.574219 135.796875 107.378906 134.648438 107.777344 134.195312 C 108.425781 135.394531 109.628906 132.945312 109.828125 132.492188 C 110.03125 132.046875 109.882812 129.695312 109.882812 129.445312 C 109.882812 129.195312 111.230469 127.992188 111.578125 127.644531 C 111.933594 127.296875 112.433594 126.890625 112.480469 126.042969 C 112.53125 125.191406 112.433594 122.042969 111.628906 121.039062 C 111.628906 121.039062 112.632812 118.441406 113.03125 115.839844 C 113.433594 113.242188 113.234375 113.242188 113.03125 110.136719 " fill-opacity="1" fill-rule="nonzero"/></g></svg>