<svg xmlns="http://www.w3.org/2000/svg" xmlns:xlink="http://www.w3.org/1999/xlink" width="200" zoomAndPan="magnify" viewBox="0 0 150 149.999998" height="200" preserveAspectRatio="xMidYMid meet" version="1.0"><defs><clipPath id="id1"><path d="M 3 4.742188 L 144.652344 4.742188 L 144.652344 119.492188 L 3 119.492188 Z M 3 4.742188 " clip-rule="nonzero"/></clipPath></defs><g clip-path="url(#id1)"><path fill="rgb(0%, 0%, 0%)" d="M 115.460938 116.488281 L 115.464844 116.488281 L 115.460938 116.488281 C 116.628906 116.550781 117.765625 116.613281 118.578125 116.542969 C 118.78125 116.523438 118.957031 116.5 119.105469 116.464844 C 119.800781 116.300781 119.820312 115.984375 119.792969 115.875 C 119.792969 115.871094 119.792969 115.863281 119.789062 115.855469 C 119.730469 115.671875 119.496094 115.527344 119.066406 115.308594 C 118.996094 115.269531 118.941406 115.203125 118.917969 115.125 C 118.835938 114.824219 118.792969 114.578125 118.15625 114.398438 C 117.914062 114.332031 117.589844 114.277344 117.214844 114.210938 C 116.769531 114.136719 116.261719 114.050781 115.789062 113.917969 C 115.5 113.835938 115.214844 113.734375 114.957031 113.601562 C 113.863281 113.035156 113.445312 111.976562 113.246094 108.902344 C 113.042969 105.789062 113.058594 100.472656 113.84375 94.046875 C 114.628906 87.625 116.179688 80.09375 117.566406 75.367188 C 118.234375 73.09375 118.859375 71.472656 119.425781 70.007812 C 119.890625 68.796875 120.316406 67.699219 120.6875 66.429688 C 120.804688 66.035156 120.914062 65.625 121.019531 65.1875 C 121.539062 63.035156 121.933594 60.269531 122.386719 57.097656 C 122.679688 55.039062 122.996094 52.8125 123.386719 50.484375 C 124.382812 44.574219 125.847656 37.996094 127.078125 34.15625 C 128.3125 30.292969 129.316406 29.171875 130.269531 28.199219 C 131.207031 27.242188 132.125 26.394531 134.160156 26.113281 C 134.339844 26.089844 134.523438 26.066406 134.714844 26.050781 C 135.519531 25.980469 136.445312 25.96875 137.363281 25.960938 C 138.296875 25.949219 139.21875 25.941406 140.023438 25.867188 C 140.359375 25.839844 140.675781 25.800781 140.957031 25.746094 C 142.691406 25.410156 143.234375 24.535156 143.304688 23.679688 C 143.375 22.765625 142.917969 21.792969 142.40625 20.722656 L 141.875 19.644531 L 142.328125 19.734375 L 141.140625 20.761719 C 141.089844 20.804688 141.023438 20.832031 140.953125 20.832031 L 139.90625 20.835938 C 139.789062 20.835938 139.679688 20.765625 139.636719 20.652344 L 139.292969 19.785156 L 139.753906 19.898438 L 139.082031 20.472656 C 139.027344 20.523438 138.953125 20.546875 138.878906 20.542969 L 130.386719 20.160156 C 130.242188 20.152344 130.125 20.039062 130.109375 19.894531 C 130.097656 19.75 130.191406 19.617188 130.335938 19.585938 C 133.945312 18.742188 137.5 17.914062 139.699219 16.796875 C 141.863281 15.699219 142.691406 14.328125 143.070312 13.136719 C 143.453125 11.933594 143.378906 10.890625 143.300781 9.792969 C 143.296875 9.738281 143.308594 9.6875 143.332031 9.640625 C 143.714844 8.886719 144 8.296875 143.828125 7.777344 C 143.664062 7.265625 143.003906 6.710938 141.9375 6.6875 C 141.800781 6.683594 141.660156 6.691406 141.511719 6.703125 C 140.875 6.757812 140.152344 6.945312 139.394531 7.140625 C 138.925781 7.261719 138.441406 7.382812 137.980469 7.476562 C 137.65625 7.539062 137.339844 7.585938 137.015625 7.613281 C 135.953125 7.707031 134.832031 7.59375 133.117188 7.199219 C 132.589844 7.078125 132.011719 6.933594 131.390625 6.777344 C 130.671875 6.597656 129.902344 6.402344 129.097656 6.21875 C 127.636719 5.882812 126.070312 5.582031 124.542969 5.460938 C 123.460938 5.375 122.394531 5.378906 121.328125 5.472656 C 119.34375 5.648438 117.347656 6.128906 115.21875 6.921875 C 111.863281 8.175781 108.46875 10.097656 108.132812 11.921875 C 107.933594 13 108.800781 14.140625 109.746094 15.34375 C 110.304688 16.050781 110.890625 16.785156 111.105469 17.472656 C 111.472656 18.648438 110.757812 19.617188 110.050781 20.613281 C 109.609375 21.230469 109.140625 21.890625 108.785156 22.691406 C 108.3125 23.753906 108.035156 25.078125 107.777344 26.332031 C 107.558594 27.390625 107.347656 28.417969 107.027344 29.140625 C 106.96875 29.277344 106.902344 29.40625 106.828125 29.523438 C 106.359375 30.292969 105.683594 30.511719 104.976562 30.574219 C 104.691406 30.597656 104.394531 30.597656 104.101562 30.597656 C 103.785156 30.601562 103.472656 30.601562 103.15625 30.628906 C 103.03125 30.640625 102.90625 30.65625 102.78125 30.675781 C 102.003906 30.808594 101.207031 31.171875 100.171875 31.648438 C 99.300781 32.046875 98.28125 32.519531 97.003906 32.957031 C 94.273438 33.890625 90.378906 34.671875 86.902344 35.367188 L 86.789062 35.390625 L 86.742188 35.398438 L 86.691406 35.410156 C 84.539062 35.839844 82.523438 36.242188 80.574219 36.414062 C 79.382812 36.519531 78.207031 36.535156 77.042969 36.421875 C 75.765625 36.292969 74.503906 36.003906 73.109375 35.683594 C 71.300781 35.273438 69.242188 34.804688 66.5625 34.535156 C 66.277344 34.507812 65.984375 34.480469 65.6875 34.457031 C 62.492188 34.203125 58.445312 34.242188 54.558594 34.585938 C 51.992188 34.808594 49.503906 35.164062 47.382812 35.652344 C 42.386719 36.796875 39.414062 38.671875 36.917969 40.246094 C 36.753906 40.347656 36.589844 40.449219 36.429688 40.550781 C 33.820312 42.1875 31.671875 43.382812 29.53125 44.574219 C 29.519531 44.578125 29.507812 44.585938 29.5 44.589844 L 29.492188 44.59375 C 26.886719 45.660156 24.230469 46.753906 21.28125 47.011719 C 20.761719 47.054688 20.234375 47.074219 19.695312 47.066406 C 16.136719 46.996094 11.917969 45.585938 11.148438 41.742188 C 10.402344 38.011719 13.023438 32.058594 15.558594 26.265625 L 15.953125 26.644531 C 10.550781 29.308594 5.363281 31.894531 4.445312 37.046875 C 3.515625 42.257812 6.929688 50.136719 11.65625 52.628906 C 13.328125 53.507812 15.179688 53.722656 17.042969 53.5625 C 20.160156 53.289062 23.269531 51.964844 25.554688 50.988281 C 25.734375 50.910156 25.914062 50.835938 26.082031 50.765625 C 29.683594 49.238281 30.640625 49.082031 31.605469 48.929688 C 31.695312 48.917969 31.785156 48.945312 31.851562 49.007812 C 31.917969 49.070312 31.949219 49.160156 31.941406 49.25 C 31.351562 54.746094 30.777344 60.171875 31.511719 63.976562 C 31.878906 65.859375 32.566406 67.347656 33.265625 68.863281 C 33.957031 70.359375 34.664062 71.886719 35.035156 73.800781 C 35.042969 73.832031 35.046875 73.867188 35.054688 73.898438 C 35.777344 77.785156 35.113281 83.253906 33.433594 87.488281 C 32.695312 89.339844 31.765625 90.957031 30.9375 92.398438 C 30.25 93.585938 29.640625 94.644531 29.25 95.636719 C 29.023438 96.199219 28.875 96.730469 28.820312 97.242188 C 28.648438 98.828125 29.371094 100.308594 30.191406 101.964844 C 30.664062 102.914062 31.160156 103.914062 31.484375 104.988281 C 31.960938 106.558594 32.066406 108.265625 32.160156 109.742188 C 32.234375 110.933594 32.300781 111.957031 32.523438 112.6875 C 32.539062 112.746094 32.558594 112.796875 32.578125 112.851562 C 32.988281 113.996094 33.890625 114.304688 34.734375 114.585938 C 34.996094 114.671875 35.265625 114.761719 35.492188 114.875 C 36.496094 115.386719 36.597656 116.355469 36.691406 117.132812 L 36.394531 116.875 L 36.398438 116.875 L 36.394531 116.875 C 37.757812 116.835938 39.113281 116.796875 40.25 116.699219 C 41.050781 116.628906 41.722656 116.53125 42.214844 116.386719 C 43.242188 116.085938 43.324219 115.667969 43.265625 115.472656 C 43.25 115.417969 43.222656 115.359375 43.175781 115.300781 C 42.875 114.894531 42.03125 114.601562 41.023438 114.265625 L 41.066406 114.277344 L 41.058594 114.277344 C 40.671875 114.207031 40.273438 114.136719 39.417969 113.679688 C 38.554688 113.21875 37.207031 112.363281 36.15625 110.394531 C 35.113281 108.449219 34.355469 105.410156 34.578125 103.050781 C 34.800781 100.667969 36.023438 99 37.191406 97.398438 C 37.257812 97.308594 37.367188 97.265625 37.480469 97.285156 C 37.589844 97.304688 37.675781 97.386719 37.707031 97.492188 C 38.265625 99.523438 38.820312 101.519531 40.03125 103.65625 C 41.246094 105.808594 43.125 108.09375 44.675781 109.191406 C 45.726562 109.929688 46.636719 110.132812 47.394531 110.300781 C 47.738281 110.375 48.074219 110.449219 48.367188 110.570312 C 48.746094 110.722656 49.039062 110.949219 49.296875 111.144531 C 49.546875 111.335938 49.753906 111.492188 50 111.589844 C 50.144531 111.648438 50.304688 111.6875 50.488281 111.695312 L 50.496094 111.695312 L 50.492188 111.695312 C 50.566406 111.699219 50.652344 111.695312 50.742188 111.6875 C 51.648438 111.609375 52.976562 111.015625 54.378906 110.386719 L 54.375 110.914062 L 48.5625 108.195312 C 48.550781 108.1875 48.535156 108.179688 48.523438 108.171875 C 45.875 106.359375 43.066406 104.457031 42.917969 100.601562 C 42.777344 96.816406 45.207031 91.203125 48.050781 87.25 C 49.175781 85.691406 50.367188 84.386719 51.488281 83.15625 C 52.507812 82.039062 53.464844 80.988281 54.277344 79.855469 C 54.851562 79.058594 55.355469 78.222656 55.753906 77.300781 C 57.351562 73.605469 57.335938 68.46875 57.3125 63.234375 C 57.3125 63.148438 57.351562 63.070312 57.414062 63.011719 C 57.480469 62.957031 57.566406 62.933594 57.652344 62.945312 L 59.410156 63.226562 L 59.390625 63.226562 C 61.921875 63.441406 64.503906 63.664062 67.96875 66.183594 C 69.203125 67.078125 70.546875 68.261719 71.957031 69.507812 C 73.546875 70.910156 75.226562 72.390625 76.957031 73.648438 C 77.972656 74.386719 79.003906 75.042969 80.035156 75.558594 C 84.375 77.722656 88.851562 77.421875 93.421875 77.109375 C 93.5 77.105469 93.578125 77.132812 93.636719 77.183594 C 93.695312 77.234375 93.730469 77.308594 93.730469 77.386719 C 94.015625 84.476562 94.300781 91.585938 93.792969 97.992188 C 93.519531 101.507812 93.003906 104.804688 92.582031 107.523438 C 92.285156 109.4375 92.035156 111.050781 91.9375 112.253906 C 91.921875 112.457031 91.910156 112.648438 91.90625 112.828125 C 91.828125 114.941406 92.445312 115.21875 92.941406 115.5 C 93.089844 115.582031 93.257812 115.675781 93.410156 115.808594 C 94.136719 116.429688 94.292969 117.753906 94.4375 118.875 L 94.15625 118.621094 C 95.488281 118.652344 96.832031 118.679688 97.960938 118.71875 L 97.96875 118.71875 L 97.964844 118.71875 C 99.097656 118.757812 100.027344 118.800781 100.953125 118.847656 L 100.957031 118.847656 L 100.65625 119.074219 C 100.957031 117.730469 101.171875 116.648438 100.667969 116.078125 C 100.136719 115.472656 98.757812 115.320312 97.15625 115.164062 C 96.996094 115.148438 96.878906 115.007812 96.894531 114.851562 C 97.359375 109.007812 97.828125 103.148438 98.914062 97 C 99.996094 90.855469 101.695312 84.425781 103.390625 78.007812 C 103.410156 77.933594 103.460938 77.867188 103.53125 77.828125 C 104.386719 77.359375 105.308594 76.851562 106.027344 76.71875 L 106.03125 76.71875 L 106.027344 76.71875 C 106.101562 76.707031 106.175781 76.695312 106.246094 76.691406 C 106.902344 76.632812 107.382812 76.886719 107.789062 77.097656 C 107.875 77.144531 107.933594 77.230469 107.945312 77.332031 C 108.308594 81.410156 108.671875 85.496094 108.894531 89.238281 C 109.121094 92.984375 109.203125 96.390625 109.09375 100.164062 C 109.074219 100.894531 109.046875 101.632812 109.015625 102.375 C 108.988281 103.117188 108.960938 103.863281 108.9375 104.59375 C 108.871094 106.921875 108.878906 109.105469 109.179688 110.769531 C 109.667969 113.449219 110.921875 114.800781 112.226562 116.195312 L 112.046875 116.105469 L 115.476562 116.488281 L 115.460938 116.488281 M 115.429688 117.070312 C 115.421875 117.070312 115.417969 117.066406 115.414062 117.066406 L 111.980469 116.683594 C 111.914062 116.675781 111.847656 116.644531 111.800781 116.59375 C 110.484375 115.183594 109.125 113.730469 108.605469 110.875 C 108.292969 109.140625 108.289062 106.902344 108.355469 104.578125 C 108.378906 103.84375 108.40625 103.097656 108.433594 102.351562 C 108.464844 101.609375 108.492188 100.875 108.511719 100.148438 C 108.621094 96.394531 108.539062 93.007812 108.3125 89.273438 C 108.089844 85.539062 107.726562 81.464844 107.363281 77.382812 L 107.519531 77.613281 C 107.105469 77.398438 106.765625 77.230469 106.296875 77.269531 C 106.242188 77.273438 106.191406 77.28125 106.132812 77.292969 C 105.527344 77.402344 104.703125 77.851562 103.8125 78.339844 L 103.953125 78.15625 C 102.257812 84.578125 100.566406 90.984375 99.488281 97.101562 C 98.410156 103.21875 97.941406 109.050781 97.472656 114.898438 L 97.210938 114.585938 C 98.683594 114.726562 100.382812 114.871094 101.105469 115.691406 C 101.851562 116.539062 101.496094 118.003906 101.226562 119.203125 C 101.195312 119.339844 101.070312 119.4375 100.925781 119.429688 C 99.996094 119.382812 99.074219 119.339844 97.945312 119.300781 L 97.941406 119.300781 C 96.816406 119.261719 95.476562 119.234375 94.144531 119.203125 C 94 119.199219 93.878906 119.09375 93.863281 118.949219 C 93.699219 117.722656 93.546875 116.691406 93.03125 116.25 C 92.929688 116.164062 92.8125 116.09375 92.65625 116.007812 C 91.972656 115.621094 91.238281 115.136719 91.324219 112.808594 C 91.328125 112.617188 91.34375 112.417969 91.359375 112.207031 C 91.457031 110.976562 91.710938 109.335938 92.007812 107.433594 C 92.429688 104.714844 92.941406 101.433594 93.214844 97.945312 C 93.714844 91.582031 93.433594 84.507812 93.148438 77.410156 L 93.460938 77.691406 C 88.914062 78.003906 84.277344 78.328125 79.777344 76.078125 C 78.707031 75.546875 77.648438 74.871094 76.613281 74.117188 C 74.859375 72.84375 73.160156 71.34375 71.570312 69.941406 C 70.15625 68.695312 68.832031 67.53125 67.628906 66.652344 C 64.292969 64.230469 61.839844 64.019531 59.339844 63.804688 C 59.332031 63.804688 59.324219 63.804688 59.320312 63.800781 L 57.558594 63.523438 L 57.894531 63.234375 C 57.917969 68.421875 57.945312 73.703125 56.289062 77.53125 C 55.871094 78.5 55.34375 79.371094 54.75 80.199219 C 53.914062 81.359375 52.933594 82.4375 51.917969 83.546875 C 50.792969 84.78125 49.625 86.0625 48.523438 87.589844 C 45.707031 91.5 43.363281 96.984375 43.5 100.578125 C 43.636719 104.101562 46.164062 105.851562 48.851562 107.691406 L 48.808594 107.667969 L 54.621094 110.386719 C 54.726562 110.4375 54.789062 110.539062 54.789062 110.652344 C 54.789062 110.765625 54.722656 110.871094 54.617188 110.917969 C 53.257812 111.527344 51.820312 112.179688 50.792969 112.269531 C 50.683594 112.277344 50.574219 112.28125 50.46875 112.277344 L 50.460938 112.277344 L 50.46875 112.277344 C 50.207031 112.269531 49.980469 112.210938 49.777344 112.128906 C 49.453125 111.996094 49.183594 111.789062 48.945312 111.609375 C 48.683594 111.410156 48.445312 111.230469 48.148438 111.109375 C 47.910156 111.011719 47.625 110.949219 47.269531 110.867188 C 46.496094 110.699219 45.488281 110.476562 44.339844 109.664062 C 42.695312 108.503906 40.765625 106.140625 39.523438 103.945312 C 38.273438 101.734375 37.707031 99.675781 37.144531 97.648438 L 37.660156 97.742188 C 36.488281 99.355469 35.363281 100.902344 35.160156 103.105469 C 34.949219 105.335938 35.671875 108.257812 36.667969 110.117188 C 37.648438 111.953125 38.890625 112.738281 39.691406 113.164062 C 40.484375 113.589844 40.820312 113.644531 41.160156 113.703125 L 41.164062 113.703125 C 41.179688 113.707031 41.191406 113.710938 41.207031 113.714844 C 42.121094 114.019531 43.203125 114.363281 43.644531 114.953125 C 43.722656 115.0625 43.789062 115.179688 43.824219 115.3125 C 44.03125 116.019531 43.457031 116.628906 42.378906 116.945312 C 41.832031 117.105469 41.109375 117.207031 40.300781 117.277344 C 39.144531 117.378906 37.769531 117.417969 36.410156 117.457031 L 36.40625 117.457031 C 36.261719 117.460938 36.132812 117.351562 36.113281 117.203125 C 36.011719 116.378906 35.917969 115.746094 35.226562 115.394531 C 35.046875 115.304688 34.824219 115.230469 34.550781 115.140625 C 33.714844 114.859375 32.542969 114.480469 32.027344 113.046875 C 32.007812 112.984375 31.984375 112.921875 31.964844 112.859375 C 31.71875 112.042969 31.652344 110.945312 31.578125 109.777344 C 31.484375 108.289062 31.378906 106.652344 30.929688 105.160156 C 30.617188 104.136719 30.144531 103.179688 29.667969 102.222656 C 28.867188 100.601562 28.046875 98.964844 28.238281 97.179688 C 28.300781 96.601562 28.46875 96.015625 28.707031 95.421875 C 29.121094 94.382812 29.753906 93.285156 30.429688 92.105469 C 31.261719 90.664062 32.171875 89.082031 32.890625 87.273438 C 34.539062 83.121094 35.183594 77.765625 34.480469 74.003906 C 34.476562 73.972656 34.46875 73.941406 34.464844 73.910156 C 34.109375 72.074219 33.429688 70.609375 32.738281 69.105469 C 32.039062 67.59375 31.320312 66.046875 30.941406 64.085938 C 30.183594 60.175781 30.777344 54.648438 31.359375 49.1875 L 31.695312 49.507812 C 30.792969 49.648438 29.878906 49.785156 26.308594 51.300781 C 26.140625 51.371094 25.964844 51.445312 25.785156 51.523438 C 23.511719 52.492188 20.320312 53.859375 17.097656 54.140625 C 15.152344 54.3125 13.179688 54.089844 11.382812 53.144531 C 6.410156 50.519531 2.902344 42.378906 3.871094 36.941406 C 4.851562 31.445312 10.382812 28.742188 15.699219 26.125 C 15.808594 26.070312 15.9375 26.089844 16.027344 26.175781 C 16.117188 26.257812 16.140625 26.390625 16.09375 26.5 C 13.511719 32.390625 11.019531 38.125 11.71875 41.628906 C 12.398438 45.027344 16.1875 46.414062 19.707031 46.484375 C 20.226562 46.492188 20.730469 46.472656 21.230469 46.429688 C 24.078125 46.179688 26.652344 45.128906 29.269531 44.054688 L 29.277344 44.050781 L 29.246094 44.066406 C 31.390625 42.875 33.527344 41.683594 36.121094 40.058594 C 36.28125 39.957031 36.441406 39.855469 36.605469 39.753906 C 39.117188 38.171875 42.15625 36.25 47.25 35.082031 C 49.40625 34.589844 51.921875 34.230469 54.507812 34.003906 C 58.417969 33.660156 62.5 33.621094 65.730469 33.875 C 66.035156 33.898438 66.332031 33.925781 66.617188 33.957031 C 69.339844 34.226562 71.425781 34.703125 73.238281 35.117188 C 74.640625 35.4375 75.867188 35.71875 77.097656 35.839844 C 78.222656 35.953125 79.359375 35.9375 80.523438 35.835938 C 82.433594 35.667969 84.417969 35.269531 86.578125 34.839844 L 86.625 34.828125 L 86.675781 34.820312 L 86.789062 34.796875 C 90.28125 34.097656 94.128906 33.324219 96.816406 32.40625 C 98.058594 31.976562 99.058594 31.519531 99.929688 31.117188 C 100.941406 30.652344 101.8125 30.25 102.683594 30.101562 C 102.828125 30.078125 102.96875 30.0625 103.105469 30.046875 C 103.449219 30.019531 103.785156 30.019531 104.097656 30.015625 C 104.398438 30.015625 104.667969 30.015625 104.925781 29.992188 C 105.53125 29.941406 105.996094 29.769531 106.332031 29.222656 C 106.386719 29.128906 106.441406 29.023438 106.496094 28.90625 C 106.785156 28.25 106.984375 27.296875 107.207031 26.214844 C 107.464844 24.976562 107.75 23.585938 108.253906 22.453125 C 108.632812 21.59375 109.136719 20.886719 109.574219 20.273438 C 110.335938 19.207031 110.816406 18.496094 110.550781 17.648438 C 110.375 17.085938 109.875 16.445312 109.289062 15.703125 C 108.410156 14.585938 107.300781 13.210938 107.558594 11.8125 C 107.96875 9.605469 111.765625 7.589844 115.015625 6.378906 C 117.183594 5.570312 119.230469 5.074219 121.277344 4.894531 C 122.378906 4.796875 123.476562 4.792969 124.589844 4.878906 C 126.15625 5.003906 127.753906 5.3125 129.230469 5.648438 C 130.039062 5.835938 130.816406 6.03125 131.535156 6.210938 C 132.15625 6.367188 132.730469 6.515625 133.246094 6.632812 C 134.933594 7.019531 135.988281 7.121094 136.964844 7.035156 C 137.265625 7.007812 137.5625 6.964844 137.867188 6.902344 C 138.3125 6.816406 138.777344 6.699219 139.25 6.574219 C 139.996094 6.382812 140.765625 6.183594 141.460938 6.125 C 141.625 6.109375 141.789062 6.101562 141.949219 6.105469 C 143.195312 6.132812 144.121094 6.789062 144.382812 7.597656 C 144.640625 8.394531 144.195312 9.226562 143.851562 9.902344 L 143.882812 9.75 C 143.960938 10.84375 144.046875 11.988281 143.625 13.3125 C 143.203125 14.648438 142.273438 16.144531 139.960938 17.316406 C 137.683594 18.472656 134.046875 19.316406 130.464844 20.152344 L 130.414062 19.578125 L 138.90625 19.960938 L 138.703125 20.03125 L 139.375 19.457031 C 139.445312 19.394531 139.542969 19.371094 139.632812 19.394531 C 139.726562 19.417969 139.800781 19.484375 139.835938 19.570312 L 140.175781 20.4375 L 139.90625 20.253906 L 140.949219 20.25 L 140.761719 20.320312 L 141.949219 19.296875 C 142.015625 19.234375 142.109375 19.210938 142.195312 19.230469 C 142.285156 19.25 142.359375 19.304688 142.398438 19.386719 L 142.929688 20.46875 C 143.421875 21.5 143.96875 22.625 143.882812 23.726562 C 143.792969 24.886719 143.011719 25.941406 141.066406 26.316406 C 140.757812 26.375 140.425781 26.417969 140.074219 26.449219 C 139.242188 26.523438 138.296875 26.53125 137.371094 26.542969 C 136.449219 26.550781 135.542969 26.5625 134.765625 26.632812 C 134.582031 26.648438 134.40625 26.667969 134.238281 26.691406 C 132.390625 26.945312 131.585938 27.6875 130.683594 28.605469 C 129.796875 29.511719 128.839844 30.550781 127.632812 34.332031 C 126.414062 38.136719 124.953125 44.683594 123.960938 50.578125 C 123.574219 52.902344 123.257812 55.121094 122.964844 57.179688 C 122.511719 60.34375 122.113281 63.140625 121.585938 65.324219 C 121.476562 65.769531 121.363281 66.191406 121.246094 66.59375 C 120.867188 67.890625 120.433594 69.007812 119.96875 70.21875 C 119.402344 71.679688 118.785156 73.285156 118.125 75.527344 C 116.75 80.222656 115.203125 87.722656 114.421875 94.117188 C 113.640625 100.507812 113.625 105.789062 113.828125 108.863281 C 114.03125 111.972656 114.453125 112.6875 115.226562 113.085938 C 115.433594 113.191406 115.679688 113.28125 115.945312 113.355469 C 116.382812 113.480469 116.859375 113.5625 117.3125 113.636719 C 117.675781 113.699219 118.035156 113.761719 118.316406 113.839844 C 119.21875 114.09375 119.371094 114.558594 119.480469 114.972656 L 119.332031 114.789062 C 119.671875 114.964844 120.199219 115.214844 120.347656 115.683594 C 120.351562 115.703125 120.355469 115.722656 120.363281 115.746094 C 120.488281 116.285156 120.109375 116.828125 119.238281 117.03125 C 119.054688 117.074219 118.847656 117.101562 118.628906 117.121094 C 117.765625 117.199219 116.582031 117.132812 115.429688 117.070312 L 115.425781 117.070312 Z M 115.429688 117.070312 " fill-opacity="1" fill-rule="nonzero"/></g><path fill="rgb(0%, 0%, 0%)" d="M 123.007812 5.285156 C 122.441406 5.285156 121.878906 5.308594 121.316406 5.359375 C 119.320312 5.535156 117.3125 6.019531 115.179688 6.816406 C 111.84375 8.058594 108.371094 10 108.019531 11.898438 C 107.808594 13.042969 108.722656 14.226562 109.65625 15.414062 L 109.710938 15.484375 C 110.257812 16.175781 110.796875 16.867188 110.996094 17.507812 C 111.335938 18.59375 110.703125 19.5 110 20.484375 L 109.957031 20.546875 C 109.515625 21.164062 109.039062 21.832031 108.679688 22.644531 C 108.199219 23.722656 107.921875 25.058594 107.664062 26.3125 C 107.660156 26.324219 107.660156 26.328125 107.660156 26.328125 C 107.660156 26.328125 107.660156 26.332031 107.660156 26.339844 L 107.652344 26.375 C 107.4375 27.414062 107.230469 28.398438 106.921875 29.09375 C 106.863281 29.226562 106.800781 29.351562 106.730469 29.464844 C 106.285156 30.191406 105.652344 30.398438 104.964844 30.457031 C 104.6875 30.480469 104.398438 30.484375 104.109375 30.484375 L 104.101562 30.484375 C 103.785156 30.484375 103.46875 30.484375 103.148438 30.511719 C 103.019531 30.523438 102.890625 30.539062 102.761719 30.5625 C 101.964844 30.695312 101.152344 31.070312 100.125 31.542969 L 100.121094 31.542969 L 100.117188 31.546875 C 99.25 31.945312 98.234375 32.414062 96.96875 32.847656 C 94.246094 33.777344 90.371094 34.554688 86.894531 35.25 L 86.878906 35.253906 L 86.765625 35.277344 L 86.71875 35.285156 L 86.675781 35.296875 C 86.671875 35.296875 86.671875 35.296875 86.667969 35.296875 C 84.515625 35.726562 82.507812 36.128906 80.566406 36.300781 C 79.941406 36.355469 79.320312 36.386719 78.707031 36.386719 C 78.152344 36.386719 77.601562 36.359375 77.050781 36.304688 C 75.789062 36.179688 74.539062 35.894531 73.144531 35.574219 L 73.132812 35.574219 C 71.328125 35.160156 69.265625 34.691406 66.582031 34.421875 C 66.578125 34.421875 66.574219 34.421875 66.574219 34.421875 C 66.285156 34.390625 65.996094 34.367188 65.695312 34.339844 C 64.320312 34.234375 62.789062 34.179688 61.183594 34.179688 C 59.042969 34.179688 56.769531 34.273438 54.546875 34.46875 C 51.976562 34.695312 49.484375 35.050781 47.355469 35.539062 C 42.339844 36.6875 39.355469 38.570312 36.855469 40.148438 L 36.800781 40.179688 C 36.65625 40.273438 36.511719 40.363281 36.371094 40.453125 C 33.765625 42.085938 31.617188 43.28125 29.476562 44.472656 L 29.472656 44.472656 C 29.46875 44.476562 29.464844 44.476562 29.457031 44.480469 C 29.457031 44.480469 29.457031 44.480469 29.453125 44.480469 L 29.4375 44.488281 C 26.832031 45.558594 24.199219 46.640625 21.273438 46.894531 C 20.847656 46.933594 20.417969 46.953125 19.976562 46.953125 C 19.886719 46.953125 19.789062 46.953125 19.699219 46.949219 C 16.148438 46.882812 12.011719 45.476562 11.261719 41.722656 C 10.554688 38.1875 12.90625 32.621094 15.34375 27.046875 C 15.355469 27.019531 15.359375 26.992188 15.351562 26.964844 C 15.339844 26.933594 15.316406 26.90625 15.285156 26.894531 C 15.269531 26.886719 15.253906 26.882812 15.238281 26.882812 C 15.222656 26.882812 15.203125 26.886719 15.1875 26.894531 C 10.0625 29.433594 5.21875 32.035156 4.332031 37.023438 C 3.394531 42.285156 6.828125 50.210938 11.601562 52.730469 C 12.957031 53.445312 14.429688 53.726562 15.925781 53.726562 C 16.300781 53.726562 16.675781 53.707031 17.054688 53.675781 C 20.191406 53.402344 23.320312 52.066406 25.601562 51.09375 C 25.785156 51.015625 25.953125 50.945312 26.125 50.871094 C 29.722656 49.347656 30.671875 49.195312 31.621094 49.046875 C 31.632812 49.042969 31.640625 49.042969 31.648438 49.042969 C 31.695312 49.042969 31.738281 49.058594 31.769531 49.089844 C 31.8125 49.128906 31.832031 49.183594 31.824219 49.238281 C 31.238281 54.726562 30.660156 60.171875 31.398438 64 C 31.765625 65.894531 32.460938 67.394531 33.160156 68.910156 L 33.164062 68.921875 L 33.171875 68.933594 C 33.863281 70.425781 34.554688 71.933594 34.921875 73.824219 C 34.929688 73.855469 34.933594 73.886719 34.941406 73.917969 C 35.660156 77.78125 35 83.226562 33.324219 87.445312 C 32.59375 89.289062 31.667969 90.894531 30.839844 92.332031 L 30.835938 92.339844 C 30.152344 93.527344 29.539062 94.59375 29.140625 95.59375 C 28.914062 96.164062 28.761719 96.707031 28.703125 97.230469 C 28.527344 98.855469 29.273438 100.367188 30.089844 102.015625 L 30.09375 102.023438 L 30.101562 102.042969 C 30.570312 102.984375 31.054688 103.96875 31.375 105.023438 C 31.84375 106.570312 31.949219 108.257812 32.042969 109.734375 L 32.042969 109.746094 C 32.121094 110.9375 32.1875 111.972656 32.414062 112.722656 C 32.429688 112.78125 32.449219 112.835938 32.46875 112.890625 C 32.902344 114.09375 33.855469 114.414062 34.699219 114.695312 C 34.703125 114.699219 34.707031 114.699219 34.707031 114.699219 L 34.714844 114.699219 C 34.972656 114.785156 35.226562 114.871094 35.4375 114.980469 C 36.277344 115.40625 36.449219 116.164062 36.542969 116.882812 C 36.550781 116.941406 36.601562 116.984375 36.65625 116.984375 C 36.660156 116.984375 36.664062 116.984375 36.664062 116.984375 C 36.667969 116.984375 36.667969 116.984375 36.671875 116.984375 L 36.667969 116.984375 L 36.671875 116.984375 C 37.941406 116.945312 39.195312 116.90625 40.261719 116.8125 C 41.0625 116.742188 41.746094 116.644531 42.25 116.496094 C 43.285156 116.195312 43.460938 115.738281 43.378906 115.445312 L 43.378906 115.441406 C 43.355469 115.371094 43.320312 115.300781 43.269531 115.234375 L 43.269531 115.230469 C 42.941406 114.796875 42.066406 114.492188 41.089844 114.167969 C 41.082031 114.164062 41.074219 114.160156 41.0625 114.160156 C 40.691406 114.09375 40.304688 114.019531 39.472656 113.578125 C 38.621094 113.125 37.296875 112.28125 36.257812 110.339844 C 35.226562 108.410156 34.472656 105.398438 34.695312 103.0625 C 34.914062 100.726562 36.105469 99.085938 37.269531 97.488281 L 37.285156 97.46875 C 37.316406 97.421875 37.371094 97.394531 37.425781 97.394531 C 37.4375 97.394531 37.449219 97.398438 37.457031 97.398438 C 37.523438 97.410156 37.578125 97.460938 37.597656 97.523438 L 37.597656 97.53125 C 38.15625 99.554688 38.710938 101.5625 39.929688 103.714844 C 41.152344 105.875 43.039062 108.175781 44.609375 109.285156 C 45.679688 110.039062 46.605469 110.246094 47.371094 110.414062 L 47.386719 110.417969 C 47.390625 110.417969 47.402344 110.421875 47.402344 110.421875 C 47.734375 110.492188 48.050781 110.566406 48.324219 110.675781 C 48.679688 110.824219 48.960938 111.035156 49.214844 111.230469 C 49.21875 111.230469 49.226562 111.238281 49.226562 111.238281 C 49.472656 111.425781 49.695312 111.589844 49.953125 111.699219 C 49.957031 111.699219 49.960938 111.699219 49.964844 111.699219 C 50.117188 111.761719 50.285156 111.804688 50.480469 111.8125 C 50.484375 111.8125 50.488281 111.8125 50.492188 111.8125 C 50.492188 111.8125 50.496094 111.8125 50.496094 111.8125 C 50.515625 111.8125 50.535156 111.8125 50.554688 111.8125 C 50.617188 111.8125 50.683594 111.808594 50.753906 111.804688 C 51.554688 111.734375 52.667969 111.273438 53.847656 110.75 L 53.859375 110.742188 C 53.894531 110.722656 53.917969 110.679688 53.914062 110.640625 C 53.914062 110.597656 53.886719 110.558594 53.847656 110.542969 L 48.613281 108.089844 C 48.605469 108.085938 48.59375 108.082031 48.585938 108.074219 L 48.546875 108.046875 L 48.503906 108.019531 C 45.875 106.21875 43.179688 104.34375 43.035156 100.597656 C 42.890625 96.851562 45.304688 91.261719 48.144531 87.316406 C 49.261719 85.765625 50.449219 84.464844 51.570312 83.238281 L 51.574219 83.234375 L 51.589844 83.214844 C 52.601562 82.105469 53.554688 81.054688 54.371094 79.925781 C 54.949219 79.121094 55.457031 78.277344 55.859375 77.34375 C 57.46875 73.625 57.449219 68.457031 57.429688 63.234375 C 57.429688 63.183594 57.453125 63.132812 57.492188 63.101562 C 57.523438 63.074219 57.5625 63.058594 57.605469 63.058594 C 57.613281 63.058594 57.625 63.058594 57.632812 63.0625 L 59.382812 63.339844 C 59.386719 63.339844 59.394531 63.34375 59.402344 63.34375 L 59.398438 63.34375 C 61.917969 63.558594 64.472656 63.785156 67.902344 66.277344 C 69.128906 67.167969 70.464844 68.34375 71.871094 69.585938 L 71.878906 69.59375 C 73.46875 70.996094 75.15625 72.480469 76.890625 73.742188 C 77.910156 74.480469 78.945312 75.144531 79.984375 75.664062 C 82.816406 77.074219 85.703125 77.445312 88.628906 77.445312 C 90.21875 77.445312 91.820312 77.335938 93.429688 77.226562 C 93.433594 77.226562 93.4375 77.222656 93.441406 77.222656 C 93.484375 77.222656 93.527344 77.242188 93.558594 77.269531 C 93.59375 77.300781 93.613281 77.347656 93.617188 77.394531 L 93.617188 77.402344 L 93.621094 77.476562 C 93.902344 84.539062 94.179688 91.609375 93.679688 97.980469 C 93.402344 101.492188 92.890625 104.785156 92.46875 107.5 L 92.46875 107.503906 C 92.171875 109.417969 91.917969 111.035156 91.824219 112.246094 C 91.808594 112.449219 91.796875 112.644531 91.789062 112.824219 C 91.714844 114.910156 92.3125 115.277344 92.839844 115.574219 C 92.867188 115.589844 92.859375 115.585938 92.886719 115.601562 C 92.890625 115.601562 92.898438 115.609375 92.898438 115.609375 L 92.910156 115.613281 C 93.050781 115.691406 93.203125 115.78125 93.335938 115.894531 C 93.96875 116.4375 94.148438 117.566406 94.292969 118.644531 C 94.296875 118.675781 94.316406 118.707031 94.34375 118.726562 C 94.363281 118.738281 94.386719 118.742188 94.40625 118.742188 C 94.40625 118.742188 94.410156 118.742188 94.410156 118.742188 L 94.414062 118.742188 C 95.660156 118.769531 96.898438 118.800781 97.953125 118.835938 C 97.957031 118.835938 97.960938 118.835938 97.964844 118.835938 C 97.96875 118.835938 97.96875 118.835938 97.96875 118.835938 L 97.972656 118.835938 C 99 118.867188 99.859375 118.910156 100.703125 118.953125 C 100.707031 118.953125 100.707031 118.953125 100.710938 118.953125 C 100.738281 118.953125 100.769531 118.941406 100.789062 118.921875 C 100.808594 118.90625 100.820312 118.882812 100.824219 118.859375 C 101.089844 117.652344 101.273438 116.59375 100.753906 116 C 100.183594 115.355469 98.742188 115.203125 97.167969 115.050781 C 97.070312 115.039062 97 114.957031 97.007812 114.859375 L 97.007812 114.847656 C 97.476562 109.007812 97.945312 103.15625 99.027344 97.019531 C 100.109375 90.882812 101.804688 84.460938 103.5 78.046875 L 103.5 78.039062 L 103.503906 78.039062 C 103.515625 77.992188 103.546875 77.953125 103.585938 77.929688 L 103.625 77.90625 L 103.664062 77.886719 C 104.5 77.429688 105.367188 76.960938 106.042969 76.835938 L 106.039062 76.835938 C 106.046875 76.835938 106.050781 76.832031 106.054688 76.832031 C 106.125 76.820312 106.191406 76.8125 106.253906 76.804688 C 106.316406 76.800781 106.375 76.796875 106.433594 76.796875 C 106.957031 76.796875 107.355469 77.003906 107.71875 77.191406 L 107.734375 77.199219 C 107.789062 77.226562 107.824219 77.28125 107.828125 77.339844 L 107.828125 77.34375 C 108.191406 81.421875 108.554688 85.503906 108.78125 89.246094 C 109.003906 92.988281 109.089844 96.390625 108.980469 100.164062 C 108.957031 100.890625 108.929688 101.628906 108.902344 102.367188 L 108.902344 102.371094 C 108.871094 103.117188 108.84375 103.855469 108.824219 104.589844 C 108.753906 106.917969 108.761719 109.113281 109.066406 110.792969 C 109.550781 113.453125 110.789062 114.824219 112.070312 116.199219 C 112.089844 116.222656 112.121094 116.234375 112.152344 116.234375 L 112.148438 116.234375 L 115.457031 116.601562 C 115.460938 116.605469 115.464844 116.605469 115.46875 116.605469 C 115.46875 116.605469 115.472656 116.605469 115.472656 116.605469 C 116.261719 116.648438 117.042969 116.6875 117.714844 116.6875 C 118.03125 116.6875 118.324219 116.679688 118.585938 116.65625 C 118.792969 116.640625 118.976562 116.613281 119.132812 116.578125 C 119.867188 116.40625 119.953125 116.039062 119.90625 115.851562 L 119.90625 115.847656 C 119.90625 115.839844 119.902344 115.832031 119.898438 115.824219 L 119.894531 115.808594 C 119.8125 115.574219 119.519531 115.410156 119.121094 115.207031 C 119.078125 115.183594 119.042969 115.144531 119.03125 115.097656 L 119.03125 115.09375 C 119.03125 115.089844 119.023438 115.070312 119.023438 115.0625 C 119.019531 115.058594 119.015625 115.035156 119.015625 115.03125 C 118.929688 114.726562 118.824219 114.46875 118.1875 114.289062 C 117.941406 114.21875 117.613281 114.164062 117.246094 114.101562 L 117.242188 114.101562 C 117.242188 114.097656 117.238281 114.097656 117.234375 114.097656 C 117.234375 114.097656 117.230469 114.097656 117.226562 114.097656 C 117.21875 114.09375 117.214844 114.09375 117.210938 114.09375 C 117.210938 114.09375 117.210938 114.09375 117.199219 114.09375 C 116.765625 114.019531 116.28125 113.9375 115.832031 113.808594 C 115.828125 113.808594 115.824219 113.808594 115.820312 113.804688 C 115.535156 113.726562 115.257812 113.628906 115.011719 113.5 C 113.980469 112.96875 113.5625 111.976562 113.359375 108.894531 C 113.15625 105.789062 113.171875 100.476562 113.957031 94.058594 C 114.742188 87.644531 116.292969 80.117188 117.679688 75.398438 C 118.34375 73.132812 118.96875 71.515625 119.53125 70.050781 C 120 68.839844 120.425781 67.738281 120.796875 66.464844 C 120.914062 66.066406 121.027344 65.652344 121.132812 65.214844 C 121.652344 63.054688 122.046875 60.285156 122.5 57.113281 C 122.792969 55.054688 123.113281 52.832031 123.503906 50.503906 C 124.496094 44.59375 125.960938 38.023438 127.1875 34.191406 C 128.417969 30.34375 129.410156 29.238281 130.351562 28.28125 C 131.28125 27.332031 132.175781 26.503906 134.175781 26.226562 C 134.351562 26.203125 134.535156 26.183594 134.726562 26.167969 C 135.523438 26.097656 136.441406 26.085938 137.359375 26.074219 L 137.363281 26.074219 C 138.296875 26.066406 139.222656 26.054688 140.03125 25.984375 C 140.375 25.953125 140.691406 25.914062 140.976562 25.859375 C 142.757812 25.515625 143.347656 24.605469 143.417969 23.691406 C 143.492188 22.746094 143.023438 21.746094 142.519531 20.691406 L 142.515625 20.691406 C 142.515625 20.683594 142.511719 20.679688 142.507812 20.671875 L 142.144531 19.933594 L 142.148438 19.933594 C 142.136719 19.910156 142.117188 19.890625 142.089844 19.878906 C 142.074219 19.871094 142.058594 19.867188 142.042969 19.867188 C 142.015625 19.867188 141.988281 19.875 141.96875 19.894531 L 141.066406 20.671875 C 141.035156 20.699219 140.992188 20.714844 140.953125 20.714844 L 139.90625 20.722656 C 139.832031 20.722656 139.769531 20.675781 139.742188 20.609375 L 139.550781 20.121094 C 139.535156 20.085938 139.507812 20.0625 139.46875 20.054688 C 139.460938 20.050781 139.453125 20.050781 139.441406 20.050781 C 139.414062 20.050781 139.390625 20.058594 139.367188 20.078125 L 139.007812 20.386719 C 138.976562 20.414062 138.933594 20.429688 138.894531 20.429688 C 138.890625 20.429688 138.886719 20.429688 138.886719 20.429688 L 130.394531 20.042969 C 130.304688 20.039062 130.234375 19.972656 130.226562 19.882812 C 130.21875 19.796875 130.273438 19.71875 130.359375 19.699219 L 130.378906 19.691406 C 133.980469 18.855469 137.539062 18.023438 139.75 16.902344 C 141.945312 15.789062 142.792969 14.394531 143.179688 13.171875 C 143.570312 11.945312 143.496094 10.878906 143.414062 9.785156 C 143.414062 9.75 143.417969 9.71875 143.433594 9.691406 C 143.808594 8.957031 144.125 8.316406 143.9375 7.742188 C 143.753906 7.171875 143.042969 6.597656 141.941406 6.574219 C 141.914062 6.570312 141.890625 6.570312 141.867188 6.570312 C 141.75 6.570312 141.628906 6.578125 141.5 6.589844 C 140.855469 6.644531 140.121094 6.832031 139.367188 7.027344 L 139.363281 7.027344 L 139.359375 7.03125 C 138.890625 7.152344 138.414062 7.273438 137.957031 7.363281 C 137.636719 7.425781 137.324219 7.472656 137.007812 7.5 C 136.78125 7.519531 136.550781 7.53125 136.3125 7.53125 C 135.449219 7.53125 134.480469 7.394531 133.140625 7.085938 C 132.621094 6.96875 132.039062 6.820312 131.421875 6.664062 C 130.703125 6.484375 129.929688 6.289062 129.125 6.105469 C 127.660156 5.769531 126.089844 5.46875 124.554688 5.347656 L 124.550781 5.347656 C 124.035156 5.304688 123.519531 5.285156 123.007812 5.285156 Z M 123.007812 5.285156 " fill-opacity="1" fill-rule="nonzero"/><path fill="rgb(0%, 0%, 0%)" d="M 108.492188 34.722656 L 104.207031 30.417969 C 104.5 29.109375 104.867188 28.160156 105.3125 27.566406 C 105.6875 27 106.515625 26.28125 107.800781 25.410156 C 107.339844 26.214844 107.050781 26.808594 106.941406 27.195312 C 106.894531 27.355469 106.867188 27.503906 106.855469 27.648438 L 106.851562 27.855469 C 106.859375 27.992188 106.894531 28.117188 106.949219 28.234375 C 107.007812 28.351562 107.089844 28.457031 107.195312 28.554688 C 107.222656 28.613281 107.425781 28.742188 107.796875 28.945312 C 108.191406 29.140625 108.875 29.363281 109.851562 29.609375 L 108.492188 34.722656 " fill-opacity="1" fill-rule="nonzero"/><path fill="rgb(0%, 0%, 0%)" d="M 120.113281 43.058594 L 120.636719 43.128906 C 122.570312 43.402344 123.992188 43.507812 124.898438 43.445312 C 125.421875 43.414062 125.863281 43.324219 126.226562 43.175781 C 126.589844 43.027344 126.882812 42.839844 127.105469 42.613281 C 127.734375 41.917969 127.976562 41.15625 127.828125 40.320312 C 127.753906 39.671875 127.207031 38.824219 126.1875 37.78125 C 126.304688 38.507812 126.316406 39.09375 126.222656 39.550781 C 126.167969 39.804688 126.066406 40.054688 125.914062 40.292969 C 125.691406 40.585938 125.539062 40.757812 125.457031 40.8125 C 125.285156 40.957031 125.085938 41.097656 124.859375 41.234375 C 124.773438 41.308594 124.378906 41.503906 123.671875 41.824219 C 122.941406 42.136719 121.757812 42.550781 120.113281 43.058594 " fill-opacity="1" fill-rule="nonzero"/></svg>