<svg xmlns="http://www.w3.org/2000/svg" xmlns:xlink="http://www.w3.org/1999/xlink" width="500" zoomAndPan="magnify" viewBox="0 0 375 374.999991" height="500" preserveAspectRatio="xMidYMid meet" version="1.0"><defs><clipPath id="id1"><path d="M 47.238281 45.132812 L 309.527344 45.132812 L 309.527344 306.882812 L 47.238281 306.882812 Z M 47.238281 45.132812 " clip-rule="nonzero"/></clipPath></defs><path fill="rgb(100%, 4.309082%, 51.759338%)" d="M 98.144531 144.214844 L 89.980469 144.214844 L 89.980469 166.96875 L 97.105469 166.96875 C 97.660156 166.96875 98.222656 166.921875 98.773438 166.828125 C 102.527344 166.191406 105.546875 163.578125 106.660156 160 C 107.085938 158.640625 107.296875 157.214844 107.296875 155.761719 C 107.296875 152.582031 106.25 149.519531 104.347656 147.140625 C 102.863281 145.28125 100.601562 144.214844 98.144531 144.214844 " fill-opacity="1" fill-rule="nonzero"/><path fill="rgb(100%, 4.309082%, 51.759338%)" d="M 197.269531 157.417969 L 205.152344 157.417969 L 201.074219 147.703125 L 197.269531 157.417969 " fill-opacity="1" fill-rule="nonzero"/><g clip-path="url(#id1)"><path fill="rgb(100%, 4.309082%, 51.759338%)" d="M 302.476562 178.535156 C 302.453125 179.824219 301.402344 180.855469 300.121094 180.855469 C 300.109375 180.855469 300.09375 180.855469 300.082031 180.855469 C 298.78125 180.832031 297.746094 179.757812 297.765625 178.457031 C 297.777344 177.835938 297.78125 177.21875 297.78125 176.601562 C 297.785156 172.113281 297.523438 167.5625 297.011719 163.078125 C 296.863281 161.785156 297.789062 160.613281 299.082031 160.464844 C 300.375 160.3125 301.542969 161.25 301.6875 162.542969 C 302.222656 167.203125 302.492188 171.933594 302.492188 176.601562 C 302.492188 177.246094 302.488281 177.890625 302.476562 178.535156 Z M 294.277344 147.929688 C 293.042969 142.957031 291.476562 138.019531 289.621094 133.25 C 289.148438 132.035156 289.746094 130.667969 290.960938 130.195312 C 292.167969 129.726562 293.535156 130.320312 294.007812 131.535156 C 295.9375 136.492188 297.566406 141.625 298.847656 146.792969 C 299.160156 148.054688 298.390625 149.335938 297.128906 149.652344 C 296.9375 149.699219 296.746094 149.71875 296.558594 149.71875 C 295.503906 149.71875 294.542969 149.003906 294.277344 147.929688 Z M 286.328125 120.226562 C 285.972656 120.425781 285.585938 120.515625 285.203125 120.515625 C 284.371094 120.515625 283.5625 120.074219 283.132812 119.289062 C 280.683594 114.789062 277.921875 110.410156 274.921875 106.265625 C 274.160156 105.210938 274.390625 103.734375 275.445312 102.96875 C 276.5 102.203125 277.96875 102.4375 278.734375 103.492188 C 281.851562 107.800781 284.722656 112.355469 287.269531 117.023438 C 287.890625 118.171875 287.472656 119.605469 286.328125 120.226562 Z M 266.222656 152.890625 C 267.523438 152.890625 268.578125 153.945312 268.578125 155.25 C 268.578125 156.550781 267.523438 157.609375 266.222656 157.609375 L 252.09375 157.609375 L 252.09375 166.96875 L 267.597656 166.96875 C 268.894531 166.96875 269.949219 168.027344 269.949219 169.328125 C 269.949219 170.632812 268.894531 171.6875 267.597656 171.6875 L 249.742188 171.6875 C 248.441406 171.6875 247.386719 170.632812 247.386719 169.328125 L 247.386719 141.855469 C 247.386719 140.550781 248.441406 139.496094 249.742188 139.496094 L 267.597656 139.496094 C 268.894531 139.496094 269.949219 140.550781 269.949219 141.855469 C 269.949219 143.15625 268.894531 144.214844 267.597656 144.214844 L 252.09375 144.214844 L 252.09375 152.890625 Z M 244.613281 74.175781 C 244.167969 74.898438 243.398438 75.292969 242.613281 75.292969 C 242.1875 75.292969 241.757812 75.175781 241.371094 74.9375 C 237.039062 72.238281 232.480469 69.792969 227.820312 67.671875 C 226.636719 67.132812 226.113281 65.734375 226.652344 64.546875 C 227.191406 63.359375 228.59375 62.835938 229.773438 63.375 C 234.613281 65.582031 239.351562 68.125 243.855469 70.925781 C 244.960938 71.617188 245.300781 73.070312 244.613281 74.175781 Z M 240.496094 143.785156 L 232.234375 143.785156 L 232.234375 169.757812 C 232.234375 171.058594 231.175781 172.117188 229.875 172.117188 C 228.578125 172.117188 227.523438 171.058594 227.523438 169.757812 L 227.523438 143.785156 L 219.570312 143.785156 C 218.273438 143.785156 217.21875 142.726562 217.21875 141.425781 C 217.21875 140.125 218.273438 139.066406 219.570312 139.066406 L 240.496094 139.066406 C 241.796875 139.066406 242.851562 140.125 242.851562 141.425781 C 242.851562 142.726562 241.796875 143.785156 240.496094 143.785156 Z M 216.394531 60.640625 C 216.082031 61.65625 215.152344 62.304688 214.144531 62.304688 C 213.917969 62.304688 213.683594 62.273438 213.449219 62.199219 C 208.554688 60.683594 203.523438 59.480469 198.503906 58.609375 C 197.222656 58.390625 196.363281 57.167969 196.582031 55.882812 C 196.804688 54.597656 198.027344 53.742188 199.304688 53.960938 C 204.523438 54.863281 209.75 56.117188 214.839844 57.691406 C 216.082031 58.074219 216.777344 59.394531 216.394531 60.640625 Z M 213.789062 171.925781 C 213.492188 172.050781 213.179688 172.109375 212.878906 172.109375 C 211.957031 172.109375 211.085938 171.566406 210.707031 170.664062 L 207.128906 162.140625 L 195.417969 162.140625 L 192.101562 170.609375 C 191.734375 171.542969 190.847656 172.109375 189.90625 172.109375 C 189.621094 172.109375 189.328125 172.054688 189.046875 171.945312 C 187.835938 171.46875 187.238281 170.097656 187.714844 168.886719 L 198.808594 140.574219 C 198.808594 140.566406 198.8125 140.5625 198.816406 140.558594 C 198.859375 140.441406 198.921875 140.332031 198.988281 140.21875 C 199.003906 140.195312 199.011719 140.167969 199.027344 140.144531 C 199.230469 139.832031 199.515625 139.574219 199.859375 139.382812 C 199.929688 139.34375 199.996094 139.300781 200.070312 139.269531 C 200.074219 139.265625 200.082031 139.261719 200.085938 139.257812 C 200.164062 139.226562 200.246094 139.210938 200.328125 139.183594 C 200.386719 139.167969 200.445312 139.144531 200.503906 139.128906 C 200.609375 139.109375 200.714844 139.101562 200.820312 139.09375 C 200.867188 139.085938 200.910156 139.078125 200.960938 139.078125 C 201.066406 139.074219 201.171875 139.089844 201.28125 139.101562 C 201.328125 139.105469 201.375 139.105469 201.421875 139.113281 C 201.539062 139.136719 201.652344 139.171875 201.765625 139.210938 C 201.796875 139.222656 201.828125 139.226562 201.859375 139.238281 C 201.863281 139.238281 201.863281 139.242188 201.867188 139.242188 C 202.003906 139.296875 202.132812 139.363281 202.253906 139.441406 C 202.265625 139.449219 202.277344 139.453125 202.285156 139.457031 C 202.453125 139.566406 202.597656 139.703125 202.734375 139.851562 C 202.804688 139.929688 202.878906 140.007812 202.941406 140.097656 C 202.957031 140.125 202.96875 140.15625 202.988281 140.183594 C 203.054688 140.289062 203.113281 140.394531 203.164062 140.507812 C 203.164062 140.511719 203.167969 140.515625 203.171875 140.519531 L 210.863281 158.859375 C 210.863281 158.859375 210.863281 158.859375 210.863281 158.863281 L 215.046875 168.835938 C 215.550781 170.035156 214.988281 171.417969 213.789062 171.925781 Z M 187.503906 206.441406 L 177 215.742188 C 176.5 216.191406 175.839844 216.445312 175.152344 216.445312 C 174.476562 216.445312 173.824219 216.199219 173.3125 215.75 L 163.027344 206.65625 C 157.875 201.503906 156.550781 198.277344 157.675781 193.773438 C 158.660156 189.816406 161.398438 187.019531 165.386719 185.898438 C 168.5 185.027344 172.105469 185.925781 175.15625 188.226562 C 178.210938 185.921875 181.820312 185.027344 184.921875 185.898438 C 188.910156 187.019531 191.644531 189.816406 192.636719 193.773438 C 193.714844 198.105469 192.277344 201.660156 187.503906 206.441406 Z M 152.675781 59.722656 C 147.695312 60.835938 142.730469 62.285156 137.917969 64.03125 C 137.652344 64.128906 137.382812 64.171875 137.117188 64.171875 C 136.152344 64.171875 135.246094 63.578125 134.902344 62.617188 C 134.457031 61.390625 135.089844 60.035156 136.3125 59.59375 C 141.316406 57.777344 146.476562 56.273438 151.652344 55.117188 C 152.921875 54.828125 154.179688 55.632812 154.460938 56.90625 C 154.746094 58.179688 153.945312 59.441406 152.675781 59.722656 Z M 154.429688 296.144531 C 154.1875 297.246094 153.210938 297.996094 152.132812 297.996094 C 151.964844 297.996094 151.792969 297.976562 151.621094 297.941406 C 147.128906 296.945312 142.644531 295.6875 138.300781 294.199219 C 137.625 293.964844 136.949219 293.726562 136.273438 293.484375 C 135.050781 293.039062 134.417969 291.6875 134.863281 290.460938 C 135.304688 289.234375 136.652344 288.601562 137.878906 289.046875 C 138.523438 289.28125 139.171875 289.511719 139.824219 289.734375 C 144.003906 291.164062 148.3125 292.375 152.636719 293.332031 C 153.90625 293.613281 154.710938 294.871094 154.429688 296.144531 Z M 131.445312 214.742188 C 131.445312 216.042969 130.390625 217.101562 129.089844 217.101562 C 127.792969 217.101562 126.738281 216.042969 126.738281 214.742188 L 126.738281 187.265625 C 126.738281 186.25 127.386719 185.347656 128.347656 185.027344 C 129.304688 184.707031 130.367188 185.035156 130.976562 185.847656 L 147.296875 207.660156 L 147.296875 187.265625 C 147.296875 185.960938 148.351562 184.90625 149.652344 184.90625 C 150.953125 184.90625 152.007812 185.960938 152.007812 187.265625 L 152.007812 214.742188 C 152.007812 215.757812 151.359375 216.65625 150.398438 216.980469 C 150.152344 217.058594 149.902344 217.101562 149.652344 217.101562 C 148.925781 217.101562 148.222656 216.761719 147.769531 216.15625 L 131.445312 194.34375 Z M 122.707031 284.992188 L 121.558594 287.050781 C 116.878906 284.640625 112.277344 281.878906 107.921875 278.859375 C 106.851562 278.117188 106.585938 276.648438 107.324219 275.574219 C 108.066406 274.5 109.53125 274.234375 110.601562 274.976562 C 114.789062 277.882812 119.210938 280.535156 123.742188 282.871094 Z M 97.105469 171.6875 L 87.625 171.6875 C 86.328125 171.6875 85.273438 170.632812 85.273438 169.328125 L 85.273438 141.855469 C 85.273438 140.550781 86.328125 139.496094 87.625 139.496094 L 98.144531 139.496094 C 102.039062 139.496094 105.640625 141.207031 108.023438 144.1875 C 110.59375 147.402344 112.007812 151.515625 112.007812 155.761719 C 112.007812 157.691406 111.722656 159.589844 111.15625 161.40625 C 109.515625 166.6875 105.070312 170.550781 99.558594 171.484375 C 98.75 171.621094 97.921875 171.6875 97.105469 171.6875 Z M 98.722656 268.746094 C 98.261719 269.261719 97.621094 269.523438 96.976562 269.523438 C 96.414062 269.523438 95.851562 269.320312 95.398438 268.914062 C 91.460938 265.34375 87.710938 261.480469 84.265625 257.429688 C 83.421875 256.4375 83.539062 254.945312 84.53125 254.101562 C 85.523438 253.257812 87.007812 253.375 87.851562 254.367188 C 91.164062 258.261719 94.769531 261.980469 98.558594 265.414062 C 99.523438 266.285156 99.597656 267.78125 98.722656 268.746094 Z M 84.246094 95.550781 C 87.703125 91.507812 91.457031 87.65625 95.410156 84.09375 C 96.375 83.222656 97.863281 83.304688 98.734375 84.273438 C 99.601562 85.242188 99.523438 86.734375 98.558594 87.605469 C 94.757812 91.027344 91.144531 94.734375 87.820312 98.621094 C 87.355469 99.167969 86.695312 99.445312 86.03125 99.445312 C 85.488281 99.445312 84.945312 99.257812 84.5 98.875 C 83.511719 98.027344 83.398438 96.539062 84.246094 95.550781 Z M 77.960938 245.296875 C 77.566406 245.554688 77.121094 245.679688 76.679688 245.679688 C 75.910156 245.679688 75.15625 245.300781 74.703125 244.605469 C 71.808594 240.152344 69.167969 235.460938 66.859375 230.664062 C 66.296875 229.488281 66.789062 228.078125 67.957031 227.511719 C 69.128906 226.945312 70.539062 227.441406 71.101562 228.613281 C 73.324219 233.230469 75.863281 237.742188 78.652344 242.03125 C 79.359375 243.125 79.050781 244.585938 77.960938 245.296875 Z M 66.789062 122.289062 C 69.113281 117.480469 71.761719 112.792969 74.65625 108.359375 C 75.367188 107.269531 76.828125 106.960938 77.917969 107.675781 C 79.003906 108.386719 79.308594 109.851562 78.597656 110.941406 C 75.8125 115.210938 73.265625 119.71875 71.027344 124.347656 C 70.621094 125.191406 69.78125 125.679688 68.90625 125.679688 C 68.5625 125.679688 68.210938 125.605469 67.878906 125.441406 C 66.710938 124.875 66.222656 123.464844 66.789062 122.289062 Z M 63.824219 217.324219 C 63.578125 217.410156 63.328125 217.449219 63.078125 217.449219 C 62.09375 217.449219 61.175781 216.824219 60.84375 215.835938 C 59.15625 210.773438 57.78125 205.570312 56.753906 200.363281 C 56.5 199.085938 57.332031 197.84375 58.605469 197.589844 C 59.886719 197.335938 61.121094 198.167969 61.371094 199.449219 C 62.363281 204.457031 63.6875 209.46875 65.3125 214.339844 C 65.726562 215.574219 65.058594 216.914062 63.824219 217.324219 Z M 54.664062 184.488281 C 54.480469 181.738281 54.386719 178.96875 54.390625 176.246094 C 54.390625 173.664062 54.472656 171.050781 54.632812 168.476562 C 54.714844 167.179688 55.8125 166.183594 57.132812 166.269531 C 58.429688 166.351562 59.414062 167.472656 59.332031 168.773438 C 59.175781 171.25 59.097656 173.761719 59.097656 176.246094 C 59.097656 178.863281 59.1875 181.53125 59.363281 184.175781 C 59.449219 185.476562 58.46875 186.601562 57.167969 186.6875 C 57.117188 186.691406 57.0625 186.691406 57.007812 186.691406 C 55.78125 186.691406 54.746094 185.738281 54.664062 184.488281 Z M 56.671875 152.59375 C 57.691406 147.371094 59.0625 142.164062 60.75 137.113281 C 61.164062 135.875 62.5 135.207031 63.730469 135.625 C 64.964844 136.039062 65.628906 137.375 65.214844 138.613281 C 63.59375 143.46875 62.273438 148.480469 61.292969 153.5 C 61.074219 154.628906 60.089844 155.40625 58.984375 155.40625 C 58.835938 155.40625 58.683594 155.394531 58.53125 155.363281 C 57.253906 155.113281 56.421875 153.875 56.671875 152.59375 Z M 134.796875 142.875 C 137.8125 140.59375 141.453125 139.671875 144.570312 140.550781 C 148.554688 141.671875 151.292969 144.464844 152.28125 148.421875 C 153.363281 152.757812 151.921875 156.308594 147.148438 161.09375 L 136.644531 170.394531 C 136.140625 170.84375 135.484375 171.097656 134.800781 171.097656 C 134.125 171.097656 133.46875 170.847656 132.960938 170.398438 L 122.671875 161.308594 C 117.523438 156.152344 116.199219 152.925781 117.320312 148.421875 C 118.308594 144.46875 121.046875 141.671875 125.03125 140.550781 C 128.140625 139.675781 131.746094 140.574219 134.796875 142.875 Z M 107.957031 74.1875 C 112.320312 71.179688 116.933594 68.421875 121.671875 65.984375 C 122.824219 65.390625 124.246094 65.847656 124.839844 67.007812 C 125.433594 68.167969 124.976562 69.589844 123.820312 70.183594 C 119.261719 72.527344 114.824219 75.183594 110.625 78.078125 C 110.21875 78.355469 109.753906 78.492188 109.292969 78.492188 C 108.546875 78.492188 107.808594 78.136719 107.351562 77.46875 C 106.613281 76.394531 106.886719 74.925781 107.957031 74.1875 Z M 157.53125 141.855469 C 157.53125 140.839844 158.179688 139.9375 159.140625 139.617188 C 160.105469 139.296875 161.160156 139.625 161.769531 140.4375 L 178.09375 162.25 L 178.09375 141.855469 C 178.09375 140.550781 179.148438 139.496094 180.445312 139.496094 C 181.746094 139.496094 182.800781 140.550781 182.800781 141.855469 L 182.800781 169.328125 C 182.800781 170.34375 182.152344 171.246094 181.191406 171.566406 C 180.945312 171.648438 180.695312 171.6875 180.445312 171.6875 C 179.71875 171.6875 179.015625 171.351562 178.5625 170.746094 L 162.242188 148.933594 L 162.242188 169.328125 C 162.242188 170.632812 161.183594 171.6875 159.886719 171.6875 C 158.585938 171.6875 157.53125 170.632812 157.53125 169.328125 Z M 167.441406 52.65625 C 172.746094 52.183594 178.109375 52.054688 183.414062 52.265625 C 184.710938 52.320312 185.722656 53.417969 185.671875 54.722656 C 185.621094 56.023438 184.539062 57.046875 183.222656 56.984375 C 178.121094 56.78125 172.960938 56.902344 167.859375 57.359375 C 167.789062 57.367188 167.71875 57.371094 167.648438 57.371094 C 166.441406 57.371094 165.414062 56.445312 165.304688 55.21875 C 165.1875 53.921875 166.144531 52.777344 167.441406 52.65625 Z M 253.539062 80.578125 C 254.363281 79.570312 255.847656 79.421875 256.855469 80.246094 C 260.957031 83.609375 264.890625 87.28125 268.542969 91.164062 C 269.4375 92.109375 269.390625 93.605469 268.445312 94.496094 C 267.992188 94.929688 267.410156 95.140625 266.832031 95.140625 C 266.203125 95.140625 265.582031 94.894531 265.117188 94.402344 C 261.605469 90.667969 257.820312 87.132812 253.871094 83.898438 C 252.867188 83.074219 252.714844 81.585938 253.539062 80.578125 Z M 226.863281 54.46875 C 211.320312 48.273438 195.035156 45.132812 178.457031 45.132812 C 122.890625 45.132812 73.152344 80.492188 54.695312 133.113281 C 32.5 196.410156 61.3125 265.996094 121.714844 294.984375 C 134.382812 301.058594 147.84375 305.046875 161.726562 306.835938 C 162.175781 306.894531 162.617188 306.886719 163.0625 306.878906 C 162.863281 306.414062 162.710938 305.921875 162.65625 305.390625 C 159.765625 276.628906 175.730469 236.910156 216.941406 213.636719 L 211.722656 196.914062 L 206.480469 213.699219 C 206.171875 214.683594 205.261719 215.351562 204.234375 215.351562 C 204.214844 215.351562 204.195312 215.351562 204.175781 215.351562 C 203.125 215.324219 202.21875 214.605469 201.953125 213.585938 L 195.734375 189.605469 C 195.40625 188.34375 196.160156 187.058594 197.417969 186.726562 C 198.679688 186.40625 199.964844 187.15625 200.292969 188.417969 L 204.441406 204.421875 L 209.476562 188.308594 C 209.78125 187.324219 210.691406 186.652344 211.722656 186.652344 C 212.753906 186.652344 213.660156 187.324219 213.96875 188.308594 L 219 204.417969 L 223.148438 188.417969 C 223.476562 187.15625 224.761719 186.40625 226.019531 186.726562 C 227.28125 187.058594 228.035156 188.34375 227.707031 189.605469 L 222.199219 210.84375 C 223.367188 210.253906 224.539062 209.667969 225.742188 209.105469 C 241.773438 201.609375 261.230469 200.035156 274.734375 200.035156 C 281.46875 200.035156 288.539062 200.4375 295.207031 201.171875 C 295.710938 198.789062 296.148438 196.363281 296.507812 193.945312 C 296.699219 192.65625 297.894531 191.753906 299.183594 191.960938 C 300.46875 192.148438 301.355469 193.351562 301.164062 194.640625 C 300.8125 197.019531 300.378906 199.40625 299.890625 201.757812 C 302.070312 202.058594 304.191406 202.390625 306.207031 202.761719 C 306.296875 202.78125 306.378906 202.828125 306.46875 202.851562 C 306.855469 202.0625 307.175781 201.230469 307.339844 200.339844 C 318.699219 138.929688 284.851562 77.582031 226.863281 54.46875 " fill-opacity="1" fill-rule="nonzero"/></g><path fill="rgb(100%, 4.309082%, 51.759338%)" d="M 121.890625 149.566406 C 121.433594 151.410156 121.035156 153 125.894531 157.867188 L 134.800781 165.734375 L 143.925781 157.65625 C 148.21875 153.347656 148.199219 151.511719 147.714844 149.570312 C 147.136719 147.261719 145.652344 145.753906 143.296875 145.09375 C 141.269531 144.527344 138.609375 145.546875 136.511719 147.621094 C 135.589844 148.53125 134.054688 148.582031 133.136719 147.667969 C 131.390625 145.9375 129.304688 144.929688 127.511719 144.929688 C 127.09375 144.929688 126.6875 144.988281 126.304688 145.09375 C 123.949219 145.753906 122.464844 147.261719 121.890625 149.566406 " fill-opacity="1" fill-rule="nonzero"/><path fill="rgb(100%, 4.309082%, 51.759338%)" d="M 183.652344 190.441406 C 181.628906 189.875 178.960938 190.894531 176.863281 192.96875 C 175.941406 193.878906 174.40625 193.933594 173.492188 193.011719 C 173.464844 192.988281 173.390625 192.910156 173.367188 192.886719 C 171.742188 191.285156 169.65625 190.28125 167.863281 190.28125 C 167.445312 190.28125 167.039062 190.335938 166.65625 190.441406 C 164.304688 191.105469 162.820312 192.609375 162.246094 194.917969 C 161.785156 196.757812 161.386719 198.347656 166.25 203.21875 L 175.152344 211.082031 L 184.277344 203.007812 C 188.570312 198.695312 188.550781 196.859375 188.066406 194.917969 C 187.488281 192.609375 186.003906 191.105469 183.652344 190.441406 " fill-opacity="1" fill-rule="nonzero"/><path fill="rgb(100%, 4.309082%, 51.759338%)" d="M 227.734375 213.382812 C 182.066406 234.730469 164.417969 275.796875 167.34375 304.917969 C 167.375 305.246094 167.75 305.320312 167.890625 305.320312 C 168.023438 305.320312 168.136719 305.28125 168.246094 305.203125 L 302.660156 206.9375 C 294.097656 205.542969 284.085938 204.753906 274.734375 204.753906 C 261.710938 204.753906 242.984375 206.253906 227.734375 213.382812 " fill-opacity="1" fill-rule="nonzero"/></svg>