<svg version="1.1" id="Layer_1" xmlns="http://www.w3.org/2000/svg" xmlns:xlink="http://www.w3.org/1999/xlink" x="0px" y="0px"
	 width="100%" viewBox="0 0 225 225" enable-background="new 0 0 225 225" xml:space="preserve">
<path fill="#FCFCFC" opacity="1.000000" stroke="none" 
	d="
M1.000000,110.000000 
	C1.000000,73.333344 1.000000,37.166679 1.000000,1.000015 
	C75.999977,1.000010 150.999954,1.000010 225.999954,1.000005 
	C225.999969,75.999962 225.999969,150.999924 225.999985,225.999908 
	C151.000046,225.999939 76.000092,225.999939 1.000070,225.999969 
	C1.000000,187.500000 1.000000,149.000000 1.000000,110.000000 
M39.500473,120.306580 
	C53.594090,120.306580 67.687706,120.306580 81.971245,120.306580 
	C81.971245,125.805138 81.971245,130.630371 81.971245,135.455597 
	C81.971245,140.184326 81.971245,144.913055 81.971245,151.257263 
	C79.405838,148.351654 77.967888,146.557007 76.359177,144.931351 
	C71.013359,139.529190 64.571922,138.954987 60.034328,143.396027 
	C55.521217,147.813110 55.932247,154.298050 61.231339,159.717178 
	C69.267082,167.934937 77.262421,176.199814 85.538338,184.171204 
	C88.653389,187.171631 89.866135,190.208832 88.477753,194.515976 
	C87.365814,194.515976 86.216080,194.505203 85.066597,194.517761 
	C78.795494,194.586227 78.490700,194.875427 78.466629,200.917816 
	C78.450699,204.916031 78.652855,208.925705 78.413467,212.909592 
	C78.143974,217.394562 79.802567,219.136124 84.451981,219.079132 
	C100.942368,218.876938 117.437523,219.100784 133.929413,218.973877 
	C150.744904,218.844498 148.372284,221.521179 148.521042,204.547302 
	C148.606415,194.806030 148.536865,194.808990 139.072189,194.408905 
	C138.806305,194.397675 138.551895,194.114777 137.244720,193.328644 
	C138.289398,190.452042 138.817657,186.926590 140.668472,184.351837 
	C144.048752,179.649338 145.368759,174.832230 145.137100,169.056793 
	C144.743484,159.243500 145.031433,149.402969 145.027771,139.573883 
	C145.024033,129.491623 140.795639,125.599701 130.945038,126.600601 
	C129.605682,124.629601 128.266342,122.658600 126.884270,120.624710 
	C140.713043,120.624710 154.210663,120.624710 168.007553,120.624710 
	C165.186081,126.662804 164.596466,132.314362 169.443298,137.088669 
	C174.270370,141.843506 179.784393,141.361984 185.571426,138.643753 
	C186.677536,138.124207 188.590118,138.896271 189.972519,139.460068 
	C198.234283,142.829605 206.836838,138.596466 207.759888,130.139175 
	C208.110886,126.923141 206.758972,123.521248 206.150650,120.016594 
	C214.156784,117.027969 218.945618,111.219551 218.976379,102.156624 
	C219.050461,80.332977 219.056442,58.508713 218.977936,36.685101 
	C218.940369,26.246050 211.441757,18.843117 201.016647,18.817503 
	C181.691772,18.770021 162.366714,18.803493 143.041733,18.803431 
	C115.228111,18.803341 87.414490,18.803408 59.650574,18.803408 
	C56.896465,9.077039 53.815170,7.182699 44.349483,8.980842 
	C43.237251,9.192126 41.932961,8.572010 40.753395,8.218288 
	C35.466011,6.632739 29.995739,8.895351 28.250994,13.571408 
	C27.635912,15.219870 27.407692,17.012678 27.025707,18.642036 
	C15.643499,19.319174 8.198932,25.638754 8.085092,35.467621 
	C7.822706,58.121460 7.855385,80.781776 8.068997,103.436623 
	C8.159544,113.039642 15.796793,120.096725 25.506823,120.290352 
	C29.836575,120.376686 34.169456,120.306038 39.500473,120.306580 
M206.131516,218.751053 
	C214.671906,219.360138 220.740295,213.145691 218.655319,205.925827 
	C217.208237,200.914871 212.946503,197.748917 207.941498,197.966797 
	C203.227646,198.171982 199.030823,201.758469 198.088226,206.387100 
	C197.054611,211.462677 199.679871,215.772537 206.131516,218.751053 
M42.635639,170.685852 
	C38.020313,172.790756 35.763676,176.500259 36.278858,181.428146 
	C36.719215,185.640320 39.100262,188.725983 43.337414,190.179871 
	C47.596462,191.641251 51.228310,190.602066 54.233589,187.491531 
	C57.602627,184.004456 58.060566,179.861023 56.011024,175.557785 
	C53.819584,170.956635 49.980053,169.456482 42.635639,170.685852 
M170.166855,178.802490 
	C168.890518,184.675293 173.711731,183.392441 176.815399,184.125153 
	C176.435013,184.463745 176.054626,184.802338 175.674240,185.140930 
	C177.215973,187.042511 178.757690,188.944092 180.299438,190.845688 
	C181.907822,188.763184 183.516205,186.680695 184.889771,184.902237 
	C186.922409,183.466553 188.855392,182.101242 190.788391,180.735931 
	C188.773834,178.966690 186.759293,177.197433 184.612732,175.312256 
	C183.464264,173.727783 182.087265,171.828033 180.710281,169.928299 
	C178.931244,171.935730 177.152206,173.943161 175.373169,175.950592 
	C175.626617,176.097748 175.880066,176.244888 176.133514,176.392044 
	C174.311584,176.971558 172.489639,177.551056 170.166855,178.802490 
M22.003277,214.324661 
	C23.041739,213.548950 24.129147,212.829803 25.106791,211.983795 
	C26.451397,210.820221 27.712950,209.560669 29.010077,208.342224 
	C27.645857,207.224747 26.368258,205.966507 24.879986,205.050598 
	C24.162449,204.609024 23.048182,204.812088 22.113562,204.723251 
	C22.413256,204.403824 22.712952,204.084381 23.012646,203.764954 
	C21.679899,201.845245 20.347155,199.925537 19.014408,198.005829 
	C17.211494,200.001480 15.408583,201.997131 14.366560,203.150543 
	C11.733007,205.377441 9.878424,206.945663 8.023847,208.513885 
	C9.956959,210.072433 11.890071,211.630997 14.231966,213.519135 
	C15.286092,214.926239 16.793463,216.938385 18.300840,218.950516 
	C19.534353,217.687500 20.767868,216.424469 22.003277,214.324661 
z"/>
<path fill="#030303" opacity="1.000000" stroke="none" 
	d="
M39.000694,120.306610 
	C34.169456,120.306038 29.836575,120.376686 25.506823,120.290352 
	C15.796793,120.096725 8.159544,113.039642 8.068997,103.436623 
	C7.855385,80.781776 7.822706,58.121460 8.085092,35.467621 
	C8.198932,25.638754 15.643499,19.319174 27.025707,18.642036 
	C27.407692,17.012678 27.635912,15.219870 28.250994,13.571408 
	C29.995739,8.895351 35.466011,6.632739 40.753395,8.218288 
	C41.932961,8.572010 43.237251,9.192126 44.349483,8.980842 
	C53.815170,7.182699 56.896465,9.077039 59.650574,18.803408 
	C87.414490,18.803408 115.228111,18.803341 143.041733,18.803431 
	C162.366714,18.803493 181.691772,18.770021 201.016647,18.817503 
	C211.441757,18.843117 218.940369,26.246050 218.977936,36.685101 
	C219.056442,58.508713 219.050461,80.332977 218.976379,102.156624 
	C218.945618,111.219551 214.156784,117.027969 206.150650,120.016594 
	C206.758972,123.521248 208.110886,126.923141 207.759888,130.139175 
	C206.836838,138.596466 198.234283,142.829605 189.972519,139.460068 
	C188.590118,138.896271 186.677536,138.124207 185.571426,138.643753 
	C179.784393,141.361984 174.270370,141.843506 169.443298,137.088669 
	C164.596466,132.314362 165.186081,126.662804 168.007553,120.624710 
	C154.210663,120.624710 140.713043,120.624710 126.884270,120.624710 
	C128.266342,122.658600 129.605682,124.629601 130.949127,126.605408 
	C140.795639,125.599701 145.024033,129.491623 145.027771,139.573883 
	C145.031433,149.402969 144.743484,159.243500 145.137100,169.056793 
	C145.368759,174.832230 144.048752,179.649338 140.668472,184.351837 
	C138.817657,186.926590 138.289398,190.452042 137.244720,193.328644 
	C138.551895,194.114777 138.806305,194.397675 139.072189,194.408905 
	C148.536865,194.808990 148.606415,194.806030 148.521042,204.547302 
	C148.372284,221.521179 150.744904,218.844498 133.929413,218.973877 
	C117.437523,219.100784 100.942368,218.876938 84.451981,219.079132 
	C79.802567,219.136124 78.143974,217.394562 78.413467,212.909592 
	C78.652855,208.925705 78.450699,204.916031 78.466629,200.917816 
	C78.490700,194.875427 78.795494,194.586227 85.066597,194.517761 
	C86.216080,194.505203 87.365814,194.515976 88.477753,194.515976 
	C89.866135,190.208832 88.653389,187.171631 85.538338,184.171204 
	C77.262421,176.199814 69.267082,167.934937 61.231339,159.717178 
	C55.932247,154.298050 55.521217,147.813110 60.034328,143.396027 
	C64.571922,138.954987 71.013359,139.529190 76.359177,144.931351 
	C77.967888,146.557007 79.405838,148.351654 81.971245,151.257263 
	C81.971245,144.913055 81.971245,140.184326 81.971245,135.455597 
	C81.971245,130.630371 81.971245,125.805138 81.971245,120.306580 
	C67.687706,120.306580 53.594090,120.306580 39.000694,120.306610 
M110.002075,146.151001 
	C110.002098,140.156570 109.956749,134.161636 110.022781,128.167938 
	C110.052361,125.483185 109.894119,122.775375 106.473282,122.757996 
	C102.980682,122.740250 102.955124,125.512321 102.980064,128.161484 
	C103.038055,134.322052 102.972107,140.483688 103.009872,146.644562 
	C103.026245,149.313705 102.801529,152.022308 99.373695,151.952133 
	C95.889641,151.880814 95.933594,149.053391 95.990410,146.458725 
	C96.034142,144.461456 96.001053,142.462524 96.000938,140.464325 
	C96.000343,130.306824 96.158180,120.144447 95.846230,109.996513 
	C95.792625,108.252556 93.960686,105.355309 92.564445,105.099922 
	C89.151093,104.475578 88.826065,107.420433 88.900681,110.102272 
	C88.928459,111.100609 88.906281,112.100342 88.906281,113.099442 
	C88.906349,127.752876 88.978485,142.407150 88.808586,157.058624 
	C88.788902,158.756805 87.810043,161.352509 86.577362,161.870789 
	C85.360390,162.382492 82.897789,161.187820 81.611122,160.037582 
	C78.020653,156.827835 74.761215,153.248413 71.361084,149.824890 
	C69.608688,148.060425 67.827332,145.628204 65.140663,148.143372 
	C62.429764,150.681213 64.201263,152.867645 66.215889,154.903366 
	C73.242592,162.003647 80.246162,169.126938 87.241341,176.258316 
	C92.160469,181.273209 98.526787,185.557343 95.746361,194.301849 
	C107.884491,194.301849 119.314514,194.301849 130.722229,194.301849 
	C131.523651,185.766373 131.554901,185.785660 136.520355,177.737595 
	C137.272354,176.518738 138.009598,175.028824 138.022903,173.657196 
	C138.139252,161.669159 138.217209,149.676437 137.928894,137.694199 
	C137.892334,136.175262 135.678360,134.708740 134.473175,133.217926 
	C133.315750,134.776459 131.457901,136.210663 131.154327,137.920792 
	C130.609818,140.988037 131.367233,144.282562 130.853104,147.360580 
	C130.571686,149.045319 128.801498,150.481369 127.702667,152.029572 
	C126.469261,150.426071 124.321335,148.902771 124.172356,147.204147 
	C123.708549,141.916306 124.283752,136.538696 123.845634,131.246445 
	C123.697151,129.452911 121.730629,127.809883 120.594925,126.098076 
	C119.396179,127.758034 117.315063,129.341766 117.163857,131.092209 
	C116.706970,136.381241 117.282501,141.758728 116.838905,147.050034 
	C116.692749,148.793442 114.666870,150.379288 113.500519,152.037186 
	C112.334129,150.380096 111.167740,148.723007 110.002075,146.151001 
M106.748108,66.239655 
	C106.748108,68.213043 106.748108,70.186424 106.748108,72.159813 
	C102.252693,65.102364 98.818916,57.905876 94.926743,50.966499 
	C93.926308,49.182835 91.481506,48.209290 89.700241,46.863583 
	C88.817711,48.796436 87.214600,50.713448 87.171692,52.664761 
	C86.926376,63.822750 87.050514,74.988892 87.053062,86.152267 
	C87.053680,88.845634 86.765182,91.969955 90.617508,92.048386 
	C94.581299,92.129074 94.213852,88.963387 94.215805,86.284630 
	C94.220505,79.817413 94.217331,73.350197 94.217331,66.882988 
	C98.873093,74.348190 102.556297,81.956360 106.600716,89.367401 
	C107.351021,90.742279 109.563049,92.025383 111.088409,92.011673 
	C112.032379,92.003181 113.737564,89.479553 113.762131,88.061783 
	C113.975677,75.735786 114.011963,63.401566 113.721664,51.078724 
	C113.686684,49.593575 111.395950,48.161564 110.150726,46.704918 
	C109.018173,48.240387 107.066315,49.696720 106.908913,51.326370 
	C106.462471,55.948708 106.749588,60.641895 106.748108,66.239655 
M21.950806,89.857124 
	C22.727863,90.649132 23.361431,91.804871 24.304211,92.176804 
	C33.586521,95.838737 45.876072,89.632202 48.031483,79.857430 
	C48.945984,75.710167 48.747303,71.281006 48.764168,66.978828 
	C48.822659,52.060211 42.244316,45.881310 27.263184,46.258564 
	C23.189363,46.361153 21.671473,47.963295 21.723146,51.995575 
	C21.881037,64.316551 21.807308,76.640495 21.950806,89.857124 
M77.384407,49.061817 
	C71.887100,45.447613 65.940407,45.516262 60.286919,48.013584 
	C54.479855,50.578754 54.299122,56.185501 54.420521,61.691402 
	C54.534153,66.844894 54.443592,72.002861 54.445099,77.158859 
	C54.448631,89.215698 57.873417,92.534927 69.940147,92.178917 
	C77.196480,91.964828 81.022522,88.265503 81.118065,81.088501 
	C81.222107,73.272758 81.410797,65.440033 80.992737,57.645267 
	C80.846169,54.912624 79.009186,52.270645 77.384407,49.061817 
M195.411362,53.925369 
	C196.910034,53.928932 198.598221,54.374226 199.862656,53.831783 
	C201.725647,53.032562 203.286682,51.529449 204.976318,50.326145 
	C203.353516,49.076233 201.828247,46.939468 200.089020,46.748207 
	C195.482178,46.241589 190.782791,46.586662 186.120285,46.572754 
	C183.053894,46.563610 181.426422,48.104153 181.416626,51.131992 
	C181.377289,63.287819 181.387146,75.443871 181.407120,87.599785 
	C181.412018,90.582893 182.777863,92.241051 185.966995,92.198044 
	C190.795197,92.132935 195.651382,92.466728 200.439178,92.022316 
	C202.039825,91.873741 203.467407,89.860672 204.974106,88.699898 
	C203.485596,87.488770 202.112366,85.461456 200.485260,85.231674 
	C196.778687,84.708229 192.947586,85.066513 189.086761,85.066513 
	C189.086761,80.832352 189.086761,77.094536 189.086761,72.990303 
	C192.932648,72.990303 196.624908,73.386688 200.163589,72.821533 
	C201.908646,72.542831 203.370010,70.487793 204.959732,69.236519 
	C203.392914,68.151367 201.918716,66.343903 200.240326,66.128670 
	C196.536758,65.653725 192.730301,65.981056 189.188843,65.981056 
	C189.188843,61.590816 189.188843,57.846310 189.188843,53.925911 
	C191.166840,53.925911 192.816223,53.925911 195.411362,53.925369 
M152.952164,88.603729 
	C148.699341,75.885612 144.521591,63.141266 140.100143,50.482040 
	C139.537338,48.870632 137.701111,47.703976 136.454834,46.331268 
	C135.045883,47.756363 133.210907,48.960335 132.329193,50.659092 
	C131.049911,53.123821 130.467682,55.948765 129.573074,58.615021 
	C126.574593,67.551666 123.588402,76.492508 120.555008,85.417297 
	C119.669678,88.022102 118.535431,90.897018 122.166275,92.019936 
	C125.719612,93.118874 126.615250,90.194023 127.369759,87.531189 
	C127.549850,86.895599 127.893379,86.289505 127.976524,85.645912 
	C128.669113,80.285439 131.769699,79.106468 136.893814,79.211472 
	C141.346207,79.302719 143.664886,80.429977 144.253876,84.895386 
	C144.443222,86.331047 145.055328,87.814354 145.842255,89.039284 
	C146.661911,90.315147 147.979523,92.247185 148.983246,92.190468 
	C150.347275,92.113388 151.619995,90.420235 152.952164,88.603729 
M158.815536,80.458336 
	C158.836395,83.285995 158.544586,86.168015 159.022461,88.916214 
	C159.231842,90.120308 160.959152,91.815933 162.094849,91.895561 
	C163.281464,91.978767 164.958679,90.629250 165.721008,89.452354 
	C166.339127,88.498131 165.953583,86.871758 165.954819,85.543449 
	C165.964554,75.098610 165.960220,64.653748 165.960220,53.913734 
	C168.000504,53.913734 169.832596,54.387123 171.202820,53.793827 
	C172.913208,53.053261 174.243256,51.434292 175.737503,50.194569 
	C174.207153,48.998581 172.740311,46.881668 171.135117,46.770985 
	C165.174286,46.359955 159.154160,46.391350 153.188583,46.768028 
	C151.746063,46.859112 150.427292,48.910168 149.051620,50.059925 
	C150.491135,51.344505 151.746735,53.040897 153.425171,53.790451 
	C154.913635,54.455173 156.871887,54.067944 158.816269,54.153606 
	C158.816269,62.868229 158.816269,71.168732 158.815536,80.458336 
M176.829697,133.698441 
	C178.846970,133.133957 181.310486,133.110092 182.787445,131.891006 
	C185.745056,129.449783 187.864716,129.101349 190.884415,131.916428 
	C193.252319,134.123871 196.659622,135.019943 199.399612,132.229187 
	C202.307022,129.267899 201.179459,125.969521 198.863007,123.313858 
	C195.184723,119.096962 191.179138,115.165558 186.981964,110.767525 
	C182.653305,115.201988 178.729645,118.971489 175.103500,123.008263 
	C171.624100,126.881668 172.084473,130.273132 176.829697,133.698441 
M50.823715,15.513439 
	C50.200821,15.341686 49.356174,14.819818 48.989254,15.052214 
	C45.222652,17.437851 41.619762,18.057350 37.859776,14.924585 
	C37.419437,14.557701 35.348694,15.210095 35.013725,15.879977 
	C34.543041,16.821270 34.514870,18.612431 35.127590,19.356827 
	C37.629360,22.396250 40.447006,25.175676 43.376099,28.293333 
	C45.804943,25.757095 48.202904,23.674791 50.028416,21.174528 
	C50.985931,19.863092 50.940128,17.819105 50.823715,15.513439 
z"/>
<path fill="#070707" opacity="1.000000" stroke="none" 
	d="
M205.773163,218.583099 
	C199.679871,215.772537 197.054611,211.462677 198.088226,206.387100 
	C199.030823,201.758469 203.227646,198.171982 207.941498,197.966797 
	C212.946503,197.748917 217.208237,200.914871 218.655319,205.925827 
	C220.740295,213.145691 214.671906,219.360138 205.773163,218.583099 
M209.969635,211.638336 
	C210.446228,209.945984 211.383911,208.192902 211.172943,206.591095 
	C211.088303,205.948456 208.343262,205.066757 207.063919,205.369751 
	C206.149338,205.586365 204.798386,208.177261 205.146118,208.691330 
	C206.072708,210.061066 207.811890,210.881104 209.969635,211.638336 
z"/>
<path fill="#080808" opacity="1.000000" stroke="none" 
	d="
M42.991302,170.497681 
	C49.980053,169.456482 53.819584,170.956635 56.011024,175.557785 
	C58.060566,179.861023 57.602627,184.004456 54.233589,187.491531 
	C51.228310,190.602066 47.596462,191.641251 43.337414,190.179871 
	C39.100262,188.725983 36.719215,185.640320 36.278858,181.428146 
	C35.763676,176.500259 38.020313,172.790756 42.991302,170.497681 
M45.842213,183.832108 
	C47.304230,182.680557 48.975414,181.689758 50.074589,180.259399 
	C50.334778,179.920822 48.822292,177.346085 47.860191,177.158356 
	C46.593224,176.911133 43.970173,177.852707 43.871639,178.555374 
	C43.654049,180.107086 44.650986,181.829102 45.842213,183.832108 
z"/>
<path fill="#0B0B0B" opacity="1.000000" stroke="none" 
	d="
M170.417267,178.466522 
	C172.489639,177.551056 174.311584,176.971558 176.133514,176.392044 
	C175.880066,176.244888 175.626617,176.097748 175.373169,175.950592 
	C177.152206,173.943161 178.931244,171.935730 180.710281,169.928299 
	C182.087265,171.828033 183.464264,173.727783 184.612732,175.312256 
	C186.759293,177.197433 188.773834,178.966690 190.788391,180.735931 
	C188.855392,182.101242 186.922409,183.466553 184.889771,184.902237 
	C183.516205,186.680695 181.907822,188.763184 180.299438,190.845673 
	C178.757690,188.944092 177.215973,187.042511 175.674240,185.140930 
	C176.054626,184.802338 176.435013,184.463745 176.815399,184.125153 
	C173.711731,183.392441 168.890518,184.675293 170.417267,178.466522 
z"/>
<path fill="#020202" opacity="1.000000" stroke="none" 
	d="
M22.002329,214.743057 
	C20.767868,216.424469 19.534353,217.687500 18.300838,218.950516 
	C16.793463,216.938385 15.286092,214.926239 14.231966,213.519135 
	C11.890071,211.630997 9.956959,210.072433 8.023844,208.513885 
	C9.878424,206.945663 11.733007,205.377441 14.366560,203.150543 
	C15.408583,201.997131 17.211494,200.001480 19.014408,198.005829 
	C20.347155,199.925537 21.679899,201.845245 23.012646,203.764954 
	C22.712952,204.084381 22.413256,204.403824 22.113562,204.723251 
	C23.048182,204.812088 24.162449,204.609024 24.879986,205.050598 
	C26.368258,205.966507 27.645857,207.224747 29.010082,208.342224 
	C27.712950,209.560669 26.451397,210.820221 25.106791,211.983795 
	C24.129147,212.829803 23.041739,213.548950 22.002329,214.743057 
z"/>
<path fill="#FBFBFB" opacity="1.000000" stroke="none" 
	d="
M110.001709,146.608459 
	C111.167740,148.723007 112.334129,150.380096 113.500519,152.037186 
	C114.666870,150.379288 116.692749,148.793442 116.838905,147.050034 
	C117.282501,141.758728 116.706970,136.381241 117.163857,131.092209 
	C117.315063,129.341766 119.396179,127.758034 120.594917,126.098076 
	C121.730629,127.809883 123.697151,129.452911 123.845634,131.246445 
	C124.283752,136.538696 123.708549,141.916306 124.172356,147.204147 
	C124.321335,148.902771 126.469261,150.426071 127.702667,152.029572 
	C128.801498,150.481369 130.571686,149.045319 130.853104,147.360580 
	C131.367233,144.282562 130.609818,140.988037 131.154327,137.920792 
	C131.457901,136.210663 133.315750,134.776459 134.473175,133.217926 
	C135.678360,134.708740 137.892334,136.175262 137.928894,137.694199 
	C138.217209,149.676437 138.139252,161.669159 138.022903,173.657196 
	C138.009598,175.028824 137.272354,176.518738 136.520355,177.737595 
	C131.554901,185.785660 131.523651,185.766373 130.722229,194.301849 
	C119.314514,194.301849 107.884491,194.301849 95.746361,194.301849 
	C98.526787,185.557343 92.160469,181.273209 87.241341,176.258316 
	C80.246162,169.126938 73.242592,162.003647 66.215889,154.903366 
	C64.201263,152.867645 62.429764,150.681213 65.140663,148.143372 
	C67.827332,145.628204 69.608688,148.060425 71.361084,149.824890 
	C74.761215,153.248413 78.020653,156.827835 81.611122,160.037582 
	C82.897789,161.187820 85.360390,162.382492 86.577362,161.870789 
	C87.810043,161.352509 88.788902,158.756805 88.808586,157.058624 
	C88.978485,142.407150 88.906349,127.752876 88.906281,113.099442 
	C88.906281,112.100342 88.928459,111.100609 88.900681,110.102272 
	C88.826065,107.420433 89.151093,104.475578 92.564445,105.099922 
	C93.960686,105.355309 95.792625,108.252556 95.846230,109.996513 
	C96.158180,120.144447 96.000343,130.306824 96.000938,140.464325 
	C96.001053,142.462524 96.034142,144.461456 95.990410,146.458725 
	C95.933594,149.053391 95.889641,151.880814 99.373695,151.952133 
	C102.801529,152.022308 103.026245,149.313705 103.009872,146.644562 
	C102.972107,140.483688 103.038055,134.322052 102.980064,128.161484 
	C102.955124,125.512321 102.980682,122.740250 106.473282,122.757996 
	C109.894119,122.775375 110.052361,125.483185 110.022781,128.167938 
	C109.956749,134.161636 110.002098,140.156570 110.001709,146.608459 
z"/>
<path fill="#F7F7F7" opacity="1.000000" stroke="none" 
	d="
M106.747971,65.773422 
	C106.749588,60.641895 106.462471,55.948708 106.908913,51.326370 
	C107.066315,49.696720 109.018173,48.240387 110.150726,46.704918 
	C111.395950,48.161564 113.686684,49.593575 113.721664,51.078724 
	C114.011963,63.401566 113.975677,75.735786 113.762131,88.061783 
	C113.737564,89.479553 112.032379,92.003181 111.088409,92.011673 
	C109.563049,92.025383 107.351021,90.742279 106.600716,89.367401 
	C102.556297,81.956360 98.873093,74.348190 94.217331,66.882988 
	C94.217331,73.350197 94.220505,79.817413 94.215805,86.284630 
	C94.213852,88.963387 94.581299,92.129074 90.617508,92.048386 
	C86.765182,91.969955 87.053680,88.845634 87.053062,86.152267 
	C87.050514,74.988892 86.926376,63.822750 87.171692,52.664761 
	C87.214600,50.713448 88.817711,48.796436 89.700241,46.863579 
	C91.481506,48.209290 93.926308,49.182835 94.926743,50.966499 
	C98.818916,57.905876 102.252693,65.102364 106.748108,72.159813 
	C106.748108,70.186424 106.748108,68.213043 106.747971,65.773422 
z"/>
<path fill="#F4F4F4" opacity="1.000000" stroke="none" 
	d="
M21.887249,89.410202 
	C21.807308,76.640495 21.881037,64.316551 21.723146,51.995575 
	C21.671473,47.963295 23.189363,46.361153 27.263184,46.258564 
	C42.244316,45.881310 48.822659,52.060211 48.764168,66.978828 
	C48.747303,71.281006 48.945984,75.710167 48.031483,79.857430 
	C45.876072,89.632202 33.586521,95.838737 24.304211,92.176804 
	C23.361431,91.804871 22.727863,90.649132 21.887249,89.410202 
M28.912916,79.413429 
	C28.912916,81.210930 28.912916,83.008430 28.912916,84.760765 
	C37.734550,85.654602 41.343636,82.529572 41.500908,74.178673 
	C41.563503,70.855011 41.596043,67.526443 41.491505,64.204842 
	C41.243130,56.312870 37.388702,53.149570 28.913597,54.124500 
	C28.913597,62.196232 28.913597,70.316040 28.912916,79.413429 
z"/>
<path fill="#F3F3F3" opacity="1.000000" stroke="none" 
	d="
M77.664261,49.324539 
	C79.009186,52.270645 80.846169,54.912624 80.992737,57.645267 
	C81.410797,65.440033 81.222107,73.272758 81.118065,81.088501 
	C81.022522,88.265503 77.196480,91.964828 69.940147,92.178917 
	C57.873417,92.534927 54.448631,89.215698 54.445099,77.158859 
	C54.443592,72.002861 54.534153,66.844894 54.420521,61.691402 
	C54.299122,56.185501 54.479855,50.578754 60.286919,48.013584 
	C65.940407,45.516262 71.887100,45.447613 77.664261,49.324539 
M63.936489,84.861267 
	C65.091484,84.930069 66.246246,85.053787 67.401505,85.058578 
	C73.846832,85.085320 74.050194,84.876213 74.059952,78.291504 
	C74.069778,71.656555 73.967850,65.019783 74.094330,58.387226 
	C74.188385,53.454716 70.866516,53.951946 67.643272,53.893356 
	C64.392952,53.834278 61.687843,53.897522 61.823261,58.437847 
	C62.040756,65.729782 61.814827,73.034088 61.936726,80.330490 
	C61.959404,81.687759 62.737495,83.032425 63.936489,84.861267 
z"/>
<path fill="#F2F2F2" opacity="1.000000" stroke="none" 
	d="
M194.938477,53.925640 
	C192.816223,53.925911 191.166840,53.925911 189.188843,53.925911 
	C189.188843,57.846310 189.188843,61.590816 189.188843,65.981056 
	C192.730301,65.981056 196.536758,65.653725 200.240326,66.128670 
	C201.918716,66.343903 203.392914,68.151367 204.959732,69.236526 
	C203.370010,70.487793 201.908646,72.542831 200.163589,72.821533 
	C196.624908,73.386688 192.932648,72.990303 189.086761,72.990303 
	C189.086761,77.094536 189.086761,80.832352 189.086761,85.066513 
	C192.947586,85.066513 196.778687,84.708229 200.485260,85.231674 
	C202.112366,85.461456 203.485596,87.488770 204.974106,88.699890 
	C203.467407,89.860672 202.039825,91.873741 200.439178,92.022316 
	C195.651382,92.466728 190.795197,92.132935 185.966995,92.198044 
	C182.777863,92.241051 181.412018,90.582893 181.407120,87.599785 
	C181.387146,75.443871 181.377289,63.287819 181.416626,51.131992 
	C181.426422,48.104153 183.053894,46.563610 186.120285,46.572754 
	C190.782791,46.586662 195.482178,46.241589 200.089020,46.748207 
	C201.828247,46.939468 203.353516,49.076233 204.976318,50.326145 
	C203.286682,51.529449 201.725647,53.032562 199.862656,53.831783 
	C198.598221,54.374226 196.910034,53.928932 194.938477,53.925640 
z"/>
<path fill="#F6F6F6" opacity="1.000000" stroke="none" 
	d="
M152.942017,89.011948 
	C151.619995,90.420235 150.347275,92.113388 148.983246,92.190468 
	C147.979523,92.247185 146.661911,90.315147 145.842255,89.039284 
	C145.055328,87.814354 144.443222,86.331047 144.253876,84.895386 
	C143.664886,80.429977 141.346207,79.302719 136.893814,79.211472 
	C131.769699,79.106468 128.669113,80.285439 127.976524,85.645912 
	C127.893379,86.289505 127.549850,86.895599 127.369759,87.531189 
	C126.615250,90.194023 125.719612,93.118874 122.166275,92.019936 
	C118.535431,90.897018 119.669678,88.022102 120.555008,85.417297 
	C123.588402,76.492508 126.574593,67.551666 129.573074,58.615021 
	C130.467682,55.948765 131.049911,53.123821 132.329193,50.659092 
	C133.210907,48.960335 135.045883,47.756363 136.454834,46.331272 
	C137.701111,47.703976 139.537338,48.870632 140.100143,50.482040 
	C144.521591,63.141266 148.699341,75.885612 152.942017,89.011948 
M139.092194,69.520088 
	C138.278458,67.105392 137.464722,64.690689 136.318878,61.290470 
	C134.932922,65.321754 133.849197,68.473984 132.546112,72.264221 
	C135.208069,71.460976 137.987671,74.051895 139.092194,69.520088 
z"/>
<path fill="#F9F9F9" opacity="1.000000" stroke="none" 
	d="
M158.815903,79.963791 
	C158.816269,71.168732 158.816269,62.868229 158.816269,54.153606 
	C156.871887,54.067944 154.913635,54.455173 153.425171,53.790451 
	C151.746735,53.040897 150.491135,51.344505 149.051620,50.059929 
	C150.427292,48.910168 151.746063,46.859112 153.188583,46.768028 
	C159.154160,46.391350 165.174286,46.359955 171.135117,46.770985 
	C172.740311,46.881668 174.207153,48.998581 175.737503,50.194572 
	C174.243256,51.434292 172.913208,53.053261 171.202820,53.793827 
	C169.832596,54.387123 168.000504,53.913734 165.960220,53.913734 
	C165.960220,64.653748 165.964554,75.098610 165.954819,85.543449 
	C165.953583,86.871758 166.339127,88.498131 165.721008,89.452354 
	C164.958679,90.629250 163.281464,91.978767 162.094849,91.895561 
	C160.959152,91.815933 159.231842,90.120308 159.022461,88.916214 
	C158.544586,86.168015 158.836395,83.285995 158.815903,79.963791 
z"/>
<path fill="#F8F8F8" opacity="1.000000" stroke="none" 
	d="
M176.466248,133.553864 
	C172.084473,130.273132 171.624100,126.881668 175.103500,123.008263 
	C178.729645,118.971489 182.653305,115.201988 186.981964,110.767525 
	C191.179138,115.165558 195.184723,119.096962 198.863007,123.313858 
	C201.179459,125.969521 202.307022,129.267899 199.399612,132.229187 
	C196.659622,135.019943 193.252319,134.123871 190.884415,131.916428 
	C187.864716,129.101349 185.745056,129.449783 182.787445,131.891006 
	C181.310486,133.110092 178.846970,133.133957 176.466248,133.553864 
z"/>
<path fill="#F5F5F5" opacity="1.000000" stroke="none" 
	d="
M51.085564,15.809686 
	C50.940128,17.819105 50.985931,19.863092 50.028416,21.174528 
	C48.202904,23.674791 45.804943,25.757095 43.376099,28.293333 
	C40.447006,25.175676 37.629360,22.396250 35.127590,19.356827 
	C34.514870,18.612431 34.543041,16.821270 35.013725,15.879977 
	C35.348694,15.210095 37.419437,14.557701 37.859776,14.924585 
	C41.619762,18.057350 45.222652,17.437851 48.989254,15.052214 
	C49.356174,14.819818 50.200821,15.341686 51.085564,15.809686 
z"/>
<path fill="#F3F3F3" opacity="1.000000" stroke="none" 
	d="
M209.598831,211.779007 
	C207.811890,210.881104 206.072708,210.061066 205.146118,208.691330 
	C204.798386,208.177261 206.149338,205.586365 207.063919,205.369751 
	C208.343262,205.066757 211.088303,205.948456 211.172943,206.591095 
	C211.383911,208.192902 210.446228,209.945984 209.598831,211.779007 
z"/>
<path fill="#EDEDED" opacity="1.000000" stroke="none" 
	d="
M45.497322,183.656876 
	C44.650986,181.829102 43.654049,180.107086 43.871639,178.555374 
	C43.970173,177.852707 46.593224,176.911133 47.860191,177.158356 
	C48.822292,177.346085 50.334778,179.920822 50.074589,180.259399 
	C48.975414,181.689758 47.304230,182.680557 45.497322,183.656876 
z"/>
<path fill="#060606" opacity="1.000000" stroke="none" 
	d="
M28.913258,78.924637 
	C28.913597,70.316040 28.913597,62.196232 28.913597,54.124500 
	C37.388702,53.149570 41.243130,56.312870 41.491505,64.204842 
	C41.596043,67.526443 41.563503,70.855011 41.500908,74.178673 
	C41.343636,82.529572 37.734550,85.654602 28.912916,84.760765 
	C28.912916,83.008430 28.912916,81.210930 28.913258,78.924637 
z"/>
<path fill="#020202" opacity="1.000000" stroke="none" 
	d="
M63.551720,84.622086 
	C62.737495,83.032425 61.959404,81.687759 61.936726,80.330490 
	C61.814827,73.034088 62.040756,65.729782 61.823261,58.437847 
	C61.687843,53.897522 64.392952,53.834278 67.643272,53.893356 
	C70.866516,53.951946 74.188385,53.454716 74.094330,58.387226 
	C73.967850,65.019783 74.069778,71.656555 74.059952,78.291504 
	C74.050194,84.876213 73.846832,85.085320 67.401505,85.058578 
	C66.246246,85.053787 65.091484,84.930069 63.551720,84.622086 
z"/>
<path fill="#111111" opacity="1.000000" stroke="none" 
	d="
M139.193054,69.911491 
	C137.987671,74.051895 135.208069,71.460976 132.546112,72.264221 
	C133.849197,68.473984 134.932922,65.321754 136.318878,61.290470 
	C137.464722,64.690689 138.278458,67.105392 139.193054,69.911491 
z"/>
</svg>