<svg xmlns="http://www.w3.org/2000/svg" xmlns:xlink="http://www.w3.org/1999/xlink" width="150" zoomAndPan="magnify" viewBox="0 0 112.5 112.499997" height="150" preserveAspectRatio="xMidYMid meet" version="1.0"><defs><clipPath id="id1"><path d="M 23.933594 32.925781 L 88.433594 32.925781 L 88.433594 85.425781 L 23.933594 85.425781 Z M 23.933594 32.925781 " clip-rule="nonzero"/></clipPath></defs><g clip-path="url(#id1)"><path fill="rgb(100%, 0%, 69.018555%)" d="M 88.238281 39.636719 C 88.109375 38.574219 87.957031 37.449219 87.296875 36.582031 C 87.273438 36.015625 86.898438 35.445312 86.164062 35.445312 C 77.414062 35.367188 68.6875 34.550781 59.945312 34.164062 C 56.195312 33.996094 52.46875 33.851562 48.734375 33.570312 C 44.996094 33.285156 41.257812 32.984375 37.503906 32.960938 C 35.558594 32.933594 33.574219 33.039062 31.640625 33.308594 C 29.976562 33.542969 28.367188 33.957031 27.027344 35.003906 C 27.011719 34.992188 26.988281 34.992188 26.976562 34.980469 C 26.394531 34.734375 25.75 35.394531 26.265625 35.910156 C 26.394531 36.039062 26.535156 36.183594 26.664062 36.3125 C 25.828125 50.570312 23.996094 64.761719 23.933594 79.058594 C 23.933594 79.875 24.566406 80.277344 25.183594 80.265625 C 25.183594 80.265625 25.183594 80.265625 25.171875 80.277344 C 24.859375 80.546875 25.183594 81.144531 25.582031 80.988281 C 25.710938 80.9375 25.839844 80.886719 25.957031 80.820312 C 27.078125 81.726562 29.203125 81.828125 30.351562 81.933594 C 33.703125 82.230469 37.082031 82.140625 40.445312 82.0625 C 43.539062 81.996094 46.617188 81.816406 49.710938 81.804688 C 51.167969 81.804688 52.585938 81.945312 54.03125 82.101562 C 57.097656 82.425781 60.164062 82.761719 63.234375 83.097656 C 66.625 83.472656 70.011719 83.835938 73.402344 84.082031 C 75.15625 84.195312 76.910156 84.300781 78.664062 84.351562 C 80.285156 84.402344 81.960938 84.558594 83.585938 84.367188 C 83.984375 85.414062 85.75 85.269531 85.804688 83.953125 C 85.945312 80.496094 86.214844 77.105469 86.652344 73.679688 C 87.078125 70.339844 87.492188 67.015625 87.621094 63.636719 C 87.867188 57.15625 88.097656 50.671875 88.316406 44.191406 C 88.394531 42.675781 88.433594 41.152344 88.238281 39.636719 Z M 31.769531 35.160156 C 33.484375 35.054688 35.1875 35.019531 36.898438 35.054688 C 40.546875 35.121094 44.167969 35.378906 47.804688 35.675781 C 55.746094 36.324219 63.710938 36.699219 71.664062 37.191406 C 76.277344 37.476562 80.878906 37.734375 85.507812 37.785156 C 84.488281 38.253906 83.507812 39.132812 82.671875 39.753906 C 81.574219 40.554688 80.519531 41.394531 79.472656 42.261719 C 77.246094 44.113281 75.09375 46.09375 73.03125 48.136719 C 70.878906 50.273438 68.738281 52.421875 66.6875 54.644531 C 66.429688 53.261719 65.796875 51.96875 64.585938 51.203125 C 62.410156 49.832031 59.597656 51.0625 57.808594 52.523438 C 56.699219 53.429688 55.976562 54.605469 55.34375 55.847656 C 54.917969 54.167969 54.070312 52.664062 52.339844 51.953125 C 50.601562 51.242188 48.71875 51.890625 47.496094 53.222656 C 47.199219 53.429688 46.914062 53.699219 46.671875 54.011719 C 46.398438 54.359375 46.179688 54.734375 46 55.125 C 43.371094 52.238281 41.039062 49.09375 38.640625 46.027344 C 36.964844 43.894531 35.25 41.785156 33.355469 39.84375 C 31.640625 38.085938 29.785156 36.363281 27.582031 35.261719 C 28.972656 35.367188 30.363281 35.25 31.769531 35.160156 Z M 61.054688 53.84375 C 61.054688 53.84375 61.042969 53.84375 61.054688 53.84375 Z M 31.9375 41.460938 C 33.78125 43.453125 35.480469 45.589844 37.144531 47.734375 C 39.15625 50.324219 41.128906 52.976562 43.265625 55.488281 C 42.507812 56.289062 41.875 57.207031 41.21875 58.085938 C 40.355469 59.238281 39.503906 60.402344 38.679688 61.582031 C 37.054688 63.871094 35.535156 66.25 33.820312 68.503906 C 32.183594 70.664062 30.390625 72.695312 28.816406 74.90625 C 27.941406 76.136719 27.296875 77.597656 26.421875 78.851562 C 26.40625 64.917969 28.097656 51.023438 27.464844 37.101562 C 28.972656 38.535156 30.519531 39.933594 31.9375 41.460938 Z M 79.589844 81.855469 C 78.019531 81.789062 76.445312 81.6875 74.886719 81.558594 C 71.910156 81.324219 68.945312 81.054688 65.980469 80.742188 C 63.015625 80.433594 60.0625 80.082031 57.109375 79.757812 C 55.011719 79.527344 52.894531 79.214844 50.78125 79.175781 C 48.035156 79.125 45.292969 79.320312 42.558594 79.4375 C 39.179688 79.589844 35.804688 79.71875 32.425781 79.8125 C 30.957031 79.851562 29.5 79.824219 28.03125 79.785156 C 27.851562 79.785156 27.671875 79.773438 27.476562 79.757812 C 28.46875 78.851562 29.203125 77.703125 30.015625 76.523438 C 31.550781 74.300781 33.511719 72.332031 35.1875 70.199219 C 36.953125 67.960938 38.550781 65.589844 40.210938 63.277344 C 41.050781 62.109375 41.902344 60.945312 42.75 59.78125 C 43.394531 58.902344 44.117188 58.023438 44.710938 57.089844 C 44.941406 57.335938 45.175781 57.582031 45.40625 57.828125 C 45.382812 58.707031 45.496094 59.601562 45.714844 60.414062 C 46.308594 62.65625 47.765625 64.59375 49.441406 66.136719 C 50.445312 67.054688 51.542969 67.84375 52.691406 68.566406 C 53.257812 68.929688 53.902344 69.332031 54.558594 69.667969 C 54.816406 69.9375 55.085938 70.210938 55.332031 70.480469 C 55.886719 71.089844 56.777344 70.949219 57.34375 70.480469 C 61.558594 67 66.109375 63.445312 66.753906 57.59375 C 66.753906 57.542969 66.765625 57.492188 66.765625 57.441406 C 67.125 57.105469 67.472656 56.753906 67.824219 56.40625 C 68.929688 58.164062 69.898438 59.976562 70.800781 61.863281 C 71.945312 64.246094 73.402344 66.433594 74.925781 68.582031 C 76.574219 70.910156 78.058594 73.265625 79.359375 75.8125 C 80.015625 77.105469 80.710938 78.375 81.34375 79.667969 C 81.703125 80.394531 82 81.128906 82.296875 81.882812 C 81.421875 81.882812 80.503906 81.894531 79.589844 81.855469 Z M 86.730469 43.632812 C 86.523438 46.492188 86.304688 49.339844 86.152344 52.199219 C 85.789062 59.042969 85.492188 65.875 84.554688 72.667969 C 84.269531 74.765625 83.933594 76.875 83.726562 79.007812 C 83.03125 77.625 82.21875 76.277344 81.523438 74.984375 C 80.117188 72.371094 78.574219 69.925781 76.820312 67.53125 C 75.195312 65.320312 73.558594 63.160156 72.167969 60.792969 C 71.171875 59.097656 70.15625 56.988281 68.53125 55.769531 C 70.4375 53.867188 72.320312 51.941406 74.265625 50.066406 C 76.328125 48.085938 78.417969 46.117188 80.609375 44.28125 C 81.664062 43.402344 82.734375 42.546875 83.84375 41.734375 C 84.425781 41.304688 85.015625 40.890625 85.609375 40.492188 C 85.996094 40.230469 86.433594 39.984375 86.808594 39.675781 C 86.835938 40.980469 86.820312 42.289062 86.730469 43.632812 Z M 86.730469 43.632812 " fill-opacity="1" fill-rule="nonzero"/></g></svg>