<svg xmlns="http://www.w3.org/2000/svg" xmlns:xlink="http://www.w3.org/1999/xlink" width="200" zoomAndPan="magnify" viewBox="0 0 150 149.999998" height="200" preserveAspectRatio="xMidYMid meet" version="1.0"><defs><clipPath id="id1"><path d="M 0 23.121094 L 150 23.121094 L 150 118 L 0 118 Z M 0 23.121094 " clip-rule="nonzero"/></clipPath></defs><g clip-path="url(#id1)"><path fill="rgb(100%, 100%, 100%)" d="M 131.003906 44.8125 C 129.003906 46.964844 124.28125 47.3125 123.21875 50.960938 C 122.160156 54.609375 118.296875 71.324219 113.515625 79.210938 C 112.832031 88.246094 111.417969 96.554688 112.746094 106.496094 C 112.953125 108.027344 113.894531 109.195312 114.1875 110.820312 C 115.289062 111.933594 118.714844 111.675781 118.609375 113.703125 C 118.523438 115.324219 112.210938 115.453125 110.921875 114.375 C 108.449219 112.304688 109.285156 106.875 107.269531 104.574219 C 107.429688 107.707031 106.859375 110.847656 108.230469 113.125 C 108.945312 114.308594 111.929688 114.828125 111.882812 116.488281 C 111.808594 119.148438 104.34375 117.136719 103.8125 116.296875 C 102.972656 114.964844 103.046875 112.5625 102.273438 110.53125 C 101.398438 108.222656 100.90625 108.296875 101.027344 105.34375 C 101.148438 102.351562 100.0625 98.363281 99.585938 95.0625 C 98.945312 90.660156 98.390625 86.453125 97.183594 83.53125 C 83.589844 81.5625 73.625 75.960938 58.65625 75.367188 C 52.835938 84.792969 43.550781 90.75 35.113281 97.5625 C 34.53125 100.351562 35.515625 103.46875 35.691406 106.398438 C 36.871094 107.195312 39.585938 106.710938 39.535156 108.515625 C 39.492188 109.996094 34.292969 110.285156 32.90625 109.378906 C 30.183594 107.601562 31.515625 100.566406 29.542969 98.136719 C 23.601562 99.914062 22.738281 107.601562 20.605469 113.507812 C 21.601562 114.425781 24.546875 114.425781 23.777344 116.296875 C 22.9375 118.335938 15.898438 116.84375 15.609375 115.335938 C 15.117188 112.765625 16.921875 108.558594 17.4375 106.207031 C 17.992188 103.671875 18.160156 99.378906 19.359375 97.175781 C 19.714844 96.519531 21.054688 96.066406 21.566406 95.542969 C 23.960938 93.101562 28.1875 89.625 29.0625 86.03125 C 30.472656 80.230469 32.378906 73.875 31.945312 66.527344 C 30.261719 73.15625 27.1875 77.503906 22.046875 80.363281 C 15.828125 83.820312 7.359375 80.972656 0.046875 81.128906 C 3.753906 78.476562 11.507812 79.902344 16.476562 79.015625 C 30.53125 76.507812 25.199219 56.707031 37.613281 52.113281 C 45.976562 49.019531 54.4375 47.308594 66.246094 47.308594 C 69.957031 47.308594 85.546875 46.789062 90.554688 46.0625 C 95.558594 45.335938 101.28125 41.261719 106.984375 38.183594 C 112.683594 35.105469 118.988281 24.167969 128.3125 23.484375 C 133.097656 23.128906 136.597656 24.804688 138.882812 27.132812 C 142.410156 30.730469 142.773438 36.328125 147.71875 38.953125 C 148.726562 39.484375 149.570312 39.332031 149.738281 40.390625 C 149.984375 41.960938 148.339844 44.671875 147.527344 45.484375 C 143.507812 49.503906 135 47.507812 131.003906 44.8125 Z M 131.003906 44.8125 " fill-opacity="1" fill-rule="evenodd"/></g></svg>