<svg xmlns="http://www.w3.org/2000/svg" xmlns:xlink="http://www.w3.org/1999/xlink" width="200" zoomAndPan="magnify" viewBox="0 0 150 149.999998" height="200" preserveAspectRatio="xMidYMid meet" version="1.0"><defs><clipPath id="id1"><path d="M 0 0 L 150 0 L 150 116.25 L 0 116.25 Z M 0 0 " clip-rule="nonzero"/></clipPath></defs><g clip-path="url(#id1)"><path fill="rgb(0%, 0%, 0%)" d="M 70.144531 0.382812 C 72.046875 0.117188 73.976562 0 75.894531 0.128906 C 80.179688 0.421875 84.277344 1.886719 88.160156 3.640625 C 91.363281 5.097656 94.464844 6.761719 97.507812 8.519531 C 103.105469 11.761719 108.507812 15.335938 113.738281 19.132812 C 118.910156 22.890625 123.929688 26.851562 128.746094 31.054688 C 130.800781 32.871094 132.851562 34.710938 134.699219 36.742188 C 136.492188 38.710938 138.078125 40.910156 139.042969 43.410156 C 139.730469 45.175781 140.105469 47.054688 140.238281 48.941406 C 140.257812 50.183594 140.304688 51.429688 140.160156 52.664062 C 139.984375 54.640625 139.550781 56.589844 138.964844 58.484375 C 138.695312 59.296875 138.445312 60.125 138.058594 60.890625 C 139.457031 61.914062 140.742188 63.089844 142 64.28125 C 144.042969 66.261719 145.984375 68.355469 147.714844 70.613281 C 148.441406 71.582031 149.144531 72.582031 149.667969 73.675781 C 149.820312 74.007812 149.984375 74.367188 149.914062 74.746094 C 149.476562 74.691406 149.191406 74.328125 148.886719 74.046875 C 147.699219 72.863281 146.539062 71.652344 145.320312 70.503906 C 144.847656 70.109375 144.445312 69.636719 143.929688 69.300781 C 141.933594 67.566406 139.816406 65.976562 137.777344 64.292969 C 137.464844 64.058594 137.160156 63.816406 136.910156 63.515625 C 136.171875 65.140625 135.21875 66.65625 134.273438 68.167969 C 132.710938 70.570312 130.957031 72.847656 129.054688 74.988281 C 128.871094 75.261719 128.605469 75.457031 128.398438 75.707031 C 127.957031 76.335938 127.289062 76.757812 126.839844 77.382812 C 126.484375 77.890625 125.925781 78.195312 125.515625 78.644531 C 125.164062 78.96875 124.878906 79.359375 124.488281 79.640625 C 121.765625 82.117188 118.804688 84.367188 115.597656 86.195312 C 114.429688 86.890625 113.195312 87.464844 111.980469 88.070312 C 108.445312 89.679688 104.6875 90.886719 100.8125 91.289062 C 100.140625 91.390625 99.460938 91.355469 98.785156 91.417969 C 96.058594 91.457031 93.242188 91.003906 90.875 89.582031 C 90.148438 89.179688 89.511719 88.636719 88.875 88.113281 C 88.453125 87.75 88.128906 87.296875 87.769531 86.875 C 87.21875 86.203125 86.761719 85.457031 86.40625 84.664062 C 85.585938 83.164062 85.226562 81.476562 84.929688 79.8125 C 84.597656 77.816406 84.566406 75.785156 84.59375 73.761719 C 84.578125 73.082031 84.6875 72.414062 84.671875 71.734375 C 84.914062 67.867188 85.367188 64.015625 85.851562 60.171875 C 86.535156 54.445312 87.320312 48.726562 87.722656 42.96875 C 87.828125 42.378906 87.773438 41.78125 87.796875 41.1875 C 87.835938 39.425781 87.832031 37.65625 87.582031 35.910156 C 87.375 34.390625 86.949219 32.886719 86.199219 31.539062 C 85.4375 30.152344 84.382812 28.953125 83.320312 27.785156 C 82.113281 26.4375 80.855469 25.125 79.691406 23.734375 C 79.003906 22.902344 78.34375 22.042969 77.800781 21.105469 C 77.132812 19.949219 76.660156 18.667969 76.515625 17.335938 C 76.441406 16.363281 76.488281 15.332031 76.984375 14.46875 C 77.285156 13.921875 77.855469 13.523438 78.484375 13.503906 C 79.394531 13.464844 80.238281 13.890625 80.988281 14.359375 C 82.660156 15.453125 84.039062 16.941406 85.195312 18.558594 C 86.253906 20.050781 87.101562 21.683594 87.695312 23.414062 C 88.285156 25.078125 88.628906 26.820312 88.839844 28.570312 C 89.125 30.742188 89.164062 32.9375 89.203125 35.125 C 89.214844 36.097656 89.15625 37.066406 89.144531 38.035156 C 89.132812 39.113281 89.089844 40.191406 89.003906 41.265625 C 88.964844 42.941406 88.835938 44.609375 88.746094 46.28125 C 88.722656 47.089844 88.601562 47.894531 88.609375 48.703125 C 88.394531 51.804688 88.214844 54.90625 88.042969 58.011719 C 87.976562 58.652344 88.019531 59.296875 87.953125 59.9375 C 87.894531 60.503906 87.933594 61.074219 87.882812 61.640625 C 87.8125 62.351562 87.847656 63.070312 87.8125 63.78125 C 87.730469 64.953125 87.765625 66.125 87.753906 67.292969 C 87.765625 68.398438 87.726562 69.507812 87.820312 70.609375 C 87.8125 71.769531 87.945312 72.925781 88.003906 74.082031 C 88.167969 75.917969 88.398438 77.746094 88.816406 79.542969 C 89.15625 80.988281 89.613281 82.425781 90.371094 83.710938 C 91.003906 84.789062 91.914062 85.734375 93.046875 86.289062 C 94.441406 86.992188 96.03125 87.175781 97.574219 87.230469 C 99.460938 87.285156 101.351562 87.105469 103.207031 86.753906 C 106.164062 86.199219 109.042969 85.195312 111.667969 83.71875 C 114.429688 82.171875 116.902344 80.160156 119.199219 77.992188 C 121.09375 76.195312 122.890625 74.292969 124.566406 72.289062 C 126.625 69.804688 128.5 67.148438 129.960938 64.265625 C 131.375 61.484375 132.324219 58.449219 132.585938 55.332031 C 132.6875 54.152344 132.757812 52.964844 132.675781 51.78125 C 132.484375 48.195312 131.601562 44.636719 130.035156 41.402344 C 128.75 38.738281 127.003906 36.316406 125.011719 34.136719 C 122.917969 31.832031 120.5625 29.785156 118.160156 27.8125 C 115.757812 25.859375 113.28125 24.003906 110.796875 22.160156 C 108.375 20.382812 105.90625 18.667969 103.382812 17.027344 C 99.34375 14.394531 95.269531 11.800781 91.019531 9.507812 C 89.652344 8.785156 88.296875 8.03125 86.863281 7.445312 C 84.835938 6.511719 82.761719 5.65625 80.609375 5.058594 C 79.253906 4.695312 77.867188 4.457031 76.46875 4.339844 C 75.933594 4.253906 75.382812 4.308594 74.84375 4.230469 C 73.714844 4.1875 72.582031 4.214844 71.449219 4.234375 C 70.910156 4.226562 70.375 4.332031 69.835938 4.277344 C 68.917969 4.171875 67.992188 4.261719 67.082031 4.132812 C 66.457031 4.148438 65.84375 4.027344 65.21875 4.03125 C 64.628906 3.9375 64.03125 3.980469 63.441406 3.902344 C 62.28125 3.855469 61.125 3.90625 59.964844 3.878906 C 59.34375 3.851562 58.726562 3.960938 58.109375 3.992188 C 55.976562 4.226562 53.847656 4.609375 51.796875 5.246094 C 49.921875 5.820312 48.074219 6.519531 46.332031 7.433594 C 44.289062 8.414062 42.402344 9.699219 40.683594 11.175781 C 39.699219 11.988281 38.828125 12.925781 37.921875 13.828125 C 37.515625 14.289062 37.089844 14.730469 36.742188 15.238281 C 34.953125 17.347656 33.429688 19.65625 31.894531 21.953125 C 30.707031 23.625 29.566406 25.355469 28.058594 26.765625 C 26.382812 28.535156 24.292969 29.828125 22.503906 31.472656 C 22.125 31.742188 21.863281 32.132812 21.550781 32.46875 C 21.089844 32.996094 20.835938 33.660156 20.652344 34.328125 C 20.46875 35.4375 20.875 36.53125 21.335938 37.519531 C 21.476562 37.742188 21.640625 37.949219 21.738281 38.199219 C 22.328125 39.25 23.007812 40.253906 23.609375 41.304688 C 23.902344 41.789062 24.164062 42.292969 24.347656 42.828125 C 24.417969 43.007812 24.515625 43.171875 24.601562 43.34375 C 24.644531 43.710938 24.835938 44.046875 24.832031 44.421875 C 25.027344 45.449219 24.84375 46.515625 24.425781 47.464844 C 23.777344 48.960938 22.785156 50.265625 21.820312 51.566406 C 20.074219 53.859375 18.320312 56.152344 16.816406 58.609375 C 16.417969 59.1875 16.105469 59.820312 15.703125 60.394531 C 13.15625 64.542969 10.839844 68.828125 8.316406 72.988281 C 7.738281 73.957031 7.140625 74.917969 6.667969 75.945312 C 6.511719 76.300781 6.355469 76.683594 6.398438 77.078125 C 6.429688 77.328125 6.660156 77.496094 6.902344 77.515625 C 8.375 77.648438 9.824219 77.273438 11.277344 77.101562 C 12.132812 76.980469 12.996094 76.921875 13.863281 76.898438 C 15.679688 76.917969 17.542969 77.265625 19.113281 78.214844 C 19.871094 78.683594 20.578125 79.347656 20.828125 80.230469 C 21.074219 81.046875 20.859375 81.917969 20.539062 82.683594 C 19.742188 84.515625 18.425781 86.042969 17.148438 87.554688 C 16.953125 87.792969 16.722656 88 16.539062 88.25 C 16.285156 88.605469 15.9375 88.878906 15.644531 89.199219 C 15.351562 89.53125 14.957031 89.75 14.660156 90.078125 C 14 90.617188 13.316406 91.152344 12.542969 91.519531 C 11.550781 91.996094 10.34375 91.984375 9.355469 91.511719 C 9.164062 91.425781 8.96875 91.351562 8.769531 91.296875 C 9.09375 92.097656 9.679688 92.75 10.199219 93.425781 C 12.132812 95.6875 14.835938 97.167969 17.664062 98.003906 C 21.21875 99.058594 24.988281 99.121094 28.65625 98.769531 C 32.53125 98.378906 36.351562 97.554688 40.101562 96.511719 C 46.054688 94.828125 51.867188 92.5 57.082031 89.144531 C 59.640625 87.503906 62.03125 85.613281 64.230469 83.515625 C 66.441406 81.441406 68.460938 79.175781 70.511719 76.949219 C 70.875 76.574219 71.199219 76.15625 71.625 75.847656 C 71.496094 76.519531 71.179688 77.140625 70.945312 77.78125 C 70.292969 79.410156 69.640625 81.039062 69.078125 82.703125 C 68.628906 84.019531 68.34375 85.394531 68.214844 86.777344 C 68.136719 87.5 68.210938 88.238281 68.414062 88.9375 C 68.601562 89.539062 68.886719 90.109375 69.167969 90.675781 C 70.671875 93.601562 71.851562 96.683594 73.007812 99.761719 C 74.222656 103.039062 75.359375 106.351562 76.433594 109.675781 C 76.960938 111.351562 77.492188 113.023438 77.9375 114.722656 C 78.066406 115.222656 78.214844 115.726562 78.246094 116.246094 C 78.039062 116.027344 77.957031 115.726562 77.851562 115.453125 C 77.285156 113.90625 76.828125 112.320312 76.328125 110.75 C 75.265625 107.363281 74.148438 103.988281 72.78125 100.710938 C 71.671875 98.03125 70.3125 95.457031 68.757812 93.011719 C 67.476562 90.976562 66.0625 89.03125 64.679688 87.066406 C 64.472656 86.773438 64.300781 86.410156 63.941406 86.28125 C 63.316406 86.035156 62.644531 86.277344 62.074219 86.539062 C 60.898438 87.109375 59.871094 87.933594 58.84375 88.726562 C 57.464844 89.808594 56.125 90.9375 54.664062 91.90625 C 52.070312 93.507812 49.28125 94.765625 46.488281 95.980469 C 44.859375 96.609375 43.238281 97.253906 41.582031 97.8125 C 38.1875 98.960938 34.714844 99.90625 31.179688 100.515625 C 29.039062 100.867188 26.871094 101.097656 24.699219 101.066406 C 22.738281 101.085938 20.773438 100.882812 18.855469 100.453125 C 17.09375 100.089844 15.398438 99.460938 13.742188 98.769531 C 11.007812 97.539062 8.449219 95.921875 6.1875 93.960938 C 5.917969 93.65625 5.546875 93.46875 5.289062 93.15625 C 4.960938 92.785156 4.585938 92.457031 4.238281 92.105469 C 3.773438 91.519531 3.277344 90.957031 2.832031 90.355469 C 2.109375 89.441406 1.554688 88.410156 1.0625 87.355469 C 0.683594 86.476562 0.378906 85.554688 0.230469 84.605469 C 0.0117188 83.261719 0.210938 81.878906 0.628906 80.59375 C 1.347656 78.402344 2.503906 76.390625 3.671875 74.414062 C 5.453125 71.441406 7.394531 68.570312 9.390625 65.738281 C 10.972656 63.472656 12.679688 61.296875 14.210938 58.996094 C 15.230469 57.453125 16.121094 55.808594 16.699219 54.046875 C 17.664062 51.105469 17.660156 47.96875 17.609375 44.90625 C 17.628906 44.050781 17.523438 43.195312 17.535156 42.339844 C 17.539062 41.09375 17.382812 39.847656 17.511719 38.601562 C 17.539062 37.585938 17.671875 36.5625 17.988281 35.59375 C 18.300781 34.628906 18.832031 33.75 19.429688 32.9375 C 21.351562 30.351562 22.976562 27.558594 24.644531 24.808594 C 27.5 20.042969 30.332031 15.191406 34.148438 11.105469 C 36.421875 8.667969 39.070312 6.574219 41.980469 4.949219 C 43.976562 3.839844 46.101562 2.949219 48.324219 2.394531 C 48.679688 2.339844 49.039062 2.285156 49.390625 2.175781 C 52.714844 1.535156 56.117188 1.851562 59.480469 1.796875 C 63.082031 1.769531 66.59375 0.863281 70.144531 0.382812 Z M 70.144531 0.382812 " fill-opacity="1" fill-rule="nonzero"/></g><path fill="rgb(0%, 0%, 0%)" d="M 45.117188 35.335938 C 45.933594 35.238281 46.753906 35.34375 47.554688 35.496094 C 49.382812 35.835938 51.210938 36.183594 53.007812 36.667969 C 54.378906 37.050781 55.757812 37.472656 57.015625 38.15625 C 57.957031 38.679688 58.832031 39.371094 59.414062 40.289062 C 59.605469 40.609375 59.796875 40.957031 59.800781 41.339844 C 59.800781 41.476562 59.691406 41.597656 59.554688 41.609375 C 59.132812 41.660156 58.699219 41.585938 58.285156 41.703125 C 57.800781 41.828125 57.386719 42.121094 57.011719 42.441406 C 55.945312 43.421875 55.023438 44.5625 53.84375 45.421875 C 52.988281 46.019531 51.964844 46.441406 50.90625 46.40625 C 49.519531 46.410156 48.253906 45.660156 47.265625 44.746094 C 46.039062 43.628906 45.027344 42.304688 44.136719 40.914062 C 43.460938 39.835938 42.789062 38.703125 42.589844 37.429688 C 42.480469 36.902344 42.664062 36.308594 43.109375 35.984375 C 43.6875 35.554688 44.421875 35.425781 45.117188 35.335938 Z M 45.117188 35.335938 " fill-opacity="1" fill-rule="nonzero"/></svg>