<svg xmlns="http://www.w3.org/2000/svg" xmlns:xlink="http://www.w3.org/1999/xlink" width="150" zoomAndPan="magnify" viewBox="0 0 112.5 112.499997" height="150" preserveAspectRatio="xMidYMid meet" version="1.0"><defs><clipPath id="id1"><path d="M 34 60 L 60 60 L 60 74.164062 L 34 74.164062 Z M 34 60 " clip-rule="nonzero"/></clipPath><clipPath id="id2"><path d="M 59 61 L 79 61 L 79 74.164062 L 59 74.164062 Z M 59 61 " clip-rule="nonzero"/></clipPath><clipPath id="id3"><path d="M 90 38.164062 L 108.640625 38.164062 L 108.640625 74.164062 L 90 74.164062 Z M 90 38.164062 " clip-rule="nonzero"/></clipPath><clipPath id="id4"><path d="M 105 54 L 108.640625 54 L 108.640625 64 L 105 64 Z M 105 54 " clip-rule="nonzero"/></clipPath><clipPath id="id5"><path d="M 78 63 L 92 63 L 92 74.164062 L 78 74.164062 Z M 78 63 " clip-rule="nonzero"/></clipPath><clipPath id="id6"><path d="M 3.640625 58 L 35 58 L 35 74.164062 L 3.640625 74.164062 Z M 3.640625 58 " clip-rule="nonzero"/></clipPath></defs><g clip-path="url(#id1)"><path fill="rgb(0%, 0%, 0%)" d="M 55.09375 61.203125 C 55.09375 61.203125 55.226562 60.964844 55.324219 60.71875 C 55.421875 60.472656 55.839844 59.988281 55.988281 60.085938 C 56.136719 60.183594 55.882812 60.636719 55.890625 60.785156 C 55.898438 60.9375 55.832031 61.480469 55.890625 61.480469 C 55.953125 61.480469 56.332031 61.585938 56.585938 61.757812 C 56.839844 61.925781 57.050781 61.949219 57.117188 62.054688 C 57.183594 62.160156 57.207031 62.433594 57.207031 62.433594 C 57.207031 62.433594 57.4375 62.597656 57.648438 62.671875 C 57.855469 62.746094 58.890625 62.957031 59.113281 63.15625 C 59.164062 63.21875 59.148438 63.546875 58.84375 64 C 58.867188 64.164062 58.664062 64.453125 58.53125 64.492188 C 58.394531 64.527344 57.625 64.699219 57.453125 64.671875 C 57.28125 64.640625 56.472656 64.601562 56.226562 64.558594 C 55.773438 64.664062 55.4375 64.863281 55.128906 64.992188 C 54.824219 65.117188 54.160156 65.511719 53.746094 65.71875 C 53.820312 66.144531 53.785156 66.363281 53.761719 66.882812 C 53.738281 67.40625 53.648438 67.75 53.777344 68.105469 C 53.902344 68.464844 54.507812 68.667969 54.972656 69.097656 C 55.4375 69.53125 55.578125 69.84375 56.652344 70.53125 C 57.253906 70.894531 57.566406 71 57.65625 71.035156 C 57.746094 71.074219 58.027344 70.933594 58.117188 71.113281 C 58.289062 71.042969 58.394531 71.171875 58.550781 71.304688 C 58.710938 71.4375 58.984375 71.640625 58.703125 71.835938 C 58.753906 71.992188 58.640625 72.101562 58.550781 72.101562 C 58.523438 72.246094 58.402344 72.339844 58.222656 72.339844 C 58.042969 72.339844 57.828125 72.402344 57.78125 72.273438 C 57.582031 72.386719 57.429688 72.363281 57.265625 72.230469 C 57.101562 72.09375 57.101562 71.894531 57.003906 71.8125 C 56.90625 71.730469 56.5625 71.589844 56.355469 71.542969 C 56.257812 71.671875 56.132812 71.765625 56.003906 71.683594 C 55.875 71.605469 55.789062 71.207031 55.464844 71.007812 C 55.144531 70.804688 54.367188 70.375 53.964844 70.148438 C 53.558594 69.925781 53.007812 69.71875 52.738281 69.644531 C 52.46875 69.570312 52.214844 69.253906 52.214844 69.253906 C 51.894531 69.234375 51.847656 69.398438 51.609375 69.402344 C 51.871094 69.753906 52.035156 70.203125 52.257812 70.886719 C 52.484375 71.574219 52.761719 72.246094 53.289062 72.632812 C 53.433594 72.746094 53.636719 73.011719 53.835938 73.042969 C 54.039062 73.070312 54.171875 73.050781 54.277344 73.085938 C 54.382812 73.125 54.679688 73.355469 54.71875 73.429688 C 54.753906 73.503906 54.710938 73.726562 54.613281 73.726562 C 54.589844 73.878906 54.507812 74.046875 54.316406 74.0625 C 54.121094 74.078125 53.859375 74.117188 53.761719 74.046875 C 53.648438 74.167969 53.484375 74.128906 53.359375 74.109375 C 53.230469 74.085938 53.117188 74.125 53.105469 73.855469 C 52.976562 73.699219 53.007812 73.660156 52.960938 73.542969 C 52.917969 73.421875 52.511719 73.101562 52.371094 73.027344 C 52.246094 73.125 51.984375 73.160156 51.953125 72.929688 C 51.921875 72.699219 51.886719 72.335938 51.59375 71.976562 C 51.304688 71.617188 51.078125 71.246094 50.734375 70.761719 C 50.390625 70.277344 49.90625 69.890625 49.839844 69.664062 C 49.769531 69.441406 49.6875 69.285156 49.679688 69.046875 C 48.980469 69.144531 48.457031 68.988281 47.746094 68.832031 C 47.035156 68.675781 46.125 68.457031 45.691406 68.175781 C 45.257812 67.890625 44.507812 67.71875 43.84375 67.667969 C 43.417969 68.242188 42.960938 68.980469 42.597656 69.292969 C 42.230469 69.605469 41.566406 70.128906 41.085938 70.222656 C 40.609375 70.320312 39.292969 70.464844 38.964844 70.574219 C 38.636719 70.6875 38.375 70.984375 38.171875 71.253906 C 37.96875 71.519531 37.632812 72.148438 37.605469 72.625 C 37.589844 72.714844 37.671875 73.160156 37.671875 73.160156 C 37.671875 73.160156 37.820312 73.257812 37.738281 73.535156 C 37.6875 73.832031 37.6875 73.980469 37.558594 74.0625 C 37.433594 74.144531 37.328125 74.144531 37.261719 74.0625 C 37.109375 74.09375 36.730469 73.953125 36.625 73.765625 C 36.519531 73.578125 36.511719 73.429688 36.511719 73.429688 C 36.511719 73.429688 36.339844 73.304688 36.371094 73.160156 C 36.402344 73.019531 36.320312 72.902344 36.476562 72.75 C 36.550781 72.683594 36.566406 72.550781 36.699219 72.414062 C 36.730469 72.394531 36.789062 71.984375 36.960938 71.542969 C 37.132812 71.105469 37.410156 70.746094 37.589844 70.292969 C 37.769531 69.835938 37.8125 69.738281 37.859375 69.582031 C 37.902344 69.425781 38.171875 69.5 38.375 69.441406 C 38.574219 69.382812 39.160156 69.179688 39.242188 69.089844 C 39.0625 68.964844 38.621094 68.695312 38.558594 68.679688 C 38.5 68.667969 38.164062 68.636719 37.746094 68.882812 C 37.328125 69.128906 36.960938 69.5625 36.796875 69.84375 C 36.632812 70.128906 36.558594 70.238281 36.371094 70.367188 C 36.183594 70.492188 36.132812 70.785156 35.988281 70.886719 C 35.847656 70.992188 35.4375 71.105469 35.292969 71.089844 C 35.152344 71.074219 35.175781 70.859375 35.175781 70.859375 C 35.175781 70.859375 35.039062 70.804688 35.0625 70.550781 C 35.085938 70.300781 35.21875 70.082031 35.289062 70.074219 C 35.273438 69.882812 35.347656 69.792969 35.480469 69.710938 C 35.617188 69.628906 35.675781 69.671875 35.773438 69.671875 C 35.988281 69.382812 36.027344 69.261719 36.257812 68.996094 C 36.492188 68.726562 36.625 68.503906 37.058594 68.257812 C 37.183594 68.175781 37.582031 67.667969 37.828125 67.421875 C 37.949219 67.300781 38.066406 67.289062 38.269531 67.398438 C 38.472656 67.511719 39.261719 67.710938 39.433594 67.742188 C 39.605469 67.773438 39.785156 67.875 39.785156 67.875 C 39.785156 67.875 39.964844 67.175781 40.136719 66.519531 C 40.308594 65.863281 40.398438 65.617188 40.800781 65.230469 C 40.847656 65.175781 40.921875 64.855469 40.921875 64.855469 C 40.921875 64.855469 40.699219 64.761719 40.300781 64.828125 C 39.90625 64.894531 37.867188 64.910156 37.171875 64.6875 C 36.476562 64.460938 35.109375 63.820312 34.277344 63.058594 C 34.007812 62.820312 34.121094 62.621094 34.578125 62.902344 C 35.03125 63.1875 35.863281 63.6875 36.511719 63.925781 C 37.164062 64.164062 37.648438 64.246094 38.671875 64.289062 C 39.136719 64.320312 40.324219 64.089844 40.800781 64.082031 C 41.28125 64.074219 41.910156 64.097656 42.027344 64.074219 C 42.148438 64.050781 43.015625 63.769531 43.679688 63.613281 C 44.34375 63.457031 44.757812 63.574219 45.308594 63.605469 C 45.863281 63.632812 47.117188 63.484375 48.46875 63.582031 C 48.550781 63.582031 50.195312 63.15625 50.960938 63.039062 C 51.191406 62.984375 52.175781 62.644531 52.550781 62.441406 C 52.925781 62.242188 53.792969 62.136719 54.269531 61.785156 C 54.316406 61.75 54.390625 61.367188 54.433594 61.183594 C 54.480469 60.996094 54.890625 60.472656 55.09375 60.414062 C 55.1875 60.390625 55.160156 60.585938 54.988281 60.949219 C 54.972656 60.996094 55.085938 61.144531 55.09375 61.203125 " fill-opacity="1" fill-rule="nonzero"/></g><g clip-path="url(#id2)"><path fill="rgb(0%, 0%, 0%)" d="M 77.933594 63.035156 C 77.605469 63.03125 77.375 63.078125 77.226562 63.03125 C 77.074219 62.984375 76.902344 62.898438 76.902344 62.898438 C 76.902344 62.898438 76.8125 62.628906 76.691406 62.550781 C 76.570312 62.476562 76.058594 62.351562 75.878906 62.351562 C 75.703125 62.351562 75.425781 62.457031 75.425781 62.457031 C 75.425781 62.457031 75.234375 62.339844 75.207031 62.277344 C 75.265625 62.183594 75.363281 62.109375 75.417969 62.023438 C 75.472656 61.933594 75.453125 61.851562 75.261719 61.851562 C 75.066406 61.851562 74.667969 61.941406 74.6875 62.398438 C 74.53125 62.289062 74.441406 62.347656 74.351562 62.398438 C 74.257812 62.449219 74.113281 62.558594 74.074219 62.707031 C 74.03125 62.855469 74.1875 63.011719 74.082031 63.222656 C 73.980469 63.4375 73.765625 63.683594 73.53125 63.824219 C 73.296875 63.96875 72.964844 64.40625 72.582031 64.476562 C 72.496094 64.503906 72.0625 64.566406 71.335938 64.699219 C 70.609375 64.832031 68.503906 65.195312 67.980469 65.191406 C 67.453125 65.183594 66.390625 65.3125 65.246094 65.488281 C 65.136719 65.511719 64.617188 65.386719 63.875 65.433594 C 63.136719 65.480469 62.253906 65.464844 61.621094 65.148438 C 60.988281 64.832031 60.183594 64.015625 59.96875 63.6875 C 59.75 63.359375 59.5625 63.507812 59.8125 63.96875 C 60.054688 64.429688 60.960938 65.355469 61.53125 65.621094 C 62.105469 65.890625 63.21875 66.074219 63.847656 66.042969 C 64.117188 66.039062 64.238281 66.160156 64.238281 66.160156 C 64.238281 66.160156 64.234375 66.363281 64.152344 66.480469 C 64.070312 66.597656 63.699219 66.863281 63.691406 67.398438 C 63.675781 67.9375 63.609375 68.125 63.839844 68.847656 C 63.882812 68.996094 63.9375 69.914062 63.9375 69.914062 C 63.9375 69.914062 63.726562 70.027344 63.585938 70.15625 C 63.445312 70.28125 63.445312 70.28125 63.445312 70.28125 C 63.445312 70.28125 62.929688 70.453125 62.707031 70.457031 C 62.484375 70.464844 62.507812 70.65625 62.492188 70.890625 C 62.472656 71.125 62.515625 71.242188 62.445312 71.539062 C 62.394531 71.761719 62.339844 72.121094 62.335938 72.421875 C 62.242188 72.542969 62.164062 72.679688 62.191406 72.824219 C 62.230469 72.832031 62.273438 72.84375 62.3125 72.851562 C 62.328125 72.855469 62.347656 72.859375 62.363281 72.855469 C 62.386719 73.113281 62.390625 73.339844 62.375 73.363281 C 62.355469 73.390625 62.285156 73.589844 62.46875 73.808594 C 62.492188 73.917969 62.609375 73.953125 62.703125 73.953125 C 62.777344 74.074219 63.058594 74.109375 63.152344 74.082031 C 63.277344 74.15625 63.738281 74.039062 63.699219 73.914062 C 63.804688 73.90625 63.945312 73.800781 63.855469 73.636719 C 63.769531 73.472656 63.773438 73.320312 63.527344 73.222656 C 63.464844 73.207031 63.175781 73.011719 63.140625 72.660156 C 63.105469 72.3125 63.175781 71.773438 63.292969 71.621094 C 63.410156 71.46875 63.546875 71.304688 63.691406 71.277344 C 63.839844 71.246094 64.210938 71.261719 64.210938 71.261719 C 64.210938 71.261719 64.277344 71.460938 64.410156 71.664062 C 64.542969 71.871094 64.539062 72.121094 64.707031 72.394531 C 64.753906 72.46875 64.800781 72.535156 64.851562 72.601562 C 64.835938 72.742188 64.839844 72.882812 64.929688 72.988281 C 64.972656 72.976562 65.011719 72.964844 65.050781 72.953125 C 65.070312 72.949219 65.089844 72.941406 65.101562 72.925781 C 65.105469 72.925781 65.109375 72.917969 65.109375 72.914062 C 65.15625 72.96875 65.199219 73.023438 65.238281 73.082031 C 65.386719 73.300781 65.3125 73.449219 65.378906 73.542969 C 65.441406 73.636719 65.511719 73.792969 65.867188 73.71875 C 65.929688 73.824219 66.0625 73.816406 66.203125 73.816406 C 66.34375 73.816406 66.4375 73.859375 66.453125 73.800781 C 66.59375 73.789062 66.710938 73.71875 66.707031 73.605469 C 66.808594 73.605469 66.894531 73.484375 66.8125 73.34375 C 66.730469 73.203125 66.742188 73.058594 66.570312 72.988281 C 66.402344 72.917969 66.121094 72.769531 66.121094 72.769531 C 66.121094 72.769531 65.96875 72.589844 65.726562 72.367188 C 65.488281 72.144531 65.195312 71.695312 65.300781 71.269531 C 65.3125 71.222656 65.335938 71.164062 65.816406 71.074219 C 66.296875 70.988281 66.957031 70.882812 67.199219 70.527344 C 67.4375 70.167969 67.554688 69.691406 67.554688 69.160156 C 67.851562 69.195312 68.125 69.128906 68.496094 69.222656 C 68.863281 69.316406 70.089844 69.542969 71.085938 69.542969 C 71.105469 70.191406 71.296875 70.320312 71.46875 70.503906 C 71.636719 70.683594 71.929688 71.140625 72.078125 71.542969 C 72.222656 71.945312 72.441406 72.035156 72.488281 72.402344 C 72.535156 72.769531 72.386719 73.242188 72.828125 73.070312 C 73.027344 73.261719 73.148438 73.382812 73.179688 73.484375 C 73.207031 73.582031 73.25 73.742188 73.25 73.742188 C 73.25 73.742188 73.144531 73.945312 73.359375 74.050781 C 73.578125 74.15625 73.757812 74.148438 73.804688 74.085938 C 74.09375 74.15625 74.558594 74.167969 74.550781 73.886719 C 74.6875 73.863281 74.769531 73.664062 74.632812 73.542969 C 74.5 73.417969 74.46875 73.265625 74.257812 73.25 C 74.125 73.242188 73.960938 73.167969 73.820312 73.035156 C 73.679688 72.898438 73.410156 72.636719 73.21875 72.039062 C 73.023438 71.445312 73.085938 70.8125 72.824219 70.246094 C 72.820312 70.070312 72.871094 69.953125 72.871094 69.953125 C 72.871094 69.953125 73.085938 70.339844 73.164062 70.4375 C 73.242188 70.539062 73.664062 70.628906 74.007812 70.976562 C 74.421875 71.394531 74.742188 71.410156 74.761719 71.527344 C 74.777344 71.628906 74.683594 72.128906 74.730469 72.234375 C 74.78125 72.339844 75.015625 72.257812 75.066406 72.214844 C 75.179688 72.375 75.320312 72.410156 75.320312 72.410156 C 75.320312 72.410156 75.253906 72.515625 75.15625 72.5625 C 75.054688 72.609375 74.839844 72.753906 75.160156 73.09375 C 75.105469 73.335938 75.316406 73.464844 75.453125 73.570312 C 75.589844 73.675781 75.679688 73.746094 75.753906 73.679688 C 75.886719 73.808594 76.066406 73.777344 76.136719 73.53125 C 76.207031 73.28125 76.296875 73.148438 76.15625 72.96875 C 76.171875 72.902344 76.128906 72.847656 76.0625 72.664062 C 75.996094 72.484375 75.832031 72.128906 75.726562 71.664062 C 75.671875 71.4375 75.414062 71.1875 75.125 70.664062 C 74.886719 70.238281 74.714844 69.996094 74.523438 69.765625 C 74.511719 69.726562 74.5 69.355469 74.550781 69.136719 C 74.605469 68.914062 74.609375 68.347656 74.65625 67.953125 C 74.703125 67.5625 74.683594 67.296875 74.628906 67.144531 C 74.628906 67.144531 75.050781 66.328125 75.339844 66.195312 C 75.632812 66.0625 75.910156 65.6875 76.148438 65.460938 C 76.390625 65.238281 76.609375 65.144531 76.988281 65.085938 C 77.363281 65.023438 77.867188 64.800781 78.023438 64.710938 C 78.183594 64.621094 78.777344 64.351562 78.703125 64.066406 C 78.84375 64.027344 78.785156 63.957031 78.777344 63.804688 C 78.773438 63.65625 78.871094 63.488281 78.757812 63.160156 C 78.714844 63.054688 78.261719 63.035156 77.933594 63.035156 " fill-opacity="1" fill-rule="nonzero"/></g><g clip-path="url(#id3)"><path fill="rgb(0%, 0%, 0%)" d="M 108.144531 71.574219 C 108.167969 71.402344 107.914062 71.144531 107.914062 71.144531 C 107.914062 71.144531 108.117188 71.113281 108.085938 70.792969 C 108.054688 70.472656 107.964844 70.292969 107.867188 70.074219 C 107.765625 69.855469 107.785156 69.40625 107.246094 68.265625 C 106.703125 67.125 106.082031 63.9375 105.140625 62.460938 C 104.988281 62.21875 104.410156 61.621094 104.347656 61.460938 C 104.289062 61.300781 104.417969 59.5625 104.390625 58.203125 C 104.359375 56.84375 104.320312 56.320312 104.320312 56.320312 C 104.320312 56.320312 105.265625 55.003906 104.664062 52.875 C 104.921875 52.933594 104.789062 52.277344 104.578125 51.828125 C 104.367188 51.378906 103.976562 50.539062 103.847656 50.128906 C 104.691406 51.039062 105.261719 51.886719 105.300781 52.097656 C 105.339844 52.308594 105.421875 52.539062 105.5 52.566406 C 105.582031 52.597656 105.75 52.566406 105.75 52.566406 C 105.75 52.566406 105.761719 52.90625 105.722656 53.097656 C 105.679688 53.285156 105.660156 53.6875 105.769531 53.984375 C 105.882812 54.285156 105.921875 54.503906 105.941406 54.625 C 105.960938 54.746094 106.210938 54.855469 106.300781 54.734375 C 106.3125 54.894531 106.371094 54.914062 106.523438 55.035156 C 106.671875 55.15625 106.832031 55.316406 106.964844 55.246094 C 107.09375 55.175781 107.171875 54.976562 107.171875 54.976562 C 107.171875 54.976562 107.285156 54.984375 107.445312 54.597656 C 107.574219 54.515625 107.683594 54.226562 107.683594 54.175781 C 107.816406 54.136719 107.875 53.785156 107.746094 53.566406 C 107.613281 53.347656 107.222656 52.816406 107.082031 52.617188 C 106.945312 52.417969 106.933594 52.207031 106.753906 51.996094 C 106.851562 51.949219 106.863281 51.90625 106.792969 51.769531 C 106.722656 51.628906 105.671875 49.578125 105.269531 48.949219 C 104.871094 48.320312 104.519531 47.53125 104.199219 47.25 C 103.878906 46.972656 102.625 45.582031 101.933594 45.011719 C 101.242188 44.441406 101.023438 43.933594 100.390625 43.402344 C 100.070312 42.683594 98.636719 41.734375 97.164062 41.59375 C 97.027344 41.445312 96.65625 41.207031 96.535156 41.253906 C 96.414062 41.304688 96.15625 41.453125 96.0625 41.597656 C 96.0625 41.597656 95.851562 41.539062 95.777344 41.367188 C 95.921875 41.378906 96.070312 40.957031 95.527344 40.660156 C 95.371094 40.578125 95.015625 40.0625 94.914062 39.734375 C 94.734375 39.167969 93.71875 38.164062 92.847656 38.207031 C 91.980469 38.246094 91.460938 38.296875 91.050781 38.917969 C 90.640625 39.542969 89.910156 40.167969 90.09375 40.792969 C 89.933594 41.464844 90.007812 42.355469 90.703125 41.722656 C 90.980469 42.140625 91.101562 42.171875 91.183594 42.363281 C 91.265625 42.558594 91.417969 42.640625 91.519531 42.660156 C 91.621094 42.679688 91.652344 42.742188 91.675781 42.8125 C 91.695312 42.882812 91.839844 43.242188 91.867188 43.351562 C 91.898438 43.464844 91.960938 43.640625 92.082031 43.648438 C 92.207031 43.660156 92.289062 43.546875 92.378906 43.507812 C 92.449219 43.484375 92.53125 43.640625 92.554688 43.699219 C 92.574219 43.761719 92.695312 43.800781 92.789062 43.75 C 92.765625 43.851562 92.847656 43.914062 92.984375 43.882812 C 93.117188 43.851562 93.207031 43.933594 93.257812 44.085938 C 93.308594 44.238281 93.554688 44.300781 93.726562 44.1875 C 93.902344 44.078125 94.273438 43.707031 94.332031 43.726562 C 94.394531 43.746094 94.402344 43.890625 94.59375 43.949219 C 94.683594 43.976562 94.863281 44.164062 94.863281 44.164062 C 94.800781 44.324219 94.761719 44.652344 94.773438 44.722656 C 94.78125 44.792969 95.011719 45.242188 95.183594 45.382812 C 95.164062 45.722656 95.324219 46.402344 95.453125 46.542969 C 95.402344 47.070312 95.222656 47.8125 95.132812 48.648438 C 95.042969 49.488281 95.0625 50.1875 94.980469 50.367188 C 94.902344 50.546875 94.179688 52.476562 93.960938 52.996094 C 93.738281 53.515625 93.371094 54.277344 93.238281 54.503906 C 93.160156 54.644531 93.339844 54.835938 93.339844 54.835938 C 93.339844 54.835938 93.136719 55.023438 93.046875 55.023438 C 92.957031 55.023438 92.496094 55.164062 92.277344 55.363281 C 92.058594 55.566406 91.957031 55.734375 91.894531 55.816406 C 91.835938 55.894531 91.574219 56.105469 91.484375 56.253906 C 91.394531 56.40625 91.296875 56.523438 91.34375 56.734375 C 91.183594 56.792969 91.085938 56.855469 91.09375 56.902344 C 91.105469 56.953125 91.15625 57.035156 91.15625 57.035156 C 91.15625 57.035156 91.035156 56.984375 90.925781 56.964844 C 90.816406 56.945312 90.632812 56.953125 90.59375 57.054688 C 90.515625 57.074219 90.515625 57.164062 90.625 57.203125 C 90.734375 57.242188 91.003906 57.355469 91.105469 57.394531 C 91.203125 57.433594 91.695312 57.433594 91.824219 57.382812 C 91.957031 57.332031 92.578125 56.984375 92.667969 56.921875 C 92.757812 56.863281 93.648438 55.824219 93.78125 55.734375 C 93.910156 55.644531 94.121094 55.296875 94.121094 55.324219 C 94.121094 55.355469 94.300781 55.484375 94.378906 55.464844 C 94.460938 55.445312 94.691406 54.933594 94.972656 54.546875 C 95.253906 54.15625 96.183594 52.289062 96.34375 52.046875 C 96.503906 51.808594 96.824219 51.40625 96.925781 50.976562 C 97.027344 50.546875 97.285156 49.929688 97.40625 49.269531 C 97.871094 50.476562 98.496094 51.101562 98.496094 51.101562 C 98.6875 51.859375 98.597656 52.496094 98.578125 53.328125 C 98.578125 53.457031 99.054688 53.578125 99.054688 53.578125 C 99.117188 53.535156 98.386719 55.035156 97.828125 56.414062 C 97.300781 57.710938 96.429688 60.132812 96.289062 60.492188 C 96.148438 60.851562 96.046875 61.441406 96.128906 62.300781 C 96.207031 63.160156 96.488281 63.867188 96.539062 64.320312 C 96.589844 64.769531 96.566406 69.085938 96.566406 69.65625 C 96.566406 70.226562 96.429688 71.445312 96.417969 71.605469 C 96.40625 71.765625 96.597656 71.953125 96.597656 71.953125 C 96.597656 71.953125 96.449219 72.144531 96.269531 72.285156 C 96.085938 72.425781 95.648438 72.773438 95.109375 72.84375 C 94.566406 72.914062 93.816406 72.921875 93.84375 73.59375 C 93.734375 73.613281 93.714844 73.953125 93.855469 73.992188 C 93.996094 74.03125 96.269531 74.132812 96.660156 74.132812 C 96.898438 74.121094 97.460938 73.863281 97.800781 73.851562 C 98.011719 73.980469 98.222656 74.050781 98.3125 74.0625 C 98.402344 74.070312 99.71875 74 99.800781 73.953125 C 99.882812 73.902344 99.929688 73.363281 99.800781 73.363281 C 99.902344 73.242188 99.921875 72.984375 99.871094 72.875 C 100.050781 72.792969 100.230469 72.792969 100.222656 72.414062 C 100.210938 72.035156 100.28125 70.625 100.25 69.597656 C 100.222656 68.566406 100.273438 65.917969 99.972656 64.269531 C 99.882812 63.796875 99.570312 63.289062 99.652344 62.46875 C 99.691406 61.960938 100.703125 59.992188 100.703125 59.992188 C 100.703125 59.992188 100.703125 60.660156 100.761719 61.210938 C 100.824219 61.761719 101.101562 62.160156 101.445312 62.640625 C 101.785156 63.121094 102.273438 64.296875 102.847656 66.378906 C 103.066406 67.304688 103.789062 68.914062 103.859375 69.574219 C 103.929688 70.234375 104.058594 71.742188 104.1875 71.8125 C 104.316406 71.882812 104.691406 71.851562 104.691406 71.851562 C 104.691406 71.851562 104.660156 72.144531 104.558594 72.273438 C 104.460938 72.402344 104.347656 72.5625 104.347656 72.5625 C 104.347656 72.5625 103.878906 72.601562 103.457031 72.703125 C 103.035156 72.800781 102.503906 72.882812 102.695312 73.460938 C 102.617188 73.5 102.617188 73.792969 102.734375 73.839844 C 102.855469 73.890625 104.597656 74.019531 104.839844 73.953125 C 105.082031 73.882812 106.070312 73.441406 106.320312 73.273438 C 106.574219 73.101562 107.074219 72.78125 107.074219 72.78125 C 107.074219 72.78125 107.195312 72.863281 107.246094 72.851562 C 107.292969 72.84375 108.394531 72.292969 108.445312 72.210938 C 108.496094 72.132812 108.246094 71.582031 108.144531 71.574219 Z M 106.511719 54.277344 C 106.402344 54.265625 106.34375 54.386719 106.34375 54.386719 L 106.332031 54.1875 C 106.332031 54.1875 106.472656 54.125 106.511719 54.277344 Z M 91.835938 56.792969 C 91.757812 56.792969 91.644531 56.855469 91.644531 56.855469 C 91.644531 56.855469 91.625 56.773438 91.476562 56.753906 C 91.667969 56.695312 91.785156 56.5625 91.785156 56.5625 L 91.988281 56.652344 C 91.988281 56.652344 91.886719 56.703125 91.835938 56.792969 Z M 91.996094 56.316406 L 92.175781 56.183594 L 92.1875 56.363281 Z M 91.996094 56.316406 " fill-opacity="1" fill-rule="nonzero"/></g><path fill="rgb(0%, 0%, 0%)" d="M 90.648438 56.726562 C 90.613281 56.71875 90.527344 56.703125 90.519531 56.652344 C 90.511719 56.582031 90.574219 56.527344 90.621094 56.472656 C 90.667969 56.417969 90.742188 56.371094 90.804688 56.410156 C 90.804688 56.351562 90.785156 56.273438 90.808594 56.222656 C 90.832031 56.171875 90.882812 56.1875 90.9375 56.179688 C 90.992188 56.171875 91.070312 56.160156 91.085938 56.21875 C 91.21875 56.203125 91.160156 56.101562 91.351562 56.15625 C 91.441406 56.183594 91.519531 56.273438 91.515625 56.371094 C 91.515625 56.421875 91.496094 56.46875 91.480469 56.519531 C 91.441406 56.644531 91.4375 56.78125 91.46875 56.90625 C 91.476562 56.933594 91.480469 56.964844 91.460938 56.984375 C 91.453125 56.996094 91.4375 56.996094 91.425781 57 C 91.253906 57.03125 91.082031 57.054688 90.90625 57.046875 C 90.832031 57.042969 90.675781 57.003906 90.636719 56.941406 C 90.589844 56.871094 90.648438 56.726562 90.648438 56.726562 " fill-opacity="1" fill-rule="nonzero"/><g clip-path="url(#id4)"><path fill="rgb(0%, 0%, 0%)" d="M 107.660156 58.5625 C 107.65625 58.433594 107.65625 58.304688 107.652344 58.179688 C 108.191406 57.898438 108.5625 57.097656 108.519531 56.171875 C 108.472656 55.078125 107.875 54.210938 107.167969 54.171875 C 107.105469 54.148438 107.035156 54.132812 106.964844 54.128906 C 106.386719 54.085938 105.855469 54.730469 105.679688 55.621094 C 105.578125 55.945312 105.5 56.34375 105.46875 56.832031 C 105.390625 57.996094 105.507812 59.5625 105.511719 59.578125 C 105.511719 59.601562 105.527344 59.621094 105.546875 59.636719 C 105.535156 59.644531 105.527344 59.660156 105.527344 59.675781 C 105.527344 59.695312 105.542969 59.710938 105.566406 59.722656 C 105.546875 59.734375 105.535156 59.75 105.539062 59.769531 C 105.539062 59.789062 105.554688 59.804688 105.574219 59.8125 C 105.5625 59.824219 105.550781 59.839844 105.554688 59.855469 C 105.554688 59.875 105.570312 59.894531 105.589844 59.902344 C 105.578125 59.914062 105.566406 59.929688 105.566406 59.945312 C 105.570312 59.972656 105.59375 59.992188 105.628906 59.996094 C 105.621094 60.011719 105.617188 60.035156 105.621094 60.058594 C 105.628906 60.089844 105.640625 60.109375 105.652344 60.125 C 105.625 60.132812 105.621094 60.152344 105.625 60.171875 C 105.625 60.179688 105.628906 60.183594 105.632812 60.191406 C 105.601562 60.253906 105.605469 60.371094 105.621094 60.472656 C 105.628906 60.503906 105.675781 60.769531 105.785156 60.765625 L 105.792969 60.765625 C 105.878906 60.75 105.882812 60.578125 105.859375 60.433594 C 105.855469 60.410156 105.820312 60.226562 105.75 60.164062 C 105.75 60.160156 105.75 60.152344 105.75 60.148438 C 105.746094 60.128906 105.734375 60.117188 105.699219 60.117188 C 105.707031 60.101562 105.710938 60.074219 105.707031 60.046875 C 105.703125 60.023438 105.695312 60 105.683594 59.988281 C 105.703125 59.976562 105.71875 59.957031 105.71875 59.9375 C 105.71875 59.917969 105.703125 59.902344 105.679688 59.890625 C 105.695312 59.882812 105.703125 59.867188 105.703125 59.851562 C 105.703125 59.828125 105.6875 59.8125 105.664062 59.804688 C 105.679688 59.792969 105.6875 59.777344 105.6875 59.761719 C 105.6875 59.742188 105.671875 59.722656 105.648438 59.714844 C 105.667969 59.703125 105.679688 59.6875 105.675781 59.667969 C 105.675781 59.648438 105.660156 59.632812 105.640625 59.625 C 105.65625 59.609375 105.664062 59.589844 105.660156 59.566406 C 105.660156 59.550781 105.539062 57.996094 105.617188 56.84375 C 105.625 56.761719 105.632812 56.683594 105.640625 56.609375 C 105.730469 57.398438 106.121094 58.003906 106.632812 58.085938 C 106.824219 58.222656 107.039062 58.296875 107.261719 58.289062 C 107.34375 58.285156 107.425781 58.269531 107.503906 58.242188 C 107.503906 58.347656 107.507812 58.457031 107.507812 58.566406 C 107.507812 58.632812 107.507812 58.683594 107.511719 58.714844 C 107.519531 59.039062 107.53125 59.335938 107.550781 59.605469 C 107.546875 59.613281 107.542969 59.625 107.542969 59.632812 L 107.535156 59.777344 C 107.425781 61.726562 107.386719 62.832031 107.628906 63.097656 C 107.671875 63.144531 107.722656 63.167969 107.78125 63.167969 C 107.785156 63.167969 107.792969 63.167969 107.796875 63.167969 C 107.835938 63.167969 107.882812 63.152344 107.929688 63.101562 C 108.207031 62.765625 107.902344 60.980469 107.832031 60.65625 C 107.742188 60.238281 107.679688 59.566406 107.660156 58.710938 C 107.660156 58.679688 107.660156 58.628906 107.660156 58.5625 Z M 105.773438 60.65625 C 105.753906 60.640625 105.71875 60.597656 105.695312 60.460938 C 105.675781 60.328125 105.695312 60.28125 105.707031 60.253906 C 105.726562 60.273438 105.761719 60.3125 105.78125 60.445312 C 105.804688 60.585938 105.78125 60.636719 105.773438 60.65625 Z M 108.363281 56.175781 C 108.398438 56.972656 108.097656 57.664062 107.644531 57.9375 C 107.640625 57.789062 107.636719 57.644531 107.632812 57.503906 C 107.851562 57.164062 108 56.703125 108.035156 56.191406 C 108.078125 55.558594 107.9375 54.984375 107.679688 54.601562 C 108.058594 54.902344 108.332031 55.488281 108.363281 56.175781 Z M 106.710938 57.875 C 106.703125 57.875 106.695312 57.871094 106.683594 57.871094 C 106.292969 57.578125 106.011719 56.980469 105.980469 56.28125 C 105.957031 55.730469 106.09375 55.226562 106.328125 54.882812 C 106.5625 54.6875 106.789062 54.660156 106.902344 54.65625 C 107.050781 54.65625 107.371094 54.953125 107.476562 57.4375 C 107.265625 57.726562 106.996094 57.894531 106.710938 57.875 Z M 107.105469 54.394531 C 107.125 54.394531 107.144531 54.394531 107.164062 54.394531 C 107.636719 54.59375 107.953125 55.332031 107.894531 56.179688 C 107.867188 56.570312 107.769531 56.925781 107.617188 57.210938 C 107.542969 55.675781 107.375 54.710938 107.105469 54.394531 Z M 105.765625 56.039062 C 105.773438 55.949219 105.78125 55.867188 105.796875 55.78125 C 105.820312 55.695312 105.851562 55.613281 105.878906 55.539062 C 105.832031 55.773438 105.808594 56.023438 105.820312 56.285156 C 105.84375 56.796875 105.988281 57.257812 106.207031 57.609375 C 105.902344 57.285156 105.722656 56.695312 105.765625 56.039062 Z M 107.25 58.0625 C 107.175781 58.066406 107.101562 58.058594 107.03125 58.039062 C 107.195312 57.976562 107.351562 57.859375 107.488281 57.699219 C 107.492188 57.796875 107.492188 57.902344 107.496094 58.011719 C 107.417969 58.039062 107.335938 58.058594 107.25 58.0625 Z M 107.804688 62.851562 C 107.792969 62.867188 107.785156 62.867188 107.78125 62.867188 C 107.769531 62.867188 107.753906 62.863281 107.734375 62.84375 C 107.554688 62.648438 107.589844 61.921875 107.652344 60.648438 C 107.664062 60.714844 107.675781 60.78125 107.691406 60.839844 C 107.835938 61.503906 107.984375 62.636719 107.804688 62.851562 " fill-opacity="1" fill-rule="nonzero"/></g><g clip-path="url(#id5)"><path fill="rgb(0%, 0%, 0%)" d="M 91.628906 65.113281 C 91.472656 64.980469 91.25 64.984375 91.082031 64.992188 C 91.195312 64.886719 91.339844 64.84375 91.351562 64.597656 C 91.359375 64.292969 91.335938 63.996094 91.195312 63.953125 C 91.082031 63.917969 90.671875 64.078125 90.476562 64.167969 C 90.28125 64.257812 89.914062 64.285156 89.65625 64.28125 C 89.613281 64.214844 89.386719 64.011719 89.136719 63.941406 C 88.980469 63.898438 88.703125 63.925781 88.402344 64.039062 C 88.113281 64.148438 87.9375 64.339844 87.652344 64.5625 C 87.363281 64.789062 87.214844 65.066406 87.234375 65.402344 C 87.257812 65.742188 87.195312 65.941406 87.421875 66.390625 C 87.464844 66.898438 87.011719 67.117188 87.011719 67.117188 C 86.058594 67.0625 85.195312 67.390625 84.398438 67.34375 C 83.25 67.269531 82.648438 67.371094 82.363281 67.484375 C 82.253906 67.527344 82.144531 67.597656 82.0625 67.652344 C 81.8125 67.679688 81.585938 67.609375 81.503906 67.582031 C 80.945312 67.386719 80.414062 67.117188 79.949219 66.589844 C 79.484375 66.0625 79.230469 65.566406 79.308594 64.984375 C 79.382812 64.402344 79.0625 64.433594 78.980469 65.070312 C 78.898438 65.707031 79.171875 66.394531 79.453125 66.746094 C 79.730469 67.09375 80.382812 68.027344 81.347656 68.421875 C 81.347656 68.421875 80.804688 68.882812 80.820312 69.917969 C 80.800781 70.269531 80.894531 70.5625 80.863281 70.65625 C 80.839844 70.734375 80.757812 70.832031 80.609375 70.960938 C 80.460938 71.09375 80.074219 71.273438 79.941406 71.304688 C 79.808594 71.332031 79.777344 71.394531 79.792969 71.589844 C 79.816406 71.9375 79.90625 72.148438 79.914062 72.484375 C 79.914062 72.5625 79.917969 72.625 79.921875 72.679688 C 79.847656 72.789062 79.792969 72.90625 79.820312 73.03125 C 79.859375 73.039062 79.902344 73.050781 79.941406 73.058594 C 79.960938 73.0625 79.980469 73.070312 80 73.0625 C 80.011719 73.058594 80.019531 73.050781 80.027344 73.042969 C 80.027344 73.046875 80.027344 73.046875 80.027344 73.046875 C 80.105469 73.207031 80.089844 73.417969 80.078125 73.496094 C 80.066406 73.578125 80.089844 73.707031 80.265625 73.828125 C 80.445312 73.945312 80.546875 73.867188 80.546875 73.867188 C 80.546875 73.867188 80.691406 73.894531 80.933594 73.890625 C 81.179688 73.882812 81.199219 73.816406 81.25 73.683594 C 81.476562 73.621094 81.289062 73.433594 81.179688 73.335938 C 81.070312 73.242188 80.945312 73.25 80.945312 73.25 C 80.945312 73.25 80.789062 73.132812 80.695312 73 C 80.523438 72.777344 80.507812 72.378906 80.523438 72.1875 C 80.542969 71.992188 80.675781 71.855469 80.816406 71.820312 C 80.960938 71.789062 81.398438 71.761719 81.398438 71.761719 C 81.398438 71.761719 81.4375 71.898438 81.527344 72.054688 C 81.621094 72.214844 81.578125 72.316406 81.632812 72.484375 C 81.648438 72.539062 81.6875 72.621094 81.738281 72.710938 C 81.691406 72.800781 81.660156 72.890625 81.679688 72.988281 C 81.722656 72.996094 81.765625 73.007812 81.804688 73.015625 C 81.824219 73.019531 81.84375 73.027344 81.863281 73.019531 C 81.875 73.015625 81.886719 73.003906 81.894531 72.992188 C 81.941406 73.066406 81.972656 73.125 81.984375 73.144531 C 82.019531 73.207031 82.019531 73.28125 82.011719 73.347656 C 81.996094 73.53125 82.058594 73.507812 82.105469 73.566406 C 82.171875 73.65625 82.289062 73.683594 82.40625 73.640625 C 82.40625 73.703125 82.527344 73.734375 82.785156 73.734375 C 83.042969 73.734375 83.035156 73.59375 83.035156 73.59375 C 83.035156 73.59375 83.105469 73.589844 83.121094 73.503906 C 83.132812 73.359375 82.933594 73.125 82.886719 73.125 C 82.808594 73.125 82.660156 73.03125 82.617188 72.960938 C 82.578125 72.894531 82.425781 72.738281 82.269531 72.472656 C 82.117188 72.203125 82.132812 71.902344 82.242188 71.730469 C 82.351562 71.5625 82.476562 71.617188 82.90625 71.496094 C 83.332031 71.378906 83.394531 71.191406 83.617188 70.800781 C 83.746094 70.574219 83.792969 70.402344 83.761719 70.417969 C 83.761719 70.417969 84.203125 70.265625 84.296875 70.300781 C 84.386719 70.339844 84.804688 70.515625 85.472656 70.6875 C 86.144531 70.859375 86.859375 70.777344 86.859375 70.777344 C 86.859375 70.777344 86.878906 70.835938 86.878906 71.035156 C 86.878906 71.230469 87.046875 71.285156 87.117188 71.601562 C 87.191406 71.921875 87.132812 72.066406 87.167969 72.332031 C 87.203125 72.59375 87.167969 72.679688 87.105469 72.851562 C 87 73.152344 87.125 73.070312 87.222656 73.050781 C 87.277344 73.242188 87.265625 73.605469 87.265625 73.769531 C 87.265625 73.933594 87.332031 74.007812 87.417969 74.074219 C 87.503906 74.144531 87.714844 74.128906 87.789062 74.085938 C 87.8125 74.125 87.972656 74.136719 88.132812 74.128906 C 88.292969 74.125 88.367188 74.101562 88.390625 74.015625 C 88.421875 74.007812 88.457031 73.957031 88.4375 73.867188 C 88.421875 73.773438 88.328125 73.585938 88.273438 73.574219 C 88.21875 73.5625 88.105469 73.542969 88.058594 73.5 C 88.007812 73.457031 87.898438 73.363281 87.875 73.199219 C 87.847656 73.035156 87.867188 72.25 87.949219 71.96875 C 88.027344 71.6875 88.050781 71.597656 88.050781 71.597656 C 88.050781 71.597656 88.285156 71.71875 88.511719 71.71875 C 88.738281 71.71875 88.910156 71.65625 89.148438 71.65625 C 89.386719 71.65625 89.609375 71.632812 89.609375 71.632812 C 89.609375 71.632812 89.621094 71.664062 89.617188 71.699219 C 89.398438 71.96875 89.578125 71.878906 89.664062 71.878906 C 89.628906 71.945312 89.609375 72.171875 89.609375 72.171875 C 89.609375 72.171875 89.425781 72.164062 89.375 72.261719 C 89.328125 72.359375 89.4375 72.542969 89.4375 72.542969 C 89.4375 72.542969 89.457031 72.625 89.460938 72.871094 C 89.46875 73.113281 89.664062 73.132812 89.664062 73.132812 C 89.664062 73.132812 89.730469 73.207031 89.800781 73.21875 C 89.929688 73.222656 89.988281 73.125 90.117188 72.96875 C 90.246094 72.808594 90.160156 72.605469 90.148438 72.421875 C 90.136719 72.238281 90.214844 72.023438 90.289062 71.816406 C 90.363281 71.609375 90.332031 71.367188 90.199219 71.171875 C 90.0625 70.976562 89.832031 70.976562 89.511719 70.929688 C 89.1875 70.886719 89.050781 70.777344 88.789062 70.671875 C 88.855469 70.542969 88.90625 70.324219 88.90625 70.324219 C 88.90625 70.324219 89.085938 69.945312 89.195312 69.617188 C 89.308594 69.285156 89.261719 68.828125 89.214844 68.613281 C 89.191406 68.5 89.203125 68.164062 89.25 67.992188 C 89.285156 67.859375 89.328125 67.742188 89.449219 67.453125 C 89.558594 67.472656 89.949219 67.617188 90.148438 67.320312 C 90.316406 67.066406 90.148438 66.125 90.148438 66.125 C 90.148438 66.125 90.4375 65.917969 90.503906 65.847656 C 90.640625 65.800781 90.699219 65.769531 90.761719 65.753906 C 90.933594 65.722656 91.097656 65.644531 91.167969 65.546875 C 91.242188 65.449219 91.285156 65.292969 91.234375 65.277344 C 91.324219 65.265625 91.460938 65.347656 91.566406 65.367188 C 91.671875 65.386719 91.785156 65.25 91.628906 65.113281 " fill-opacity="1" fill-rule="nonzero"/></g><g clip-path="url(#id6)"><path fill="rgb(0%, 0%, 0%)" d="M 34.304688 69.667969 C 34.269531 69.65625 34.230469 69.652344 34.183594 69.65625 C 34.175781 69.636719 34.164062 69.621094 34.144531 69.605469 C 34.226562 69.59375 34.328125 69.625 34.332031 69.589844 C 34.332031 69.542969 34.125 69.460938 33.976562 69.496094 C 33.929688 69.507812 33.882812 69.527344 33.847656 69.550781 C 33.726562 69.5625 33.597656 69.597656 33.511719 69.65625 C 33.417969 69.617188 33.230469 69.667969 33.136719 69.75 C 33.042969 69.832031 32.917969 69.863281 32.816406 69.832031 C 30.855469 69.28125 29.96875 68.53125 29.4375 68.101562 C 28.90625 67.675781 28.125 67.480469 27.863281 67.3125 C 27.605469 67.148438 27.417969 66.898438 27.4375 66.492188 C 27.457031 66.089844 27.503906 65.84375 27.378906 65.5 C 27.433594 65.398438 27.507812 65.289062 27.589844 65.195312 C 27.613281 65.253906 27.644531 65.289062 27.644531 65.265625 C 27.648438 65.226562 27.6875 65.144531 27.757812 65.070312 C 27.789062 65.042969 27.855469 65 27.886719 64.992188 C 27.871094 65.128906 27.929688 65.265625 27.941406 65.242188 C 27.957031 65.207031 28 65.085938 28.058594 64.996094 C 28.082031 64.964844 28.105469 64.929688 28.132812 64.894531 C 28.132812 64.890625 28.132812 64.890625 28.136719 64.890625 C 28.109375 65.039062 28.1875 65.195312 28.195312 65.171875 C 28.210938 65.136719 28.246094 65.015625 28.300781 64.921875 C 28.335938 64.871094 28.371094 64.820312 28.40625 64.761719 C 28.414062 64.867188 28.457031 64.945312 28.464844 64.914062 C 28.472656 64.855469 28.535156 64.734375 28.625 64.628906 C 28.714844 64.519531 28.972656 64.4375 29.117188 64.265625 C 29.035156 64.359375 29.101562 64.644531 29.117188 64.601562 C 29.152344 64.5 29.316406 64.226562 29.425781 64.121094 C 29.457031 64.09375 29.546875 63.976562 29.640625 63.847656 C 29.726562 63.816406 29.804688 63.804688 29.917969 63.765625 C 30.148438 63.695312 30.742188 63.789062 31.074219 63.789062 C 31.410156 63.789062 32.265625 63.867188 32.429688 63.765625 C 32.671875 63.785156 33.089844 63.207031 33.160156 63.132812 C 33.453125 62.84375 33.527344 62.4375 33.472656 62.363281 C 33.253906 62.085938 32.136719 61.789062 31.761719 61.675781 C 31.386719 61.5625 31.34375 61.46875 31.09375 61.34375 C 31.03125 61.15625 30.957031 60.929688 30.792969 60.867188 C 30.625 60.804688 30.324219 60.515625 30.074219 60.433594 C 29.824219 60.347656 29.6875 60.238281 29.625 60.175781 C 29.769531 59.53125 29.871094 58.765625 29.902344 58.476562 C 29.933594 58.183594 29.851562 58.039062 29.707031 58.175781 C 29.507812 58.363281 29.113281 58.757812 28.839844 59.234375 C 28.832031 59.089844 29.007812 58.550781 28.933594 58.539062 C 28.789062 58.527344 28.355469 58.851562 28.054688 59.433594 C 27.753906 60.011719 27.628906 60.191406 27.628906 60.191406 C 27.527344 60.214844 27.433594 60.242188 27.339844 60.273438 C 27.140625 60.328125 26.898438 60.40625 26.671875 60.492188 C 26.570312 60.53125 26.453125 60.542969 26.414062 60.546875 C 26.398438 60.550781 26.449219 60.597656 26.527344 60.628906 C 26.347656 60.730469 26.222656 60.816406 26.066406 60.925781 C 26.050781 60.9375 25.964844 60.96875 25.953125 60.976562 C 25.820312 61.042969 25.511719 61.097656 25.410156 61.09375 C 25.371094 61.09375 25.546875 61.21875 25.667969 61.214844 C 25.65625 61.222656 25.636719 61.238281 25.613281 61.25 C 25.5 61.304688 25.417969 61.382812 25.332031 61.445312 C 25.289062 61.472656 25.246094 61.5 25.207031 61.519531 C 25.082031 61.570312 24.929688 61.59375 24.875 61.582031 C 24.851562 61.578125 24.882812 61.621094 24.941406 61.664062 C 24.875 61.691406 24.808594 61.71875 24.738281 61.746094 C 23.78125 62.089844 22.054688 62.503906 21.949219 62.492188 C 20.792969 62.421875 19.089844 62.476562 18.695312 62.46875 C 18.296875 62.457031 16.195312 61.953125 15.1875 61.996094 C 13.9375 62.050781 13.414062 62.300781 13.199219 62.4375 C 13.101562 62.496094 12.867188 62.5 12.5625 62.429688 C 11.152344 62.183594 8.746094 62.257812 8.3125 62.261719 C 8.0625 62.265625 7.394531 61.96875 6.746094 61.632812 C 6.652344 61.578125 6.324219 61.3125 6.105469 61.179688 C 6.019531 61.117188 5.9375 61.027344 5.910156 61 C 5.902344 60.988281 5.894531 61.027344 5.902344 61.082031 C 5.8125 61.003906 5.734375 60.9375 5.707031 60.921875 C 5.578125 60.847656 5.367188 60.617188 5.3125 60.53125 C 5.289062 60.492188 5.273438 60.773438 5.378906 60.839844 C 5.203125 60.730469 4.992188 60.675781 4.84375 60.570312 C 4.734375 60.488281 4.632812 60.398438 4.613281 60.34375 C 4.601562 60.320312 4.578125 60.390625 4.582031 60.480469 C 4.113281 60.257812 3.738281 60.160156 3.777344 60.484375 C 3.820312 60.683594 3.859375 60.855469 3.925781 61.023438 C 3.8125 61.003906 3.710938 61.027344 3.726562 61.039062 C 3.761719 61.0625 3.867188 61.128906 3.945312 61.207031 C 4 61.273438 4.0625 61.339844 4.132812 61.40625 C 4.015625 61.429688 3.929688 61.496094 3.960938 61.496094 C 4.019531 61.496094 4.238281 61.652344 4.355469 61.726562 C 4.535156 61.839844 4.539062 61.894531 4.710938 62.035156 C 4.613281 61.953125 4.332031 62.082031 4.378906 62.089844 C 4.484375 62.105469 4.652344 62.160156 4.886719 62.292969 C 4.910156 62.308594 4.945312 62.332031 4.976562 62.359375 C 4.910156 62.40625 4.878906 62.460938 4.902344 62.453125 C 4.953125 62.4375 5.113281 62.441406 5.238281 62.492188 C 5.335938 62.539062 5.382812 62.566406 5.464844 62.605469 C 5.554688 62.667969 5.660156 62.71875 5.75 62.773438 C 5.621094 62.757812 5.421875 62.910156 5.46875 62.90625 C 5.574219 62.894531 5.886719 62.933594 6.03125 62.972656 C 6.070312 62.984375 6.28125 63.027344 6.449219 63.109375 C 6.96875 63.359375 7.359375 63.488281 7.929688 63.664062 C 8.085938 63.710938 8.242188 63.75 8.402344 63.785156 C 8.296875 63.847656 8.230469 63.953125 8.25 63.949219 C 8.289062 63.941406 8.414062 63.914062 8.523438 63.914062 C 8.738281 63.929688 9.007812 63.921875 9.214844 63.910156 C 10.222656 64.003906 11.15625 63.898438 11.535156 63.777344 C 11.804688 63.695312 12.15625 63.457031 12.421875 63.453125 C 12.3125 63.894531 12.136719 63.902344 11.976562 64.273438 C 11.601562 64.472656 11.597656 65.15625 11.464844 65.402344 C 11.332031 65.648438 11.316406 65.769531 11.128906 65.886719 C 10.910156 65.839844 10.535156 65.613281 10.125 65.355469 C 9.714844 65.097656 9.148438 64.644531 9 64.644531 C 8.726562 64.644531 8.433594 64.957031 8.175781 65.132812 C 7.921875 65.308594 7.378906 65.621094 6.875 65.890625 C 6.367188 66.15625 5.875 66.550781 5.753906 66.660156 C 5.628906 66.769531 5.574219 66.796875 5.460938 66.738281 C 5.347656 66.679688 5.332031 66.761719 5.210938 66.796875 C 5.09375 66.832031 4.972656 66.867188 4.972656 67.058594 C 4.855469 67.0625 4.738281 67.257812 4.640625 67.433594 C 4.589844 67.523438 4.570312 67.59375 4.574219 67.660156 C 4.5 67.671875 4.417969 67.65625 4.421875 67.6875 C 4.421875 67.71875 4.507812 67.75 4.605469 67.757812 C 4.621094 67.785156 4.636719 67.816406 4.660156 67.847656 C 4.632812 67.910156 4.625 67.957031 4.632812 67.992188 C 4.554688 68.042969 4.40625 68.007812 4.410156 68.046875 C 4.414062 68.09375 4.628906 68.152344 4.773438 68.097656 C 4.773438 68.097656 4.773438 68.097656 4.777344 68.097656 C 4.796875 68.101562 4.824219 68.105469 4.847656 68.109375 C 4.773438 68.121094 4.6875 68.105469 4.691406 68.140625 C 4.695312 68.183594 4.910156 68.242188 5.054688 68.1875 C 5.09375 68.175781 5.128906 68.15625 5.160156 68.132812 C 5.285156 68.136719 5.347656 68.082031 5.347656 68.082031 C 5.347656 68.082031 5.429688 68.136719 5.511719 68.035156 C 5.589844 67.933594 5.894531 67.667969 6.054688 67.632812 C 6.21875 67.601562 6.363281 67.484375 6.722656 67.132812 C 7.085938 66.78125 7.625 66.449219 8.199219 66.257812 C 8.773438 66.070312 9.199219 66.222656 9.261719 66.257812 C 9.703125 66.570312 10.234375 67.113281 10.234375 67.113281 C 10.234375 67.113281 9.394531 67.242188 8.992188 67.21875 C 8.589844 67.195312 8.304688 67.136719 8.199219 67.332031 C 7.816406 68.019531 7.292969 68.441406 6.835938 68.996094 C 6.375 69.554688 6.226562 69.726562 6.136719 69.984375 C 6.046875 70.246094 5.933594 70.375 5.882812 70.339844 C 5.757812 70.261719 5.710938 70.363281 5.59375 70.378906 C 5.476562 70.390625 5.433594 70.398438 5.410156 70.589844 C 5.277344 70.519531 5.117188 70.710938 5.023438 70.820312 C 4.949219 70.910156 4.894531 71.09375 4.925781 71.285156 C 4.851562 71.34375 4.6875 71.300781 4.691406 71.34375 C 4.695312 71.382812 4.835938 71.429688 4.96875 71.414062 C 4.96875 71.421875 4.972656 71.429688 4.976562 71.433594 C 4.929688 71.523438 4.929688 71.582031 4.953125 71.617188 C 4.875 71.683594 4.710938 71.640625 4.714844 71.683594 C 4.71875 71.730469 4.929688 71.785156 5.078125 71.734375 C 5.105469 71.722656 5.132812 71.710938 5.15625 71.695312 C 5.164062 71.695312 5.171875 71.695312 5.175781 71.695312 C 5.144531 71.710938 5.121094 71.722656 5.128906 71.738281 C 5.144531 71.773438 5.28125 71.765625 5.398438 71.714844 C 5.621094 71.734375 6.074219 71.429688 6.238281 71.324219 C 6.601562 71.09375 6.808594 70.714844 7.058594 70.261719 C 7.308594 69.8125 7.734375 69.421875 7.917969 69.261719 C 8.097656 69.105469 8.5 68.878906 9.035156 68.644531 C 9.5 68.542969 11.304688 68.738281 11.769531 68.796875 C 12.234375 68.855469 13.070312 68.625 13.835938 68.277344 C 14.601562 67.929688 15.5625 67.113281 15.5625 67.113281 C 15.5625 67.113281 18.703125 67.265625 19.214844 67.542969 C 19.859375 67.890625 21.628906 68.472656 22.253906 68.515625 C 22.878906 68.558594 23.617188 68.507812 23.617188 68.507812 C 23.617188 68.507812 23.917969 69.132812 24.125 69.246094 C 24.332031 69.359375 24.894531 69.839844 25.230469 70.140625 C 25.5625 70.441406 26.195312 71.15625 26.539062 71.457031 C 26.882812 71.757812 26.964844 72.070312 27.007812 72.351562 C 27.050781 72.628906 27.289062 72.628906 27.464844 72.539062 C 27.570312 72.621094 28.414062 73.386719 28.4375 73.65625 C 28.449219 73.800781 28.554688 74.035156 28.785156 74.089844 C 29.015625 74.140625 29.144531 74.097656 29.144531 74.097656 C 29.144531 74.097656 29.609375 74.140625 29.839844 74.128906 C 29.972656 74.125 30.042969 74.039062 30.082031 73.972656 C 30.144531 74.027344 30.179688 74.132812 30.207031 74.113281 C 30.238281 74.09375 30.210938 73.964844 30.144531 73.859375 C 30.164062 73.847656 30.195312 73.824219 30.226562 73.789062 C 30.234375 73.792969 30.242188 73.792969 30.25 73.792969 C 30.351562 73.816406 30.398438 73.996094 30.4375 73.972656 C 30.457031 73.957031 30.453125 73.902344 30.429688 73.835938 C 30.445312 73.855469 30.457031 73.871094 30.46875 73.863281 C 30.507812 73.835938 30.449219 73.621094 30.332031 73.523438 C 30.320312 73.515625 30.3125 73.507812 30.300781 73.5 C 30.257812 73.347656 30.066406 73.328125 29.859375 73.199219 C 29.664062 73.070312 29.3125 73.113281 29.226562 73.074219 C 28.96875 72.949219 28.308594 72.050781 28.007812 71.664062 C 27.707031 71.28125 27.289062 70.730469 26.964844 70.210938 C 26.644531 69.691406 26.199219 69.058594 25.769531 68.632812 C 26 68.414062 26.269531 68.414062 26.269531 68.414062 C 26.269531 68.414062 26.667969 68.726562 26.9375 68.726562 C 27.207031 68.726562 28.136719 68.957031 28.699219 69.234375 C 29.261719 69.515625 29.917969 69.734375 30.363281 69.964844 C 30.8125 70.191406 30.96875 70.605469 31.136719 70.585938 C 31.300781 70.566406 31.375 70.347656 31.375 70.347656 C 31.375 70.347656 32.410156 70.664062 32.523438 70.707031 C 32.636719 70.746094 32.742188 70.832031 32.847656 70.945312 C 32.949219 71.058594 33.066406 71.050781 33.199219 71.027344 C 33.335938 71.007812 33.492188 71.019531 33.628906 70.839844 C 33.679688 70.851562 33.710938 70.839844 33.980469 70.695312 C 34.253906 70.550781 34.261719 70.40625 34.3125 70.332031 C 34.363281 70.261719 34.480469 70.160156 34.359375 70.019531 C 34.445312 70.003906 34.546875 70.042969 34.550781 70.003906 C 34.550781 69.980469 34.488281 69.941406 34.40625 69.921875 C 34.425781 69.875 34.429688 69.828125 34.417969 69.789062 C 34.503906 69.757812 34.636719 69.804688 34.636719 69.765625 C 34.640625 69.722656 34.453125 69.644531 34.304688 69.667969 " fill-opacity="1" fill-rule="evenodd"/></g></svg>