<svg xmlns="http://www.w3.org/2000/svg" xmlns:xlink="http://www.w3.org/1999/xlink" width="100" zoomAndPan="magnify" viewBox="0 0 75 74.999997" height="100" preserveAspectRatio="xMidYMid meet" version="1.0"><defs><clipPath id="id1"><path d="M 3.75 12.761719 L 71.25 12.761719 L 71.25 67.511719 L 3.75 67.511719 Z M 3.75 12.761719 " clip-rule="nonzero"/></clipPath></defs><g clip-path="url(#id1)"><path fill="rgb(100%, 100%, 100%)" d="M 71.046875 19.761719 C 70.914062 18.65625 70.75 17.480469 70.0625 16.578125 C 70.035156 15.984375 69.644531 15.390625 68.875 15.390625 C 59.714844 15.308594 50.585938 14.457031 41.4375 14.054688 C 37.511719 13.878906 33.613281 13.730469 29.703125 13.433594 C 25.792969 13.136719 21.878906 12.824219 17.953125 12.796875 C 15.917969 12.769531 13.839844 12.878906 11.816406 13.164062 C 10.078125 13.40625 8.390625 13.835938 6.988281 14.929688 C 6.972656 14.917969 6.945312 14.917969 6.933594 14.902344 C 6.328125 14.648438 5.652344 15.335938 6.191406 15.875 C 6.328125 16.007812 6.476562 16.15625 6.609375 16.292969 C 5.734375 31.164062 3.816406 45.96875 3.75 60.878906 C 3.75 61.730469 4.410156 62.148438 5.058594 62.136719 C 5.058594 62.136719 5.058594 62.136719 5.046875 62.148438 C 4.722656 62.433594 5.058594 63.054688 5.476562 62.890625 C 5.613281 62.835938 5.746094 62.785156 5.867188 62.714844 C 7.042969 63.660156 9.265625 63.769531 10.46875 63.875 C 13.976562 64.1875 17.507812 64.09375 21.03125 64.011719 C 24.265625 63.945312 27.492188 63.753906 30.726562 63.742188 C 32.253906 63.742188 33.738281 63.890625 35.246094 64.050781 C 38.457031 64.390625 41.667969 64.738281 44.878906 65.089844 C 48.425781 65.480469 51.972656 65.859375 55.523438 66.117188 C 57.355469 66.238281 59.191406 66.347656 61.023438 66.398438 C 62.726562 66.453125 64.476562 66.617188 66.179688 66.414062 C 66.597656 67.507812 68.445312 67.359375 68.5 65.980469 C 68.648438 62.378906 68.929688 58.84375 69.386719 55.265625 C 69.832031 51.785156 70.265625 48.316406 70.398438 44.792969 C 70.65625 38.035156 70.898438 31.273438 71.128906 24.511719 C 71.210938 22.933594 71.25 21.339844 71.046875 19.761719 Z M 11.953125 15.09375 C 13.746094 14.984375 15.527344 14.945312 17.320312 14.984375 C 21.136719 15.050781 24.929688 15.320312 28.730469 15.632812 C 37.042969 16.304688 45.378906 16.699219 53.699219 17.210938 C 58.53125 17.507812 63.34375 17.777344 68.1875 17.832031 C 67.121094 18.316406 66.097656 19.234375 65.21875 19.882812 C 64.074219 20.71875 62.96875 21.597656 61.875 22.5 C 59.542969 24.429688 57.289062 26.496094 55.128906 28.628906 C 52.878906 30.855469 50.636719 33.09375 48.492188 35.414062 C 48.222656 33.972656 47.5625 32.621094 46.296875 31.824219 C 44.015625 30.394531 41.074219 31.675781 39.199219 33.203125 C 38.039062 34.148438 37.285156 35.375 36.625 36.671875 C 36.179688 34.917969 35.289062 33.351562 33.480469 32.609375 C 31.660156 31.867188 29.691406 32.539062 28.410156 33.929688 C 28.097656 34.148438 27.800781 34.429688 27.546875 34.753906 C 27.261719 35.117188 27.03125 35.511719 26.84375 35.914062 C 24.089844 32.90625 21.648438 29.625 19.140625 26.425781 C 17.386719 24.199219 15.59375 22 13.609375 19.976562 C 11.816406 18.140625 9.875 16.347656 7.566406 15.199219 C 9.023438 15.308594 10.480469 15.1875 11.953125 15.09375 Z M 42.597656 34.578125 C 42.597656 34.578125 42.585938 34.578125 42.597656 34.578125 Z M 12.125 21.664062 C 14.054688 23.742188 15.835938 25.96875 17.578125 28.210938 C 19.679688 30.90625 21.746094 33.675781 23.984375 36.292969 C 23.1875 37.128906 22.527344 38.085938 21.839844 39.003906 C 20.933594 40.207031 20.046875 41.421875 19.183594 42.648438 C 17.480469 45.039062 15.890625 47.519531 14.097656 49.867188 C 12.382812 52.121094 10.507812 54.242188 8.863281 56.546875 C 7.945312 57.832031 7.269531 59.355469 6.351562 60.664062 C 6.339844 46.128906 8.105469 31.636719 7.445312 17.117188 C 9.023438 18.613281 10.644531 20.070312 12.125 21.664062 Z M 61.996094 63.796875 C 60.351562 63.726562 58.703125 63.621094 57.074219 63.484375 C 53.957031 63.242188 50.855469 62.957031 47.75 62.632812 C 44.648438 62.3125 41.558594 61.945312 38.472656 61.609375 C 36.273438 61.367188 34.058594 61.042969 31.847656 61 C 28.976562 60.949219 26.101562 61.148438 23.242188 61.273438 C 19.707031 61.433594 16.171875 61.570312 12.640625 61.664062 C 11.101562 61.703125 9.578125 61.675781 8.039062 61.636719 C 7.851562 61.636719 7.660156 61.621094 7.460938 61.609375 C 8.5 60.664062 9.265625 59.464844 10.117188 58.234375 C 11.722656 55.914062 13.773438 53.863281 15.527344 51.636719 C 17.375 49.300781 19.046875 46.832031 20.785156 44.417969 C 21.664062 43.203125 22.554688 41.988281 23.445312 40.773438 C 24.117188 39.855469 24.875 38.9375 25.496094 37.964844 C 25.738281 38.222656 25.980469 38.480469 26.222656 38.734375 C 26.195312 39.652344 26.316406 40.582031 26.546875 41.433594 C 27.167969 43.769531 28.691406 45.792969 30.445312 47.398438 C 31.496094 48.355469 32.644531 49.179688 33.84375 49.9375 C 34.4375 50.3125 35.113281 50.730469 35.800781 51.082031 C 36.070312 51.367188 36.351562 51.648438 36.609375 51.933594 C 37.191406 52.566406 38.121094 52.417969 38.714844 51.933594 C 43.125 48.304688 47.886719 44.59375 48.5625 38.492188 C 48.5625 38.4375 48.574219 38.382812 48.574219 38.332031 C 48.953125 37.980469 49.316406 37.613281 49.679688 37.25 C 50.839844 39.085938 51.851562 40.976562 52.796875 42.945312 C 53.996094 45.429688 55.523438 47.710938 57.113281 49.949219 C 58.839844 52.378906 60.390625 54.835938 61.753906 57.492188 C 62.441406 58.84375 63.171875 60.164062 63.832031 61.515625 C 64.207031 62.269531 64.519531 63.039062 64.828125 63.824219 C 63.910156 63.824219 62.953125 63.835938 61.996094 63.796875 Z M 69.46875 23.929688 C 69.253906 26.914062 69.023438 29.882812 68.863281 32.863281 C 68.484375 40.003906 68.175781 47.128906 67.191406 54.214844 C 66.894531 56.398438 66.542969 58.601562 66.328125 60.828125 C 65.597656 59.382812 64.75 57.980469 64.019531 56.628906 C 62.550781 53.902344 60.929688 51.351562 59.097656 48.855469 C 57.398438 46.546875 55.683594 44.296875 54.226562 41.824219 C 53.1875 40.058594 52.121094 37.859375 50.421875 36.589844 C 52.417969 34.605469 54.386719 32.59375 56.425781 30.636719 C 58.582031 28.574219 60.769531 26.523438 63.0625 24.605469 C 64.167969 23.6875 65.289062 22.796875 66.449219 21.949219 C 67.054688 21.503906 67.675781 21.070312 68.296875 20.652344 C 68.699219 20.382812 69.160156 20.125 69.550781 19.800781 C 69.578125 21.164062 69.5625 22.527344 69.46875 23.929688 Z M 69.46875 23.929688 " fill-opacity="1" fill-rule="nonzero"/></g></svg>