<svg xmlns="http://www.w3.org/2000/svg" xmlns:xlink="http://www.w3.org/1999/xlink" width="100" zoomAndPan="magnify" viewBox="0 0 75 74.999997" height="100" preserveAspectRatio="xMidYMid meet" version="1.0"><path fill="rgb(0%, 0%, 0%)" d="M 20.699219 17.273438 C 21.265625 16.566406 20.675781 15.527344 19.78125 15.648438 C 17.214844 15.996094 13.460938 16.78125 10.351562 18.460938 C 5.683594 20.980469 2.449219 25.71875 1.222656 28.070312 C -0.00390625 30.425781 2.273438 31.335938 2.804688 30.027344 C 3.339844 28.71875 5.03125 27.074219 6.453125 27.125 C 7.222656 27.152344 7.59375 27.90625 8.382812 29.089844 C 10.042969 31.589844 12.121094 35.484375 13.140625 34.640625 C 13.90625 34.003906 16.285156 22.785156 20.699219 17.273438 Z M 65.5625 29.148438 C 65.945312 30.015625 67.179688 30.003906 67.550781 29.132812 C 69.523438 24.480469 73.105469 14.398438 73.425781 12.890625 C 73.824219 10.992188 73.367188 9.269531 71.1875 7.484375 C 69.007812 5.703125 65.566406 7.601562 64.132812 8.292969 C 62.929688 8.871094 60.195312 12.273438 57.625 14.546875 C 56.871094 15.214844 56.792969 16.367188 57.460938 17.121094 C 59.480469 19.410156 63.371094 24.167969 65.5625 29.148438 Z M 50.308594 28.933594 C 48.746094 28.933594 47.480469 30.203125 47.480469 31.769531 C 47.480469 33.335938 48.746094 34.605469 50.308594 34.605469 C 51.871094 34.605469 53.136719 33.335938 53.136719 31.769531 C 53.136719 30.203125 51.871094 28.933594 50.308594 28.933594 Z M 25.660156 29.792969 C 24.183594 29.792969 22.984375 30.992188 22.984375 32.472656 C 22.984375 33.953125 24.183594 35.152344 25.660156 35.152344 C 27.136719 35.152344 28.335938 33.953125 28.335938 32.472656 C 28.335938 30.992188 27.136719 29.792969 25.660156 29.792969 Z M 36.257812 57.003906 C 35.3125 57.460938 34.703125 57.46875 34.664062 57.558594 C 34.644531 57.605469 35.160156 59.097656 37.78125 59.171875 C 40.40625 59.25 42.882812 57.792969 42.195312 57.539062 C 41.578125 57.308594 39.074219 56.804688 38.199219 56.105469 C 38.039062 55.976562 37.808594 55.980469 37.648438 56.105469 C 37.3125 56.359375 36.769531 56.75 36.257812 57.003906 Z M 36.375 54.140625 C 37.144531 54.660156 38.167969 54.585938 38.867188 53.976562 C 40.105469 52.902344 42.078125 50.976562 42.492188 49.328125 C 43.105469 46.894531 41.089844 46.246094 40.027344 46.160156 C 38.964844 46.074219 38.421875 46.699219 38.371094 46.699219 C 38.320312 46.699219 38.320312 46.730469 37.632812 46.5 C 35.59375 45.9375 33.859375 46.882812 33.25 48.035156 C 32.636719 49.183594 33.070312 50.4375 33.886719 51.609375 C 33.886719 51.609375 34.933594 53.175781 36.375 54.140625 Z M 71.652344 61.222656 C 71.582031 61.496094 71.46875 61.597656 71.316406 61.988281 C 71.164062 62.382812 70.835938 63.539062 71.328125 64.050781 C 71.820312 64.5625 72.535156 64.492188 73.011719 64.273438 C 73.488281 64.050781 74.082031 63.265625 74.539062 61.957031 C 75 60.644531 74.371094 60.082031 73.859375 60.320312 C 73.351562 60.558594 73.046875 60.832031 71.976562 60.917969 C 71.976562 60.917969 71.71875 60.949219 71.652344 61.222656 Z M 68.679688 57.441406 C 68.441406 58.105469 68.476562 59.671875 68.832031 59.824219 C 69.1875 59.976562 69.542969 59.484375 70.15625 59.589844 C 70.769531 59.691406 70.683594 59.929688 71.191406 59.777344 C 71.703125 59.621094 72.484375 59.179688 73.046875 57.015625 C 73.605469 54.855469 72.078125 54.496094 71.738281 54.632812 C 71.398438 54.769531 70.734375 55.789062 69.75 56.417969 C 69.75 56.417969 68.917969 56.777344 68.679688 57.441406 Z M 64.855469 56.453125 C 65.058594 57 65.28125 58.207031 65.449219 58.785156 C 65.621094 59.359375 66.027344 59.296875 66.265625 59.007812 C 66.503906 58.71875 67.097656 57.21875 67.710938 56.371094 C 68.320312 55.515625 67.980469 54.820312 67.710938 54.136719 C 67.4375 53.457031 67.199219 53.132812 66.722656 53.253906 C 66.25 53.371094 64.683594 54.632812 64.566406 55.6875 C 64.566406 55.6875 64.652344 55.910156 64.855469 56.453125 Z M 59.691406 60.558594 C 59.757812 60.984375 60.589844 61.171875 61.226562 60.847656 C 61.859375 60.523438 62.257812 60.898438 62.59375 60.644531 C 62.933594 60.386719 62.953125 58.820312 62.511719 57.867188 C 62.070312 56.914062 61.441406 56.539062 61.050781 56.558594 C 60.660156 56.574219 59.722656 57.835938 59.605469 59.453125 C 59.605469 59.453125 59.621094 60.132812 59.691406 60.558594 Z M 68.398438 68.785156 C 69.746094 68.59375 70.03125 67.890625 69.136719 66.871094 C 68.246094 65.847656 66.742188 65.003906 66.488281 64.136719 C 66.230469 63.265625 65.925781 62.015625 64.804688 61.785156 C 63.683594 61.554688 61.847656 62.320312 61.492188 62.984375 C 61.132812 63.648438 59.578125 63.574219 59.351562 64.210938 C 59.121094 64.851562 59.070312 65.515625 59.351562 65.847656 C 59.628906 66.179688 63.761719 69.449219 68.398438 68.785156 Z M 7.335938 47.539062 C 7.675781 47.945312 8.390625 48.765625 9.15625 48.882812 C 9.921875 49.003906 10.445312 48.152344 10.53125 47.828125 C 10.617188 47.503906 9.222656 46.039062 8.390625 45.304688 C 7.558594 44.574219 7.101562 44.8125 6.589844 45.035156 C 6.078125 45.257812 6.046875 46.003906 6.589844 46.621094 C 6.589844 46.621094 6.996094 47.128906 7.335938 47.539062 Z M 3.546875 51.789062 C 3.957031 52.097656 5.511719 51.992188 6.070312 52.222656 C 6.632812 52.453125 7.675781 51.789062 7.726562 51.046875 C 7.777344 50.304688 5.917969 48.898438 4.773438 47.90625 C 3.625 46.90625 3.242188 47.417969 2.527344 48.109375 C 1.816406 48.796875 2.042969 50.128906 3.140625 51.476562 C 3.140625 51.476562 3.140625 51.476562 3.546875 51.789062 Z M 1.492188 53.613281 C 1.472656 53.960938 1.527344 54.304688 1.65625 54.628906 C 2.335938 56.316406 3.214844 56.746094 3.886719 56.683594 C 4.617188 56.617188 6.0625 56.296875 6.335938 55.4375 C 6.605469 54.570312 6.285156 53.480469 5.6875 53.089844 C 5.09375 52.699219 3.414062 52.550781 2.632812 52.742188 C 1.898438 52.921875 1.519531 53.160156 1.492188 53.601562 Z M 13.152344 49.917969 C 13.667969 50.109375 15.296875 50.328125 15.679688 49.539062 C 16.058594 48.746094 15.101562 46.703125 13.585938 46.621094 C 13.109375 46.59375 12.632812 47.332031 12.429688 48.699219 C 12.355469 49.214844 12.644531 49.726562 13.136719 49.914062 Z M 7.21875 59.765625 C 6.222656 58.683594 7.796875 57.316406 8.746094 55.476562 C 9.699219 53.636719 9.191406 52.988281 10.039062 52.070312 C 10.890625 51.148438 11.941406 51.320312 12.996094 52.445312 C 14.050781 53.566406 15.304688 52.410156 15.984375 53.054688 C 16.664062 53.703125 16.597656 55.78125 15.238281 56.597656 C 13.878906 57.417969 10.207031 59.835938 9.496094 59.972656 C 8.78125 60.109375 8 60.621094 7.21875 59.765625 " fill-opacity="1" fill-rule="nonzero"/></svg>