<svg xmlns="http://www.w3.org/2000/svg" xmlns:xlink="http://www.w3.org/1999/xlink" width="150" zoomAndPan="magnify" viewBox="0 0 112.5 112.499997" height="150" preserveAspectRatio="xMidYMid meet" version="1.0"><defs><clipPath id="id1"><path d="M 8.089844 7.238281 L 103 7.238281 L 103 107.738281 L 8.089844 107.738281 Z M 8.089844 7.238281 " clip-rule="nonzero"/></clipPath></defs><g clip-path="url(#id1)"><path fill="rgb(13.729858%, 12.159729%, 12.548828%)" d="M 24.855469 8.859375 C 24.855469 8.859375 23.542969 7.542969 22.066406 7.625 C 20.582031 7.710938 12.378906 12.429688 10.644531 13.363281 C 8.910156 14.300781 8.148438 15.574219 8.613281 17.53125 C 9.082031 19.484375 13.226562 27.222656 15.636719 28.457031 C 18.046875 29.6875 18.679688 26.585938 19.105469 23.777344 C 19.527344 20.972656 20.414062 16 21.34375 13.40625 C 22.277344 10.8125 22.65625 10.433594 22.65625 10.433594 C 22.65625 10.433594 21.261719 16.085938 20.582031 20.292969 C 19.90625 24.5 18.933594 26.585938 19.609375 30.113281 C 20.289062 33.640625 21.515625 36.660156 23.460938 38.359375 C 25.40625 40.058594 25.703125 44.609375 28.832031 46.265625 C 31.960938 47.921875 36.824219 48.433594 39.785156 47.371094 C 42.746094 46.308594 44.246094 44.988281 44.660156 43.015625 C 45.074219 41.039062 45.328125 39.1875 45.328125 39.1875 C 45.328125 39.1875 45.421875 42.183594 44.914062 43.90625 C 44.40625 45.628906 41.710938 48.304688 37.332031 48.53125 C 32.957031 48.753906 30.828125 47.921875 28.894531 47.03125 C 26.960938 46.136719 26.199219 45.148438 25.816406 43.9375 C 25.4375 42.726562 23.660156 39.761719 23.660156 39.761719 C 23.660156 39.761719 21.757812 42.3125 21.375 44.988281 C 20.996094 47.667969 20.363281 51.238281 19.695312 53.34375 C 19.03125 55.449219 18.511719 60.804688 19.355469 63.609375 C 20.203125 66.414062 20.542969 68.199219 19.78125 70.664062 C 19.019531 73.132812 20.203125 81.546875 20.625 87.074219 C 21.050781 92.601562 20.878906 96.851562 18.636719 98.421875 C 16.394531 99.996094 14.707031 102.25 13.945312 103.355469 C 13.183594 104.460938 14.28125 105.011719 16.226562 105.011719 C 18.171875 105.011719 25.449219 105.394531 26.503906 104.800781 C 27.5625 104.203125 28.070312 103.140625 28.578125 102.25 C 29.085938 101.355469 29.929688 94.769531 29.847656 91.238281 C 29.761719 87.710938 29.550781 86.179688 30.015625 83.332031 C 30.480469 80.484375 30.226562 74.152344 30.4375 72.113281 C 30.648438 70.070312 30.269531 67.691406 30.269531 67.691406 C 30.269531 67.691406 30.722656 69.679688 32.75 71.761719 C 34.78125 73.84375 38.433594 74.703125 40.546875 75.003906 C 42.664062 75.300781 44.945312 75.894531 47.058594 74.449219 C 49.175781 73.003906 51.542969 72.28125 51.542969 72.28125 C 51.542969 72.28125 48.667969 74.195312 47.820312 74.789062 C 46.976562 75.382812 47.1875 76.191406 47.652344 77 C 48.117188 77.808594 48.835938 79.847656 47.820312 83.375 C 46.808594 86.902344 45.328125 89.710938 44.226562 90.21875 C 43.128906 90.730469 41.859375 92.257812 41.097656 93.238281 C 40.335938 94.214844 39.660156 95.703125 40.925781 95.832031 C 42.195312 95.957031 44.097656 95.832031 45.15625 96.042969 C 46.214844 96.253906 48.414062 96.085938 48.414062 96.085938 C 48.414062 96.085938 48.921875 93.152344 48.710938 91.410156 C 48.496094 89.667969 48.414062 89.027344 48.878906 88.265625 C 49.34375 87.5 50.316406 84.609375 50.359375 81.886719 C 50.402344 79.167969 49.9375 77.382812 49.9375 77.382812 C 49.9375 77.382812 50.824219 80.273438 50.824219 82.484375 C 50.824219 84.695312 50.234375 87.160156 49.683594 88.605469 C 49.132812 90.050781 49.9375 93.109375 49.683594 95.363281 C 49.429688 97.617188 46.765625 102.25 46.46875 103.398438 C 46.171875 104.542969 45.15625 106.5 49.175781 106.925781 C 53.191406 107.351562 57.167969 107.734375 59.15625 106.925781 C 61.144531 106.117188 59.027344 102.078125 58.859375 99.613281 C 58.691406 97.148438 58.523438 86.5625 59.285156 81.886719 C 60.042969 77.210938 60.722656 73.300781 60.890625 70.582031 C 61.058594 67.859375 60.890625 63.441406 60.890625 63.441406 C 60.890625 63.441406 61.492188 67.5 61.578125 68.816406 C 61.664062 70.132812 61.578125 70.976562 61.578125 70.976562 C 61.578125 70.976562 64.320312 70.242188 65.84375 69.644531 C 67.367188 69.050781 70.027344 67.179688 70.027344 67.179688 C 70.027344 67.179688 69.5625 69.539062 70.511719 71.070312 C 71.464844 72.597656 75.589844 74.578125 76.222656 77 C 76.855469 79.421875 76.347656 80.507812 76.855469 81.972656 C 77.363281 83.4375 78.191406 86.691406 77.933594 89.941406 C 77.679688 93.195312 77.238281 95.554688 76.414062 97.148438 C 75.589844 98.742188 74.761719 100.464844 77.554688 100.972656 C 80.347656 101.484375 85.230469 101.039062 85.230469 100.335938 C 85.230469 99.636719 84.40625 94.917969 84.46875 93.386719 C 84.535156 91.855469 84.34375 81.589844 83.773438 78.019531 C 83.199219 74.449219 81.804688 65.074219 80.601562 62.71875 C 79.394531 60.359375 78.253906 52.832031 75.460938 47.988281 C 72.667969 43.140625 71.78125 42.441406 69.785156 40.847656 C 67.785156 39.25 65.945312 38.199219 65.945312 38.199219 C 65.945312 38.199219 68.179688 38.996094 69.859375 40.175781 C 71.539062 41.355469 72.785156 42.699219 72.785156 42.699219 C 72.785156 42.699219 79.203125 36.828125 83.835938 34.535156 C 88.464844 32.238281 94.9375 31.917969 98.617188 31.28125 C 102.296875 30.644531 104.011719 29.304688 101.15625 27.902344 C 98.300781 26.5 87.769531 26.753906 81.871094 28.539062 C 75.96875 30.324219 67.023438 37.277344 64.230469 37.914062 C 61.441406 38.550781 55.730469 37.125 52.726562 36.703125 C 49.726562 36.277344 47.355469 36.191406 47.355469 36.191406 C 47.355469 36.191406 48.625 34.832031 49.257812 32.28125 C 49.894531 29.730469 50.527344 23.820312 50.613281 23.3125 C 50.699219 22.800781 48.792969 19.230469 47.484375 16.722656 C 46.171875 14.214844 45.285156 12.8125 45.285156 12.8125 C 45.285156 12.8125 46.808594 13.703125 48.289062 16.085938 C 49.769531 18.464844 51.402344 23.140625 52.339844 26.242188 C 53.277344 29.347656 54.125 30.582031 54.96875 30.582031 C 55.816406 30.582031 56.832031 24.078125 57.125 19.019531 C 57.421875 13.960938 56.152344 11.875 53.996094 11.113281 C 51.839844 10.347656 47.019531 8.09375 45.15625 7.796875 C 43.296875 7.5 42.238281 8.902344 42.238281 8.902344 C 42.238281 8.902344 38.6875 7.242188 34.796875 7.371094 C 30.902344 7.5 25.320312 9.199219 25.320312 9.199219 L 24.855469 8.859375 " fill-opacity="1" fill-rule="nonzero"/></g></svg>