<svg xmlns="http://www.w3.org/2000/svg" xmlns:xlink="http://www.w3.org/1999/xlink" width="200" zoomAndPan="magnify" viewBox="0 0 150 149.999998" height="200" preserveAspectRatio="xMidYMid meet" version="1.0"><path fill="rgb(99.609375%, 39.608765%, 76.469421%)" d="M 150.035156 75.035156 C 150.035156 75.128906 150.035156 75.21875 150.03125 75.316406 C 150.007812 84.078125 148.472656 92.492188 145.679688 100.296875 C 145.300781 101.347656 144.90625 102.378906 144.480469 103.40625 C 140.414062 113.351562 134.28125 122.214844 126.613281 129.492188 C 118.941406 136.757812 109.738281 142.414062 99.539062 145.941406 C 96.921875 146.847656 94.234375 147.613281 91.5 148.222656 C 91.441406 148.242188 91.382812 148.246094 91.324219 148.265625 C 88.277344 148.941406 85.171875 149.429688 82.003906 149.71875 C 79.714844 149.933594 77.386719 150.042969 75.042969 150.042969 C 67.363281 150.042969 59.945312 148.894531 52.96875 146.742188 C 51.199219 146.195312 49.457031 145.597656 47.75 144.917969 C 32.335938 138.894531 19.398438 127.921875 10.894531 113.945312 C 9.484375 111.621094 8.195312 109.222656 7.039062 106.742188 C 2.757812 97.589844 0.28125 87.4375 0.0429688 76.722656 C 0.0351562 76.160156 0.0234375 75.605469 0.0234375 75.042969 C 0.0234375 74.476562 0.03125 73.925781 0.0429688 73.371094 C 0.503906 51.957031 9.953125 32.75 24.765625 19.375 C 25.949219 18.304688 27.160156 17.277344 28.40625 16.289062 C 29.152344 15.695312 29.90625 15.117188 30.683594 14.554688 C 33.25 12.660156 35.949219 10.929688 38.753906 9.378906 C 49.511719 3.417969 61.875 0.03125 75.042969 0.03125 C 80.6875 0.03125 86.195312 0.660156 91.480469 1.847656 C 94.226562 2.457031 96.910156 3.222656 99.539062 4.132812 C 117.152344 10.214844 131.796875 22.671875 140.699219 38.761719 C 142.457031 41.925781 143.984375 45.230469 145.261719 48.65625 C 145.355469 48.894531 145.441406 49.132812 145.53125 49.375 L 145.53125 49.378906 C 146.125 51.003906 146.664062 52.648438 147.148438 54.320312 C 148.730469 59.851562 149.695312 65.65625 149.957031 71.628906 C 150.011719 72.753906 150.035156 73.894531 150.035156 75.035156 Z M 150.035156 75.035156 " fill-opacity="1" fill-rule="nonzero"/><path fill="rgb(100%, 4.309082%, 51.759338%)" d="M 42.628906 135.300781 C 44.183594 135.300781 44.183594 132.890625 42.628906 132.890625 C 41.082031 132.890625 41.078125 135.300781 42.628906 135.300781 Z M 42.628906 135.300781 " fill-opacity="1" fill-rule="nonzero"/><path fill="rgb(100%, 4.309082%, 51.759338%)" d="M 34.351562 130.226562 C 35.902344 130.226562 35.902344 127.816406 34.351562 127.816406 C 32.800781 127.816406 32.800781 130.226562 34.351562 130.226562 Z M 34.351562 130.226562 " fill-opacity="1" fill-rule="nonzero"/><path fill="rgb(100%, 4.309082%, 51.759338%)" d="M 41.832031 125.679688 C 43.382812 125.679688 43.382812 123.269531 41.832031 123.269531 C 40.277344 123.273438 40.277344 125.679688 41.832031 125.679688 Z M 41.832031 125.679688 " fill-opacity="1" fill-rule="nonzero"/><path fill="rgb(100%, 4.309082%, 51.759338%)" d="M 28.742188 119 C 28.652344 119 28.566406 119 28.476562 119 C 27.847656 119 27.242188 119.554688 27.273438 120.207031 C 27.300781 120.859375 27.800781 121.410156 28.476562 121.410156 C 28.566406 121.410156 28.652344 121.410156 28.742188 121.410156 C 29.371094 121.410156 29.976562 120.859375 29.945312 120.207031 C 29.917969 119.554688 29.417969 119 28.742188 119 Z M 28.742188 119 " fill-opacity="1" fill-rule="nonzero"/><path fill="rgb(100%, 4.309082%, 51.759338%)" d="M 35.957031 117.9375 C 37.507812 117.9375 37.507812 115.523438 35.957031 115.523438 C 34.402344 115.523438 34.398438 117.9375 35.957031 117.9375 Z M 35.957031 117.9375 " fill-opacity="1" fill-rule="nonzero"/><path fill="rgb(100%, 4.309082%, 51.759338%)" d="M 20.460938 112.589844 C 22.015625 112.589844 22.015625 110.179688 20.460938 110.179688 C 18.910156 110.1875 18.910156 112.589844 20.460938 112.589844 Z M 20.460938 112.589844 " fill-opacity="1" fill-rule="nonzero"/><path fill="rgb(100%, 4.309082%, 51.759338%)" d="M 12.449219 105.917969 C 14 105.917969 14 103.507812 12.449219 103.507812 C 10.894531 103.507812 10.894531 105.917969 12.449219 105.917969 Z M 12.449219 105.917969 " fill-opacity="1" fill-rule="nonzero"/><path fill="rgb(100%, 4.309082%, 51.759338%)" d="M 51.980469 133.964844 C 53.53125 133.964844 53.53125 131.554688 51.980469 131.554688 C 50.433594 131.554688 50.425781 133.964844 51.980469 133.964844 Z M 51.980469 133.964844 " fill-opacity="1" fill-rule="nonzero"/><path fill="rgb(100%, 4.309082%, 51.759338%)" d="M 48.511719 140.105469 C 50.0625 140.105469 50.0625 137.691406 48.511719 137.691406 C 46.957031 137.699219 46.957031 140.105469 48.511719 140.105469 Z M 48.511719 140.105469 " fill-opacity="1" fill-rule="nonzero"/><path fill="rgb(100%, 4.309082%, 51.759338%)" d="M 69.878906 144.914062 C 71.429688 144.914062 71.429688 142.503906 69.878906 142.503906 C 68.324219 142.503906 68.324219 144.914062 69.878906 144.914062 Z M 69.878906 144.914062 " fill-opacity="1" fill-rule="nonzero"/><path fill="rgb(100%, 4.309082%, 51.759338%)" d="M 81.097656 143.578125 C 82.648438 143.578125 82.648438 141.167969 81.097656 141.167969 C 79.546875 141.167969 79.546875 143.578125 81.097656 143.578125 Z M 81.097656 143.578125 " fill-opacity="1" fill-rule="nonzero"/><path fill="rgb(100%, 4.309082%, 51.759338%)" d="M 90.175781 145.183594 C 91.730469 145.183594 91.730469 142.773438 90.175781 142.773438 C 88.628906 142.773438 88.625 145.183594 90.175781 145.183594 Z M 90.175781 145.183594 " fill-opacity="1" fill-rule="nonzero"/><path fill="rgb(100%, 4.309082%, 51.759338%)" d="M 20.058594 118.066406 C 20.058594 118.152344 20.058594 118.242188 20.058594 118.328125 C 20.058594 118.960938 20.609375 119.566406 21.261719 119.535156 C 21.914062 119.507812 22.46875 119.007812 22.46875 118.328125 C 22.46875 118.242188 22.46875 118.152344 22.46875 118.066406 C 22.46875 117.4375 21.914062 116.832031 21.261719 116.859375 C 20.609375 116.890625 20.058594 117.390625 20.058594 118.066406 Z M 20.058594 118.066406 " fill-opacity="1" fill-rule="nonzero"/><path fill="rgb(100%, 4.309082%, 51.759338%)" d="M 26.738281 110.320312 C 26.738281 110.410156 26.738281 110.496094 26.738281 110.585938 C 26.738281 111.214844 27.289062 111.820312 27.941406 111.792969 C 28.59375 111.761719 29.148438 111.261719 29.148438 110.585938 C 29.148438 110.496094 29.148438 110.410156 29.148438 110.320312 C 29.148438 109.691406 28.59375 109.085938 27.941406 109.117188 C 27.289062 109.144531 26.738281 109.644531 26.738281 110.320312 Z M 26.738281 110.320312 " fill-opacity="1" fill-rule="nonzero"/><path fill="rgb(100%, 4.309082%, 51.759338%)" d="M 8.171875 97.101562 C 9.726562 97.101562 9.726562 94.691406 8.171875 94.691406 C 6.621094 94.691406 6.621094 97.101562 8.171875 97.101562 Z M 8.171875 97.101562 " fill-opacity="1" fill-rule="nonzero"/><path fill="rgb(100%, 4.309082%, 51.759338%)" d="M 60.398438 137.035156 C 60.398438 136.945312 60.398438 136.859375 60.398438 136.769531 C 60.398438 136.140625 59.847656 135.535156 59.195312 135.566406 C 58.542969 135.59375 57.988281 136.09375 57.988281 136.769531 C 57.988281 136.859375 57.988281 136.945312 57.988281 137.035156 C 57.988281 137.664062 58.542969 138.269531 59.195312 138.238281 C 59.847656 138.210938 60.398438 137.703125 60.398438 137.035156 Z M 60.398438 137.035156 " fill-opacity="1" fill-rule="nonzero"/><path fill="rgb(100%, 100%, 100%)" d="M 145.253906 48.652344 C 144.507812 48.328125 143.742188 48.035156 142.980469 47.769531 C 132.796875 44.199219 121.292969 44.964844 111.433594 49.851562 C 107.917969 51.589844 104.660156 53.933594 101.226562 56.40625 C 95.011719 60.863281 88.589844 65.484375 80.164062 66.78125 C 67.171875 68.773438 55.589844 64.984375 46.683594 55.835938 C 37.144531 46.050781 31.28125 30.347656 30.671875 14.546875 C 33.238281 12.652344 35.9375 10.925781 38.742188 9.371094 C 38.265625 23.253906 42.414062 39.9375 52.433594 50.226562 C 59.558594 57.546875 68.472656 60.433594 78.941406 58.828125 C 85.460938 57.835938 90.835938 53.972656 96.53125 49.878906 C 100.085938 47.328125 103.757812 44.683594 107.871094 42.652344 C 118.089844 37.589844 129.789062 36.246094 140.691406 38.753906 C 142.449219 41.925781 143.980469 45.222656 145.253906 48.652344 Z M 145.253906 48.652344 " fill-opacity="1" fill-rule="nonzero"/><path fill="rgb(100%, 100%, 100%)" d="M 91.316406 148.257812 C 88.269531 148.9375 85.167969 149.421875 81.996094 149.710938 C 81.320312 148.792969 80.703125 147.855469 80.152344 146.925781 C 78.222656 143.683594 76.886719 140.269531 75.605469 136.964844 C 74.304688 133.625 73.078125 130.472656 71.332031 127.707031 C 68.167969 122.703125 63.933594 118.425781 59.070312 115.332031 C 44.464844 106.027344 26.929688 108.976562 10.890625 113.933594 C 9.480469 111.609375 8.191406 109.210938 7.03125 106.730469 C 24.738281 101.121094 45.582031 97.207031 63.382812 108.550781 C 69.238281 112.28125 74.328125 117.429688 78.109375 123.421875 C 80.269531 126.84375 81.691406 130.507812 83.074219 134.046875 C 84.300781 137.179688 85.449219 140.144531 87.042969 142.804688 C 88.183594 144.707031 89.636719 146.628906 91.316406 148.257812 Z M 91.316406 148.257812 " fill-opacity="1" fill-rule="nonzero"/></svg>