<svg xmlns="http://www.w3.org/2000/svg" xmlns:xlink="http://www.w3.org/1999/xlink" width="500" zoomAndPan="magnify" viewBox="0 0 375 374.999991" height="500" preserveAspectRatio="xMidYMid meet" version="1.0"><defs><clipPath id="id1"><path d="M 58 108 L 282.65625 108 L 282.65625 223 L 58 223 Z M 58 108 " clip-rule="nonzero"/></clipPath></defs><g clip-path="url(#id1)"><path fill="rgb(0%, 0%, 0%)" d="M 163.664062 164.503906 C 163.710938 168.117188 163.726562 171.742188 164.730469 175.230469 C 165.210938 176.914062 165.949219 178.5625 166.820312 180.082031 C 167.679688 181.578125 168.839844 181.742188 170.191406 180.640625 C 171.085938 179.910156 171.929688 178.992188 172.476562 177.984375 C 175.339844 172.722656 175.90625 167.195312 174.027344 161.46875 C 173.5 159.863281 172.644531 158.445312 171.386719 157.285156 C 170.355469 156.335938 169.136719 155.839844 167.75 155.761719 C 165.601562 155.644531 164.144531 156.863281 163.953125 159.03125 C 163.792969 160.847656 163.753906 162.679688 163.664062 164.503906 Z M 249.023438 150.679688 C 250.363281 150.886719 251.515625 151.070312 252.667969 151.242188 C 252.929688 151.28125 253.203125 151.296875 253.46875 151.277344 C 257.953125 150.976562 261.722656 149.285156 264.1875 145.378906 C 266.707031 141.386719 268.035156 136.992188 267.988281 132.238281 C 267.984375 131.445312 267.832031 130.621094 267.570312 129.871094 C 266.929688 128.03125 265.515625 127.269531 263.636719 127.726562 C 262.859375 127.914062 262.058594 128.171875 261.398438 128.601562 C 259.964844 129.53125 258.511719 130.480469 257.246094 131.625 C 254.289062 134.308594 252.28125 137.667969 250.839844 141.375 C 250.3125 142.730469 249.960938 144.183594 249.230469 145.410156 C 248.546875 146.550781 248.550781 147.625 248.734375 148.804688 C 248.828125 149.4375 248.929688 150.066406 249.023438 150.679688 Z M 242.753906 155.445312 C 242.449219 156.523438 242.128906 157.597656 241.839844 158.679688 C 240.4375 163.9375 239.105469 169.214844 237.617188 174.445312 C 237.078125 176.347656 236.371094 178.257812 235.394531 179.964844 C 232.816406 184.492188 228.445312 184.609375 225.480469 180.347656 C 223.839844 177.988281 223.109375 175.304688 222.773438 172.484375 C 222.351562 168.914062 222.589844 165.363281 223.28125 161.863281 C 224.269531 156.84375 225.433594 151.859375 226.480469 146.847656 C 227.054688 144.097656 227.429688 141.3125 226.972656 138.503906 C 226.800781 137.457031 226.484375 136.402344 226.046875 135.433594 C 225.566406 134.359375 224.90625 134.125 223.792969 134.523438 C 223.042969 134.792969 222.316406 135.1875 221.65625 135.636719 C 219.464844 137.117188 217.910156 139.164062 216.644531 141.453125 C 214.335938 145.613281 213.175781 150.132812 212.449219 154.796875 C 211.574219 160.382812 211.875 165.976562 212.300781 171.570312 C 212.378906 172.648438 212.507812 173.71875 212.574219 174.792969 C 212.652344 176.140625 212.230469 177.269531 210.925781 177.847656 C 209.632812 178.421875 208.527344 177.992188 207.546875 177.054688 C 206.507812 176.0625 205.78125 174.863281 205.351562 173.519531 C 204.246094 170.085938 203.152344 166.648438 202.175781 163.175781 C 201.402344 160.429688 200.8125 157.628906 200.136719 154.859375 C 200.035156 154.445312 199.917969 154.039062 199.566406 153.621094 C 199.457031 154.328125 199.328125 155.035156 199.238281 155.746094 C 198.285156 163.253906 198.175781 170.792969 198.203125 178.34375 C 198.214844 181.351562 197.933594 184.367188 197.585938 187.355469 C 197.433594 188.660156 196.90625 189.96875 196.320312 191.164062 C 195.835938 192.15625 195.128906 193.101562 194.328125 193.871094 C 191.90625 196.210938 188.75 196.277344 186.15625 194.136719 C 184.503906 192.773438 183.359375 191.011719 182.421875 189.117188 C 181.074219 186.394531 180.230469 183.503906 179.539062 180.558594 C 179.382812 179.890625 179.226562 179.222656 179 178.261719 C 178.65625 178.816406 178.464844 179.152344 178.246094 179.476562 C 177.230469 180.988281 176.320312 182.59375 175.144531 183.96875 C 174.363281 184.882812 173.273438 185.609375 172.195312 186.171875 C 168.699219 187.992188 165.144531 187.210938 162.632812 184.175781 C 161.128906 182.359375 160.214844 180.242188 159.496094 178.023438 C 159.339844 177.539062 159.152344 177.0625 158.671875 176.585938 C 158.527344 177.238281 158.378906 177.894531 158.234375 178.546875 C 156.449219 186.65625 155.230469 194.863281 154.027344 203.074219 C 153.808594 204.5625 153.445312 206.035156 153.070312 207.492188 C 152.886719 208.214844 152.582031 208.929688 152.21875 209.578125 C 150.597656 212.5 147.523438 212.933594 145.28125 210.480469 C 144.390625 209.503906 143.679688 208.316406 143.070312 207.125 C 141.566406 204.175781 140.757812 200.988281 140.148438 197.746094 C 139.097656 192.132812 139.203125 186.488281 139.640625 180.828125 C 139.882812 177.714844 140.125 174.59375 140.226562 171.472656 C 140.304688 168.972656 140.050781 168.167969 139.304688 166.757812 C 138.519531 166.554688 138.011719 167.113281 137.492188 167.535156 C 135.40625 169.222656 133.878906 171.363281 132.695312 173.753906 C 130.722656 177.753906 129.566406 182.015625 128.890625 186.398438 C 127.753906 193.769531 127.28125 201.179688 127.933594 208.636719 C 128.046875 209.921875 127.714844 210.972656 126.597656 211.714844 C 126.332031 211.890625 126.09375 212.113281 125.851562 212.324219 C 124.222656 213.761719 122.261719 213.726562 120.933594 212.003906 C 120.164062 211.007812 119.554688 209.785156 119.234375 208.566406 C 118.355469 205.238281 117.472656 201.886719 116.945312 198.492188 C 116.144531 193.332031 115.644531 188.125 115.015625 182.9375 C 114.976562 182.636719 114.9375 182.339844 114.65625 181.972656 C 114.445312 182.496094 114.207031 183.011719 114.015625 183.542969 C 111.011719 192.042969 108.710938 200.722656 107.195312 209.621094 C 106.78125 212.050781 106.058594 214.441406 105.265625 216.78125 C 104.84375 218.027344 104.117188 219.238281 103.277344 220.261719 C 101.152344 222.835938 97.960938 222.933594 95.699219 220.488281 C 94.726562 219.441406 93.9375 218.171875 93.269531 216.898438 C 91.316406 213.179688 90.359375 209.148438 89.792969 205.011719 C 87.929688 191.355469 88.675781 177.808594 91.554688 164.355469 C 91.898438 162.734375 92.210938 161.105469 92.570312 159.328125 C 92.191406 159.398438 91.988281 159.398438 91.820312 159.476562 C 84.269531 163.054688 76.96875 167.070312 70.222656 172.035156 C 69.097656 172.863281 68.019531 173.757812 66.941406 174.65625 C 66.035156 175.410156 65.21875 176.195312 64.777344 177.390625 C 64.296875 178.6875 62.269531 179.6875 60.902344 179.5625 C 59.046875 179.394531 57.792969 177.628906 58.367188 175.851562 C 58.59375 175.15625 59.003906 174.457031 59.503906 173.933594 C 60.957031 172.421875 62.4375 170.921875 64.019531 169.550781 C 71.878906 162.722656 80.730469 157.425781 90.015625 152.816406 C 98.855469 148.425781 107.960938 144.71875 117.5625 142.34375 C 118.90625 142.011719 120.3125 141.851562 121.699219 141.792969 C 122.410156 141.757812 123.203125 141.996094 123.851562 142.328125 C 125.335938 143.089844 125.953125 144.808594 125.414062 146.328125 C 124.875 147.84375 123.542969 148.597656 121.84375 148.445312 C 121.113281 148.382812 120.347656 148.414062 119.621094 148.539062 C 115.566406 149.257812 111.800781 150.871094 108.011719 152.402344 C 105.566406 153.386719 103.144531 154.429688 100.699219 155.414062 C 99.90625 155.738281 99.351562 156.128906 99.15625 157.066406 C 98.222656 161.546875 97.082031 165.988281 96.277344 170.488281 C 94.386719 181.058594 94.082031 191.699219 95.285156 202.375 C 95.734375 206.351562 96.453125 210.269531 98.210938 213.914062 C 98.445312 214.398438 98.710938 214.867188 98.984375 215.328125 C 99.058594 215.453125 99.21875 215.523438 99.53125 215.769531 C 99.957031 214.519531 100.46875 213.386719 100.726562 212.203125 C 101.441406 208.886719 102.085938 205.554688 102.699219 202.21875 C 104.308594 193.460938 106.34375 184.816406 109.492188 176.46875 C 110.003906 175.109375 110.519531 173.726562 111.246094 172.480469 C 111.914062 171.339844 112.785156 170.285156 113.734375 169.363281 C 114.265625 168.84375 114.445312 168.378906 114.457031 167.699219 C 114.5 165.328125 114.554688 162.957031 114.652344 160.589844 C 114.679688 159.839844 114.777344 159.078125 114.960938 158.355469 C 115.382812 156.695312 116.621094 155.804688 118.132812 155.984375 C 119.617188 156.164062 120.574219 157.363281 120.527344 159.105469 C 120.496094 160.34375 120.308594 161.578125 120.289062 162.816406 C 120.128906 172.3125 120.488281 181.785156 121.753906 191.207031 C 121.808594 191.605469 121.957031 191.992188 122.246094 192.355469 C 122.507812 190.304688 122.738281 188.242188 123.046875 186.195312 C 123.730469 181.703125 124.839844 177.324219 126.609375 173.128906 C 128.046875 169.71875 129.9375 166.589844 132.6875 164.078125 C 133.75 163.109375 134.929688 162.199219 136.203125 161.546875 C 139.777344 159.722656 143.328125 161.007812 144.8125 164.746094 C 145.457031 166.363281 145.886719 168.183594 145.90625 169.917969 C 145.945312 173.410156 145.726562 176.917969 145.449219 180.402344 C 145.003906 186.117188 144.765625 191.816406 145.976562 197.46875 C 146.328125 199.101562 146.820312 200.699219 147.28125 202.304688 C 147.390625 202.695312 147.621094 203.054688 147.941406 203.742188 C 148.34375 202.613281 148.417969 201.734375 148.546875 200.871094 C 149.945312 191.65625 151.238281 182.421875 152.789062 173.234375 C 153.609375 168.351562 154.859375 163.546875 155.960938 158.714844 C 156.175781 157.777344 156.542969 156.863281 156.953125 155.988281 C 157.515625 154.78125 158.382812 153.851562 159.699219 153.40625 C 160.042969 153.292969 160.417969 153.113281 160.65625 152.855469 C 163.539062 149.707031 167.085938 149.484375 170.898438 150.5 C 173.21875 151.117188 175.019531 152.554688 176.554688 154.34375 C 176.785156 154.617188 176.945312 154.957031 177.136719 155.265625 C 177.257812 155.191406 177.378906 155.113281 177.5 155.039062 C 177.523438 154.582031 177.578125 154.121094 177.5625 153.664062 C 177.46875 150.972656 177.359375 148.277344 177.253906 145.585938 C 177.246094 145.371094 177.214844 145.15625 177.210938 144.941406 C 177.195312 143.308594 178.085938 142.117188 179.496094 141.867188 C 180.875 141.628906 182.238281 142.46875 182.710938 143.972656 C 182.949219 144.734375 183.078125 145.558594 183.097656 146.355469 C 183.207031 150.988281 183.320312 155.621094 183.339844 160.257812 C 183.359375 165.875 183.652344 171.464844 184.695312 176.992188 C 185.273438 180.070312 186.019531 183.105469 187.320312 185.96875 C 187.964844 187.386719 188.667969 188.78125 190.011719 189.738281 C 190.988281 189.410156 191.351562 188.570312 191.519531 187.765625 C 191.90625 185.929688 192.296875 184.066406 192.390625 182.199219 C 192.527344 179.351562 192.457031 176.488281 192.398438 173.632812 C 192.261719 167.164062 192.199219 160.699219 192.769531 154.242188 C 193.121094 150.265625 193.550781 146.296875 194.703125 142.460938 C 195.011719 141.4375 195.472656 140.449219 195.992188 139.515625 C 196.527344 138.554688 197.367188 137.863281 198.421875 137.480469 C 199.890625 136.945312 200.996094 137.363281 201.941406 138.59375 C 203.035156 140.019531 203.417969 141.652344 203.734375 143.367188 C 204.421875 147.074219 205.210938 150.761719 205.964844 154.457031 C 206.023438 154.742188 206.148438 155.011719 206.46875 155.273438 C 206.738281 153.765625 206.980469 152.253906 207.289062 150.753906 C 208.152344 146.511719 209.449219 142.414062 211.574219 138.613281 C 213.332031 135.464844 215.523438 132.671875 218.59375 130.730469 C 219.890625 129.914062 221.347656 129.230469 222.824219 128.828125 C 226.117188 127.929688 229.050781 129.214844 230.851562 132.128906 C 232.070312 134.097656 232.597656 136.292969 232.804688 138.570312 C 233.167969 142.539062 232.511719 146.410156 231.667969 150.265625 C 230.667969 154.84375 229.65625 159.421875 228.78125 164.023438 C 228.246094 166.835938 228.113281 169.699219 228.601562 172.550781 C 228.875 174.136719 229.1875 175.71875 230.484375 177.214844 C 230.984375 175.949219 231.53125 174.894531 231.8125 173.773438 C 232.625 170.535156 233.335938 167.273438 234.074219 164.015625 C 234.953125 160.128906 235.789062 156.230469 236.703125 152.351562 C 236.960938 151.257812 237.347656 150.175781 237.820312 149.15625 C 238.625 147.410156 239.894531 146.15625 242.109375 145.839844 C 241.054688 135.78125 240.335938 125.699219 238.523438 115.671875 C 238.265625 115.707031 238.046875 115.6875 237.875 115.769531 C 233.058594 117.945312 228.019531 119.492188 223.011719 121.128906 C 220.40625 121.980469 217.84375 122.964844 215.292969 123.96875 C 212.167969 125.195312 209.808594 127.316406 208.253906 130.316406 C 207.984375 130.839844 207.675781 131.363281 207.296875 131.804688 C 206.496094 132.742188 205.292969 133.027344 204.222656 132.625 C 203.089844 132.195312 202.3125 131.101562 202.460938 129.828125 C 202.550781 129.050781 202.847656 128.261719 203.210938 127.558594 C 205.269531 123.585938 208.335938 120.625 212.460938 118.917969 C 215.6875 117.578125 218.972656 116.375 222.292969 115.296875 C 227.722656 113.535156 233.128906 111.753906 238.246094 109.191406 C 238.765625 108.933594 239.363281 108.757812 239.933594 108.699219 C 241.277344 108.5625 242.332031 109.371094 242.792969 110.585938 C 243.652344 112.828125 244.488281 115.054688 244.714844 117.484375 C 244.933594 119.84375 245.378906 122.179688 245.699219 124.527344 C 246.164062 128 246.605469 131.46875 247.070312 135.023438 C 247.742188 134.875 247.84375 134.289062 248.09375 133.875 C 250.328125 130.1875 253.132812 127.027344 256.734375 124.625 C 258.675781 123.332031 260.742188 122.324219 263.074219 121.941406 C 266.972656 121.300781 270.550781 123.042969 272.402344 126.53125 C 273.304688 128.226562 273.757812 130.054688 273.773438 131.964844 C 273.828125 138.003906 272.203125 143.59375 268.941406 148.644531 C 266.554688 152.335938 263.230469 154.910156 258.949219 156.121094 C 258.640625 156.210938 258.339844 156.328125 257.914062 156.46875 C 258.078125 156.835938 258.191406 157.167969 258.367188 157.460938 C 259.332031 159.078125 260.296875 160.699219 261.304688 162.292969 C 262.398438 164.039062 263.6875 165.621094 265.375 166.839844 C 268.261719 168.921875 270.972656 168.730469 273.503906 166.222656 C 274.925781 164.816406 276.175781 163.265625 276.960938 161.390625 C 277.023438 161.242188 277.085938 161.09375 277.164062 160.953125 C 277.863281 159.710938 279.042969 159.105469 280.230469 159.386719 C 281.542969 159.691406 282.535156 160.945312 282.429688 162.390625 C 282.375 163.175781 282.140625 164 281.777344 164.695312 C 280.339844 167.449219 278.457031 169.890625 275.941406 171.71875 C 272.171875 174.464844 268.125 174.824219 263.929688 172.710938 C 261.375 171.421875 259.351562 169.492188 257.695312 167.195312 C 256.628906 165.710938 255.742188 164.101562 254.726562 162.578125 C 253.683594 161.011719 252.613281 159.457031 251.492188 157.949219 C 251.179688 157.535156 250.625 157.300781 249.898438 156.785156 C 249.949219 157.65625 249.949219 158.132812 250.011719 158.597656 C 250.675781 163.566406 251.371094 168.527344 252 173.5 C 252.113281 174.390625 252.09375 175.339844 251.914062 176.21875 C 251.648438 177.527344 250.785156 178.425781 249.429688 178.679688 C 248.019531 178.941406 246.796875 178.445312 246.09375 177.234375 C 245.570312 176.332031 245.207031 175.257812 245.082031 174.21875 C 244.574219 170.101562 244.1875 165.96875 243.765625 161.839844 C 243.546875 159.703125 243.339844 157.5625 243.128906 155.421875 C 243.003906 155.429688 242.878906 155.4375 242.753906 155.445312 " fill-opacity="1" fill-rule="nonzero"/></g><path fill="rgb(0%, 0%, 0%)" d="M 185.082031 208.363281 C 185.421875 209.585938 186.394531 210.085938 187.476562 210.457031 C 189.003906 210.988281 190.902344 210.875 192.003906 210.210938 C 189.960938 208.300781 186.707031 207.40625 185.082031 208.363281 Z M 183.28125 214.917969 C 183.464844 217.574219 185.042969 221.425781 186.816406 223.601562 C 187.289062 224.179688 187.820312 224.738281 188.402344 225.195312 C 190.613281 226.929688 193.09375 226.613281 194.726562 224.335938 C 196.367188 222.046875 196.921875 219.460938 196.453125 216.675781 C 196.386719 216.277344 196.195312 215.898438 196.023438 215.402344 C 191.679688 216.800781 187.441406 217.265625 183.28125 214.917969 Z M 174.742188 275.253906 C 176.089844 273.992188 176.160156 272.613281 176.289062 271.300781 C 176.578125 268.277344 176.316406 265.273438 175.816406 262.285156 C 174.492188 254.382812 172.0625 246.800781 169.171875 239.355469 C 169.058594 239.0625 168.898438 238.78125 168.695312 238.359375 C 168.46875 238.734375 168.273438 238.980469 168.15625 239.261719 C 167.425781 241.058594 166.667969 242.84375 166 244.660156 C 164.390625 249.050781 163.957031 253.558594 164.671875 258.1875 C 165.550781 263.890625 167.832031 268.910156 171.929688 273.019531 C 172.746094 273.839844 173.75 274.472656 174.742188 275.253906 Z M 206.855469 206.921875 C 205.03125 208.917969 203.273438 210.839844 201.421875 212.863281 C 201.5 213.128906 201.613281 213.539062 201.730469 213.949219 C 203.019531 218.441406 202.433594 222.730469 200.074219 226.71875 C 196.402344 232.925781 189.101562 233.890625 183.871094 228.929688 C 181.386719 226.578125 179.84375 223.636719 178.667969 220.476562 C 178.464844 219.933594 178.269531 219.390625 177.984375 218.621094 C 177.691406 219.035156 177.484375 219.253906 177.363281 219.507812 C 175.707031 222.957031 174.089844 226.425781 172.390625 229.847656 C 171.9375 230.753906 172.152344 231.476562 172.511719 232.289062 C 175.414062 238.851562 177.835938 245.589844 179.679688 252.527344 C 180.964844 257.378906 182.082031 262.273438 182.15625 267.316406 C 182.191406 269.621094 182.125 271.984375 181.652344 274.226562 C 180.21875 281.046875 174.753906 282.9375 169.386719 278.503906 C 165.132812 274.992188 162.253906 270.46875 160.496094 265.253906 C 157.90625 257.589844 157.824219 249.902344 160.738281 242.296875 C 162.011719 238.980469 163.414062 235.710938 164.878906 232.472656 C 165.417969 231.285156 165.417969 230.316406 164.890625 229.132812 C 163.332031 225.644531 161.902344 222.101562 160.339844 218.390625 C 160.054688 218.855469 159.8125 219.171875 159.648438 219.527344 C 158.203125 222.652344 156.785156 225.796875 155.324219 228.917969 C 154.734375 230.183594 154.136719 231.464844 153.390625 232.640625 C 152.789062 233.582031 152.042969 234.46875 151.210938 235.214844 C 148.78125 237.390625 145.84375 237.679688 142.996094 236.097656 C 140.683594 234.8125 138.804688 233.007812 137.535156 230.71875 C 136.441406 228.753906 135.480469 226.675781 134.789062 224.542969 C 133.34375 220.066406 132.550781 215.445312 132.320312 210.738281 C 132.289062 210.09375 132.277344 209.4375 132.386719 208.804688 C 132.601562 207.558594 133.601562 206.667969 134.796875 206.535156 C 135.996094 206.402344 137.15625 207.039062 137.625 208.238281 C 137.871094 208.875 137.972656 209.59375 138.023438 210.28125 C 138.316406 214.4375 138.921875 218.542969 140.199219 222.507812 C 140.804688 224.386719 141.636719 226.226562 142.632812 227.929688 C 143.261719 229.007812 144.300781 229.894531 145.292969 230.695312 C 146.363281 231.566406 147.027344 231.445312 147.910156 230.363281 C 148.484375 229.660156 149.003906 228.875 149.359375 228.042969 C 151.785156 222.40625 154.183594 216.757812 156.527344 211.082031 C 157.070312 209.761719 157.660156 208.535156 158.789062 207.617188 C 160.808594 205.972656 163.148438 206.785156 163.671875 209.320312 C 164.6875 214.207031 166.769531 218.707031 168.765625 223.613281 C 169.125 222.964844 169.371094 222.59375 169.550781 222.191406 C 171.171875 218.550781 172.792969 214.910156 174.398438 211.261719 C 175.035156 209.804688 175.933594 208.550781 177.117188 207.496094 C 177.359375 207.28125 177.59375 206.933594 177.863281 206.902344 C 179.351562 206.722656 179.84375 205.519531 180.609375 204.503906 C 182.195312 202.40625 184.503906 201.929688 186.972656 202.125 C 190.636719 202.417969 193.816406 203.886719 196.566406 206.304688 C 197.046875 206.730469 197.511719 207.175781 198.160156 207.773438 C 198.851562 207.109375 199.59375 206.511719 200.191406 205.792969 C 203.125 202.261719 204.882812 198.21875 205.3125 193.625 C 205.363281 193.085938 205.382812 192.542969 205.496094 192.019531 C 205.835938 190.441406 206.988281 189.433594 208.378906 189.441406 C 209.722656 189.449219 210.859375 190.371094 211.210938 191.875 C 211.402344 192.703125 211.464844 193.578125 211.496094 194.433594 C 211.621094 198.046875 211.722656 201.664062 212.496094 205.207031 C 212.898438 207.039062 213.460938 208.847656 214.070312 210.625 C 214.304688 211.304688 214.800781 211.945312 215.316406 212.472656 C 215.945312 213.117188 216.582031 213.046875 217.066406 212.289062 C 217.464844 211.667969 217.757812 210.949219 217.96875 210.234375 C 218.808594 207.367188 219.082031 204.417969 219.132812 201.445312 C 219.179688 198.699219 219.097656 195.949219 219.152344 193.199219 C 219.179688 191.914062 219.300781 190.613281 219.5625 189.359375 C 219.867188 187.898438 220.773438 186.820312 222.28125 186.453125 C 223.902344 186.0625 225.289062 186.589844 226.3125 187.863281 C 226.878906 188.566406 227.332031 189.386719 227.71875 190.207031 C 228.78125 192.445312 229.707031 194.75 230.828125 196.953125 C 231.703125 198.675781 232.671875 200.375 233.8125 201.929688 C 235.664062 204.449219 238.207031 205.625 241.394531 205.292969 C 243.222656 205.101562 245.023438 204.855469 246.722656 204.101562 C 247.011719 203.972656 247.328125 203.875 247.640625 203.8125 C 248.808594 203.578125 249.796875 203.921875 250.46875 204.90625 C 251.136719 205.886719 251.195312 207.027344 250.484375 207.9375 C 249.917969 208.664062 249.105469 209.351562 248.253906 209.683594 C 245 210.957031 241.578125 211.414062 238.113281 210.949219 C 234.714844 210.496094 231.90625 208.765625 229.796875 206.113281 C 228.367188 204.316406 227.257812 202.257812 226.019531 200.308594 C 225.746094 199.875 225.515625 199.40625 224.996094 199.003906 C 224.964844 199.511719 224.910156 200.011719 224.90625 200.519531 C 224.863281 204.03125 224.667969 207.53125 223.734375 210.933594 C 223.328125 212.425781 222.8125 213.949219 222.027344 215.265625 C 219.574219 219.359375 214.539062 219.894531 211.140625 216.539062 C 209.523438 214.941406 208.613281 212.9375 207.941406 210.8125 C 207.546875 209.542969 207.226562 208.25 206.855469 206.921875 " fill-opacity="1" fill-rule="nonzero"/><path fill="rgb(0%, 0%, 0%)" d="M 159.414062 138.574219 C 160.085938 137.914062 160.804688 137.28125 161.445312 136.574219 C 165.410156 132.171875 169.359375 127.757812 173.308594 123.34375 C 174.421875 122.101562 175.546875 120.867188 176.628906 119.597656 C 179.054688 116.753906 181.175781 113.691406 182.585938 110.222656 C 183.351562 108.34375 183.972656 106.351562 184.28125 104.351562 C 184.734375 101.457031 182.855469 99.492188 179.921875 99.398438 C 178.4375 99.347656 177.046875 99.726562 175.707031 100.332031 C 172.394531 101.820312 169.820312 104.167969 168.261719 107.433594 C 166.921875 110.242188 165.898438 113.203125 164.726562 116.097656 C 164.261719 117.242188 163.855469 118.425781 163.261719 119.5 C 162.542969 120.804688 161.402344 121.585938 159.828125 121.492188 C 158.246094 121.394531 157.25 120.449219 156.675781 119.082031 C 156.238281 118.042969 155.949219 116.941406 155.640625 115.855469 C 154.773438 112.796875 154.019531 109.707031 153.046875 106.683594 C 152.488281 104.953125 151.671875 103.292969 150.8125 101.6875 C 150.179688 100.5 149.3125 99.195312 147.808594 99.296875 C 146.203125 99.402344 145.671875 100.949219 145.117188 102.222656 C 144.304688 104.09375 144.179688 106.085938 144.242188 108.09375 C 144.332031 111.136719 145.046875 114.0625 145.925781 116.960938 C 147.859375 123.3125 150.855469 129.128906 154.75 134.484375 C 155.957031 136.148438 157.296875 137.6875 159.414062 138.574219 Z M 160.375 110.761719 C 160.703125 110.003906 160.894531 109.519531 161.125 109.054688 C 162.097656 107.078125 162.917969 105.003906 164.089844 103.148438 C 167.21875 98.191406 171.621094 94.898438 177.449219 93.839844 C 178.996094 93.558594 180.695312 93.609375 182.234375 93.925781 C 187.550781 95.019531 190.714844 99.636719 190.054688 105.042969 C 189.714844 107.796875 188.875 110.398438 187.734375 112.914062 C 186.027344 116.664062 183.792969 120.082031 181.125 123.210938 C 179.941406 124.605469 178.710938 125.964844 177.488281 127.324219 C 173.542969 131.738281 169.613281 136.171875 165.621094 140.539062 C 164.578125 141.679688 163.363281 142.6875 162.144531 143.644531 C 161.164062 144.414062 160.050781 144.339844 158.792969 144.140625 C 154.746094 143.507812 152.25 140.851562 150.039062 137.808594 C 144.621094 130.347656 140.8125 122.148438 139.023438 113.066406 C 138.289062 109.332031 138.144531 105.578125 139.15625 101.851562 C 139.699219 99.855469 140.566406 98.011719 141.898438 96.414062 C 144.832031 92.90625 149.199219 92.445312 152.804688 95.253906 C 154.453125 96.539062 155.605469 98.214844 156.554688 100.050781 C 158.027344 102.886719 158.949219 105.929688 159.824219 108.984375 C 159.964844 109.480469 160.128906 109.96875 160.375 110.761719 " fill-opacity="1" fill-rule="nonzero"/><path fill="rgb(0%, 0%, 0%)" d="M 238.324219 222.269531 C 238.59375 222.292969 238.863281 222.292969 239.128906 222.339844 C 240.328125 222.542969 241.25 223.128906 241.648438 224.328125 C 242.050781 225.542969 241.667969 226.65625 240.726562 227.382812 C 239.855469 228.054688 238.808594 228.558594 237.761719 228.921875 C 233.339844 230.449219 228.867188 231.824219 224.460938 233.394531 C 215.746094 236.5 207.101562 239.789062 198.863281 244.042969 C 197.621094 244.6875 196.359375 245.304688 195.167969 246.03125 C 194.652344 246.347656 194.1875 246.84375 193.871094 247.363281 C 192.871094 249.011719 191.121094 249.515625 189.449219 248.546875 C 187.761719 247.566406 187.195312 245.523438 188.304688 243.96875 C 188.789062 243.289062 189.480469 242.6875 190.199219 242.257812 C 192.089844 241.121094 194.003906 240.015625 195.980469 239.042969 C 208.050781 233.082031 220.453125 227.917969 233.167969 223.503906 C 234.835938 222.929688 236.570312 222.550781 238.269531 222.082031 C 238.289062 222.144531 238.308594 222.207031 238.324219 222.269531 " fill-opacity="1" fill-rule="nonzero"/></svg>