<svg xmlns="http://www.w3.org/2000/svg" xmlns:xlink="http://www.w3.org/1999/xlink" width="200" zoomAndPan="magnify" viewBox="0 0 150 149.999998" height="200" preserveAspectRatio="xMidYMid meet" version="1.0"><path fill="rgb(100%, 100%, 100%)" d="M 26.570312 0.164062 C 25.460938 0.238281 24.445312 0.355469 24.308594 0.453125 C 24.175781 0.527344 23.523438 0.683594 22.875 0.757812 C 20.421875 1.125 18.027344 2.144531 15.84375 3.777344 C 15.15625 4.277344 14.234375 4.949219 13.792969 5.238281 C 13.007812 5.792969 12.722656 6.253906 12.492188 7.445312 C 12.414062 7.792969 11.859375 8.714844 11.226562 9.484375 C 10.195312 10.792969 9.945312 10.964844 7.933594 11.984375 C 6.746094 12.578125 5.636719 13.058594 5.460938 13.058594 C 5.308594 13.058594 5.058594 13.195312 4.925781 13.347656 C 4.792969 13.5 4.351562 13.730469 3.910156 13.847656 C 3.488281 13.960938 2.820312 14.25 2.417969 14.519531 C 2.015625 14.769531 1.554688 14.980469 1.402344 14.980469 C 1.269531 14.980469 0.941406 15.132812 0.691406 15.347656 C 0.136719 15.789062 0.0976562 16.808594 0.617188 18.152344 C 0.808594 18.671875 1.152344 19.613281 1.363281 20.207031 C 1.59375 20.824219 1.898438 21.363281 2.054688 21.4375 C 3.527344 22.074219 7.492188 22.34375 9.984375 21.996094 C 11.054688 21.84375 12.03125 21.707031 12.167969 21.707031 C 12.53125 21.707031 12.433594 22.054688 11.996094 22.4375 C 11.765625 22.609375 11.476562 22.878906 11.34375 22.996094 C 11.191406 23.128906 11 23.246094 10.902344 23.246094 C 10.558594 23.246094 8.46875 25.011719 8.222656 25.511719 C 8.066406 25.800781 7.628906 26.261719 7.207031 26.550781 C 6.726562 26.898438 6.457031 27.242188 6.457031 27.492188 C 6.457031 27.859375 6.535156 27.894531 7.128906 27.800781 C 7.722656 27.703125 7.800781 27.742188 7.800781 28.125 C 7.800781 29.53125 9.753906 30.835938 11.820312 30.816406 C 12.972656 30.816406 13.238281 30.722656 15.460938 29.550781 C 18.929688 27.722656 21.339844 26.914062 21.6875 27.472656 C 21.878906 27.761719 23.046875 27.703125 23.3125 27.378906 C 23.640625 26.992188 23.753906 27.011719 24.367188 27.589844 C 24.886719 28.070312 25 28.089844 26.128906 27.972656 L 27.355469 27.839844 L 28.449219 28.820312 C 29.042969 29.335938 29.597656 29.78125 29.671875 29.78125 C 29.75 29.78125 30 30.144531 30.230469 30.585938 C 30.457031 31.046875 30.765625 31.488281 30.878906 31.605469 C 31.015625 31.703125 31.1875 32.105469 31.246094 32.46875 C 31.664062 34.738281 31.703125 35.238281 31.53125 35.71875 C 31.28125 36.371094 30.59375 39.621094 30.457031 40.792969 C 30.265625 42.40625 30.707031 43.945312 31.761719 45.386719 C 32.257812 46.097656 32.871094 47.039062 33.082031 47.480469 C 33.3125 47.902344 33.847656 48.769531 34.289062 49.382812 C 35.417969 50.976562 36.53125 52.957031 36.53125 53.378906 C 36.53125 54.054688 35.765625 55.515625 35.035156 56.261719 C 33.984375 57.320312 32.527344 58.550781 32.164062 58.703125 C 31.992188 58.761719 31.492188 59.089844 31.070312 59.394531 C 30.648438 59.722656 29.539062 60.414062 28.582031 60.953125 C 27.644531 61.492188 26.820312 61.972656 26.761719 62.046875 C 26.703125 62.105469 26.417969 62.296875 26.109375 62.453125 C 25.324219 62.855469 24.117188 64.296875 23.523438 65.527344 C 23.085938 66.488281 23.027344 66.777344 23.046875 68.890625 C 23.046875 70.832031 23.105469 71.292969 23.429688 71.773438 C 24.003906 72.714844 25.496094 74.558594 25.652344 74.558594 C 25.746094 74.558594 25.804688 74.675781 25.804688 74.828125 C 25.804688 74.984375 25.882812 75.136719 25.957031 75.175781 C 26.285156 75.308594 27.433594 77.441406 27.835938 78.632812 C 27.910156 78.828125 28.027344 78.980469 28.101562 78.980469 C 28.160156 78.980469 28.675781 79.382812 29.214844 79.882812 C 30.457031 81.074219 31.128906 81.574219 31.992188 81.976562 C 32.375 82.171875 32.699219 82.382812 32.699219 82.476562 C 32.699219 82.554688 32.910156 82.632812 33.160156 82.632812 C 33.425781 82.632812 33.964844 82.824219 34.367188 83.074219 C 35 83.4375 35.417969 83.496094 37.488281 83.554688 C 39.25 83.613281 39.976562 83.554688 40.226562 83.363281 C 40.609375 83.074219 40.972656 81.191406 40.746094 80.710938 C 40.554688 80.363281 39.902344 78.558594 39.652344 77.730469 C 39.519531 77.230469 39.382812 77.15625 38.773438 77.097656 C 38.386719 77.058594 38.0625 76.960938 38.0625 76.867188 C 38.0625 76.597656 36.53125 75.945312 36.148438 76.039062 C 35.898438 76.117188 35.765625 76.039062 35.765625 75.867188 C 35.765625 75.464844 34.652344 74.195312 34.003906 73.867188 C 33.714844 73.714844 33.464844 73.445312 33.464844 73.253906 C 33.464844 72.714844 32.527344 71.484375 32.125 71.484375 C 31.894531 71.484375 31.703125 71.3125 31.628906 71.023438 C 31.4375 70.273438 31.609375 69.890625 32.203125 69.734375 C 32.507812 69.640625 32.988281 69.351562 33.273438 69.082031 C 33.945312 68.429688 35.152344 67.832031 35.785156 67.832031 C 36.070312 67.832031 36.339844 67.757812 36.378906 67.679688 C 36.414062 67.601562 37.125 67.332031 37.96875 67.082031 C 39.671875 66.601562 41.242188 66.046875 44.058594 64.929688 C 45.074219 64.507812 46.144531 64.183594 46.394531 64.183594 C 46.664062 64.183594 46.875 64.125 46.875 64.027344 C 46.875 63.949219 47.390625 63.644531 48.042969 63.335938 C 48.675781 63.027344 49.25 62.664062 49.304688 62.527344 C 49.441406 62.183594 49.9375 62.183594 49.9375 62.527344 C 49.9375 62.933594 49.554688 63.988281 48.886719 65.429688 C 48.539062 66.160156 48.195312 66.988281 48.117188 67.257812 C 48.042969 67.507812 47.851562 67.832031 47.714844 67.988281 C 47.5625 68.121094 47.449219 68.390625 47.449219 68.582031 C 47.449219 68.753906 47.371094 68.988281 47.277344 69.082031 C 47.199219 69.199219 46.796875 70.023438 46.414062 70.925781 C 45.820312 72.351562 45.726562 72.792969 45.726562 74.042969 C 45.726562 75.195312 45.820312 75.65625 46.144531 76.230469 C 46.375 76.636719 46.664062 77.019531 46.777344 77.097656 C 46.894531 77.171875 47.238281 77.617188 47.542969 78.097656 C 47.832031 78.558594 48.253906 78.980469 48.484375 79.039062 C 48.710938 79.09375 49.402344 79.34375 50.035156 79.613281 C 50.878906 79.960938 51.71875 80.132812 53.15625 80.230469 C 54.230469 80.304688 55.109375 80.441406 55.109375 80.519531 C 55.109375 80.59375 55.648438 80.710938 56.316406 80.769531 C 56.96875 80.804688 58.347656 81.035156 59.402344 81.265625 C 60.433594 81.496094 61.949219 81.730469 62.753906 81.765625 C 63.558594 81.804688 64.457031 81.921875 64.746094 82.035156 C 65.050781 82.152344 65.492188 82.246094 65.761719 82.246094 C 66.007812 82.246094 66.21875 82.324219 66.21875 82.441406 C 66.21875 82.554688 67.101562 82.632812 68.480469 82.632812 L 70.722656 82.613281 L 71.066406 81.882812 C 71.507812 80.921875 71.488281 79.421875 70.988281 78.117188 C 70.53125 76.867188 69.570312 75.714844 68.996094 75.714844 C 68.785156 75.714844 68.382812 75.597656 68.117188 75.445312 C 67.828125 75.308594 67.367188 75.195312 67.0625 75.175781 C 66.773438 75.175781 66.488281 75.078125 66.449219 74.964844 C 66.355469 74.675781 65.511719 74.695312 65.378906 74.984375 C 65.28125 75.175781 65.242188 75.175781 65.148438 74.984375 C 65.011719 74.675781 64.554688 74.675781 64.457031 74.984375 C 64.398438 75.15625 64.285156 75.136719 64.035156 74.90625 C 63.613281 74.464844 62.273438 74.117188 61.640625 74.273438 C 60.816406 74.464844 60.089844 74.789062 60.089844 74.964844 C 60.089844 75.058594 59.746094 75.136719 59.324219 75.136719 C 58.902344 75.136719 58.558594 75.058594 58.558594 74.984375 C 58.558594 74.886719 58.078125 74.675781 57.503906 74.484375 C 56.929688 74.308594 56.449219 74.078125 56.449219 73.984375 C 56.449219 73.867188 57.332031 72.3125 58.425781 70.484375 C 59.515625 68.660156 60.664062 66.699219 60.953125 66.140625 C 61.257812 65.566406 61.757812 64.894531 62.0625 64.644531 C 62.601562 64.199219 62.695312 64.183594 65.933594 64.183594 C 67.753906 64.183594 69.285156 64.105469 69.324219 64.007812 C 69.457031 63.625 77.289062 62.277344 79.398438 62.261719 C 80.050781 62.261719 80.585938 62.183594 80.585938 62.066406 C 80.585938 61.953125 81.140625 61.875 81.886719 61.875 C 82.710938 61.875 83.707031 61.703125 84.703125 61.394531 C 85.546875 61.125 86.445312 60.914062 86.714844 60.914062 C 86.984375 60.914062 87.441406 60.78125 87.730469 60.625 C 88.035156 60.472656 88.9375 60.242188 89.742188 60.125 C 90.546875 60.011719 91.695312 59.855469 92.269531 59.761719 C 92.84375 59.664062 93.648438 59.589844 94.050781 59.589844 L 94.757812 59.570312 L 94.757812 60.53125 C 94.757812 61.835938 96.636719 66.527344 97.554688 67.546875 C 97.765625 67.777344 98.207031 68.507812 98.53125 69.179688 C 98.878906 69.871094 99.71875 71.023438 100.410156 71.753906 C 101.097656 72.484375 101.65625 73.15625 101.65625 73.234375 C 101.65625 73.328125 101.769531 73.40625 101.902344 73.40625 C 102.132812 73.40625 103.570312 74.636719 103.570312 74.847656 C 103.570312 75.117188 104.796875 76.480469 105.046875 76.480469 C 105.179688 76.480469 105.292969 76.578125 105.292969 76.691406 C 105.292969 76.808594 105.660156 77.230469 106.097656 77.617188 C 106.539062 78 107.054688 78.441406 107.230469 78.632812 C 107.402344 78.808594 107.726562 79 107.9375 79.058594 C 108.300781 79.171875 111.039062 81.804688 111.632812 82.613281 C 111.808594 82.84375 112.054688 83.382812 112.210938 83.84375 C 112.34375 84.285156 112.515625 84.6875 112.574219 84.746094 C 112.628906 84.804688 112.839844 85.34375 113.011719 85.957031 C 113.359375 87.050781 113.320312 88.070312 112.9375 88.300781 C 112.839844 88.378906 112.765625 88.667969 112.765625 88.992188 C 112.765625 89.300781 112.6875 89.550781 112.574219 89.550781 C 112.476562 89.550781 112.382812 89.648438 112.382812 89.761719 C 112.382812 89.992188 111.230469 91.742188 111.003906 91.820312 C 110.925781 91.855469 110.847656 91.953125 110.847656 92.050781 C 110.847656 92.261719 107.132812 96.007812 106.519531 96.410156 C 106.15625 96.644531 105.464844 96.757812 103.933594 96.816406 C 102.785156 96.875 101.847656 96.96875 101.847656 97.046875 C 101.847656 97.140625 101.519531 97.257812 101.117188 97.335938 C 100.601562 97.410156 100.066406 97.757812 99.203125 98.566406 C 98.167969 99.527344 98.015625 99.757812 98.015625 100.371094 C 98.015625 100.851562 97.921875 101.082031 97.746094 101.082031 C 97.421875 101.082031 96.484375 102.160156 96.484375 102.542969 C 96.484375 102.695312 96.636719 102.890625 96.828125 102.945312 C 97 103.023438 97.269531 103.234375 97.402344 103.40625 C 97.535156 103.601562 98.015625 103.8125 98.476562 103.867188 C 100.945312 104.253906 110.601562 103.734375 111.617188 103.175781 C 112.6875 102.582031 113.011719 102.121094 112.917969 101.3125 C 112.820312 100.660156 112.898438 100.46875 113.453125 99.851562 C 113.800781 99.46875 114.164062 99.160156 114.257812 99.160156 C 114.375 99.160156 114.507812 98.929688 114.566406 98.660156 C 114.640625 98.390625 115.675781 97.179688 116.882812 95.96875 C 118.089844 94.738281 119.085938 93.644531 119.085938 93.527344 C 119.085938 93.414062 119.449219 92.953125 119.910156 92.53125 C 120.347656 92.105469 120.90625 91.355469 121.136719 90.859375 C 121.382812 90.339844 121.652344 89.933594 121.765625 89.933594 C 121.863281 89.933594 121.957031 89.800781 121.957031 89.648438 C 121.957031 89.242188 123.109375 87.015625 123.527344 86.589844 C 123.875 86.285156 123.894531 86.035156 123.816406 84.207031 L 123.722656 82.152344 L 122.839844 81.324219 C 122.359375 80.863281 121.957031 80.421875 121.957031 80.304688 C 121.957031 80.210938 121.613281 79.769531 121.191406 79.34375 C 120.769531 78.902344 120.425781 78.460938 120.425781 78.367188 C 120.425781 78.269531 120.140625 77.921875 119.792969 77.578125 C 119.105469 76.925781 118.320312 75.269531 118.320312 74.484375 C 118.320312 74.214844 118.148438 73.847656 117.957031 73.65625 C 117.746094 73.464844 117.417969 72.792969 117.207031 72.15625 C 116.882812 71.15625 116.863281 70.734375 116.996094 68.890625 C 117.152344 66.832031 117.554688 65.316406 118.070312 64.796875 C 118.203125 64.664062 118.320312 64.414062 118.320312 64.277344 C 118.320312 64.027344 118.988281 62.875 119.46875 62.316406 C 119.5625 62.183594 119.660156 61.992188 119.660156 61.875 C 119.660156 61.761719 119.792969 61.53125 119.949219 61.375 C 120.101562 61.203125 120.234375 60.875 120.234375 60.625 C 120.234375 60.375 120.503906 59.609375 120.808594 58.894531 C 121.136719 58.183594 121.382812 57.492188 121.382812 57.339844 C 121.382812 57.1875 121.519531 57.011719 121.671875 56.957031 C 121.824219 56.878906 121.957031 56.726562 121.957031 56.570312 C 121.957031 56.417969 122.167969 55.976562 122.417969 55.570312 C 122.648438 55.1875 122.917969 54.667969 122.992188 54.4375 C 123.070312 54.1875 123.261719 53.878906 123.394531 53.726562 C 123.894531 53.226562 124.105469 49.480469 123.855469 45.828125 C 123.738281 44.019531 123.566406 42.503906 123.472656 42.445312 C 123.375 42.386719 123.242188 41.90625 123.164062 41.367188 C 123.070312 40.523438 123.109375 40.332031 123.472656 40.042969 C 123.683594 39.851562 123.875 39.582031 123.875 39.464844 C 123.875 39.332031 124.160156 39.003906 124.523438 38.714844 C 124.890625 38.429688 125.597656 37.8125 126.113281 37.351562 C 126.613281 36.890625 127.148438 36.507812 127.285156 36.507812 C 127.398438 36.507812 127.511719 36.429688 127.511719 36.332031 C 127.511719 36.179688 129.449219 34.546875 130.5 33.816406 C 130.730469 33.660156 131.285156 33.046875 131.746094 32.46875 C 132.664062 31.296875 133.203125 30.761719 134.964844 29.203125 C 135.632812 28.625 136.535156 27.800781 136.976562 27.359375 C 137.433594 26.914062 137.933594 26.492188 138.085938 26.398438 C 138.257812 26.300781 138.660156 25.898438 138.96875 25.492188 C 139.886719 24.339844 142.203125 22.34375 143.179688 21.878906 C 143.679688 21.628906 144.195312 21.324219 144.332031 21.1875 C 144.464844 21.054688 144.714844 20.9375 144.867188 20.9375 C 145.136719 20.9375 146.820312 20.074219 148.488281 19.09375 C 149.328125 18.613281 149.921875 17.824219 149.921875 17.191406 C 149.921875 17 149.730469 16.902344 149.3125 16.902344 C 148.964844 16.902344 148.199219 16.730469 147.605469 16.539062 C 146.515625 16.171875 145.289062 16.230469 144.273438 16.691406 C 144.0625 16.789062 143.335938 16.980469 142.644531 17.113281 C 141.417969 17.34375 139.179688 18.25 138.621094 18.730469 C 138.46875 18.863281 138.046875 19.054688 137.722656 19.171875 C 137.050781 19.402344 135.808594 20.265625 135.441406 20.746094 C 135.308594 20.902344 134.734375 21.535156 134.140625 22.148438 C 133.546875 22.785156 133.066406 23.398438 133.066406 23.550781 C 133.066406 23.707031 132.953125 23.820312 132.820312 23.820312 C 132.683594 23.820312 132.261719 24.128906 131.898438 24.511719 C 131.285156 25.148438 129.160156 26.703125 128.875 26.703125 C 128.699219 26.703125 128.03125 27.472656 127.628906 28.089844 C 127.4375 28.394531 127.167969 28.625 127.035156 28.625 C 126.882812 28.625 126.480469 28.914062 126.113281 29.242188 C 125.253906 30.046875 124.925781 30.28125 123.929688 30.742188 C 122.726562 31.316406 119.277344 32.277344 118.414062 32.277344 C 117.015625 32.257812 114.429688 31.546875 112.09375 30.546875 C 107.191406 28.394531 102 27.070312 96.675781 26.550781 C 93.648438 26.261719 85.238281 26.300781 81.0625 26.628906 C 76.46875 26.992188 75.03125 26.898438 73.382812 26.128906 C 71.890625 25.4375 70.355469 24.976562 69.589844 24.976562 C 68.957031 24.976562 66.125 23.957031 65.644531 23.550781 C 64.765625 22.824219 63.75 22.4375 62.3125 22.285156 C 59.878906 22.015625 59.09375 21.824219 58.269531 21.265625 C 57.773438 20.9375 57.0625 20.6875 56.203125 20.574219 C 55.320312 20.457031 54.515625 20.171875 53.710938 19.707031 C 52.257812 18.902344 50.09375 16.769531 49.324219 15.421875 C 48.789062 14.460938 48.214844 13.828125 45.113281 10.636719 L 43.769531 9.253906 L 44.632812 8.65625 C 45.246094 8.234375 45.726562 8.0625 46.261719 8.0625 C 47.429688 8.0625 47.640625 7.925781 47.640625 7.121094 C 47.640625 6.734375 47.5625 6.332031 47.46875 6.21875 C 47.277344 6.003906 46.875 3.988281 46.875 3.160156 C 46.875 2.816406 46.722656 2.410156 46.527344 2.238281 C 46.164062 1.894531 44.574219 1.527344 43.503906 1.527344 C 43.101562 1.527344 42.773438 1.394531 42.621094 1.183594 C 42.144531 0.507812 41.566406 0.335938 39.960938 0.453125 C 39.117188 0.507812 38.273438 0.644531 38.0625 0.757812 C 37.546875 1.027344 37.125 1.007812 35.765625 0.566406 C 34.328125 0.105469 33.273438 0.0859375 32.507812 0.46875 C 32.011719 0.738281 31.855469 0.738281 31.417969 0.488281 C 30.6875 0.125 28.984375 0.0078125 26.570312 0.164062 Z M 63.941406 34.140625 C 63.789062 34.429688 63.75 34.429688 63.730469 34.179688 C 63.730469 33.855469 63.921875 33.566406 64.074219 33.699219 C 64.113281 33.757812 64.054688 33.949219 63.941406 34.140625 Z M 63.941406 34.140625 " fill-opacity="1" fill-rule="nonzero"/></svg>