<svg xmlns="http://www.w3.org/2000/svg" xmlns:xlink="http://www.w3.org/1999/xlink" width="200" zoomAndPan="magnify" viewBox="0 0 150 149.999998" height="200" preserveAspectRatio="xMidYMid meet" version="1.0"><defs><clipPath id="id1"><path d="M 49.5 0.0351562 L 116.714844 0.0351562 L 116.714844 137.355469 L 49.5 137.355469 Z M 49.5 0.0351562 " clip-rule="nonzero"/></clipPath><clipPath id="id2"><path d="M 23.714844 77 L 50.265625 77 L 50.265625 149.96875 L 23.714844 149.96875 Z M 23.714844 77 " clip-rule="nonzero"/></clipPath></defs><g clip-path="url(#id1)"><path fill="rgb(0%, 0%, 0%)" d="M 116.597656 71.121094 C 116.425781 70.53125 116.453125 69.664062 116.195312 69.015625 C 115.933594 68.367188 115.488281 67.453125 115.386719 66.761719 C 115.386719 66.761719 114.851562 64.914062 114.785156 61.886719 C 114.722656 58.859375 114.589844 55.550781 114.265625 53.28125 C 113.941406 51.011719 113.507812 50.816406 112.988281 48.652344 C 112.46875 46.492188 111.992188 45.648438 111.902344 45.386719 C 111.816406 45.128906 111.644531 44.78125 111.644531 44.78125 C 111.644531 44.78125 112.488281 44.480469 112.859375 43.941406 C 113.226562 43.398438 113.507812 43.355469 113.25 42.578125 C 112.988281 41.796875 113.011719 41.496094 112.425781 40.589844 C 111.839844 39.679688 111.558594 39.269531 110.996094 38.125 C 110.429688 36.976562 109.628906 33.148438 109.132812 32.109375 C 108.632812 31.074219 108.003906 28.242188 106.597656 26.25 C 105.1875 24.261719 102.371094 22.898438 101.503906 22.640625 C 100.636719 22.382812 97.082031 21.449219 96.28125 20.996094 C 95.480469 20.542969 95.113281 20.238281 94.917969 20.175781 C 94.722656 20.109375 94.308594 19.957031 93.988281 19.742188 C 93.660156 19.527344 93.335938 19.332031 93.160156 19.160156 C 92.988281 18.984375 92.851562 18.863281 92.851562 18.863281 C 92.882812 18.820312 93.601562 18.472656 93.847656 17.261719 C 94.09375 16.050781 94.222656 14.292969 94.253906 13.746094 C 94.28125 13.199219 94.398438 11.683594 94.308594 11.367188 C 94.222656 11.050781 94.15625 10.660156 94.34375 10.328125 C 94.527344 9.996094 94.6875 9.304688 94.640625 9.105469 C 94.601562 8.902344 95.03125 8.875 95.625 9.519531 C 96.21875 10.171875 97.75 10.992188 97.011719 9.925781 C 96.273438 8.859375 95.164062 8.367188 95.089844 7.445312 C 95.019531 6.523438 94.484375 5.644531 94.195312 4.664062 C 93.90625 3.683594 93.257812 2.386719 92.332031 1.707031 C 91.40625 1.03125 88 0.46875 86.855469 0.496094 C 86.855469 0.496094 86.367188 -0.0625 85.875 0.0507812 C 85.382812 0.164062 85.152344 -0.0078125 85.066406 0.265625 C 84.980469 0.539062 85.066406 0.613281 84.617188 0.742188 C 84.167969 0.871094 80.488281 2.53125 79.707031 4.390625 C 78.925781 6.25 79.1875 6.769531 79.273438 7.53125 C 79.359375 8.296875 79.433594 8.585938 79.621094 9.089844 C 79.808594 9.59375 79.851562 9.839844 79.648438 9.796875 C 79.445312 9.753906 78.679688 10.632812 78.984375 11.351562 C 79.289062 12.074219 79.578125 12.476562 79.910156 13.199219 C 80.242188 13.917969 80.023438 13.761719 80.601562 14.828125 C 81.179688 15.894531 80.832031 15.953125 81.367188 16.296875 C 81.902344 16.644531 82.207031 16.730469 82.175781 17.089844 C 82.148438 17.449219 82.074219 17.695312 81.800781 17.808594 C 81.527344 17.925781 81.355469 17.710938 81.121094 18.042969 C 80.890625 18.371094 80.457031 18.820312 79.964844 19.078125 C 79.476562 19.339844 79.242188 19.195312 78.796875 19.410156 C 78.347656 19.628906 78.390625 19.871094 78.074219 20.03125 C 77.757812 20.191406 77.308594 20.476562 75.761719 20.953125 C 74.21875 21.429688 73.089844 21.992188 72.453125 21.992188 C 71.820312 21.992188 71.097656 22.425781 70.492188 22.828125 C 69.886719 23.230469 68.816406 23.792969 68.195312 24.832031 C 67.574219 25.871094 67.066406 26.359375 66.707031 27.136719 C 66.34375 27.917969 65.679688 29.777344 65.058594 31.5625 C 64.4375 33.351562 63.816406 35.039062 63.226562 36.550781 C 62.632812 38.0625 62.316406 39.621094 61.578125 40.847656 C 60.84375 42.074219 60.957031 41.984375 60.738281 42.546875 C 60.523438 43.109375 60.265625 42.964844 60.640625 43.296875 C 61.015625 43.628906 60.972656 43.542969 60.871094 43.703125 C 60.769531 43.859375 60.378906 44.546875 59.75 45.386719 C 59.125 46.230469 57.734375 49.0625 56.824219 51.765625 C 55.917969 54.46875 54.722656 57.542969 53.402344 59.960938 C 52.082031 62.386719 51.972656 62.621094 51.453125 62.945312 C 50.933594 63.273438 50.347656 64.546875 50.132812 65.304688 C 49.914062 66.058594 49.460938 67.597656 49.652344 68.765625 C 49.847656 69.929688 50.023438 70.449219 50.414062 70.535156 C 50.800781 70.625 50.996094 70.300781 51.429688 70.535156 C 51.863281 70.773438 52.339844 70.652344 52.535156 70.550781 C 52.730469 70.449219 52.90625 70.488281 53.164062 70.675781 C 53.425781 70.859375 53.683594 70.726562 53.964844 70.675781 C 54.246094 70.625 54.484375 70.644531 54.832031 70.859375 C 55.179688 71.078125 55.980469 71.078125 56.285156 70.558594 C 56.585938 70.039062 56.738281 69.175781 56.71875 68.675781 C 56.695312 68.179688 56 66.191406 56.695312 65.152344 C 57.390625 64.113281 62.632812 57.886719 63.609375 56.460938 C 64.582031 55.03125 66.664062 51.746094 67.441406 49.929688 C 68.222656 48.113281 67.8125 48.285156 68.332031 47.117188 C 68.851562 45.949219 68.980469 45.734375 69.242188 45.625 C 69.5 45.519531 70.28125 45.128906 70.367188 44.738281 C 70.453125 44.351562 70.867188 43.789062 70.976562 43.332031 C 71.082031 42.878906 71.148438 42.902344 71.40625 42.46875 C 71.667969 42.035156 71.863281 41.972656 71.90625 41.539062 C 71.949219 41.105469 72.015625 40.761719 72.121094 40.523438 C 72.230469 40.285156 72.296875 39.894531 72.273438 40.523438 C 72.253906 41.152344 72.101562 41.472656 72.015625 42.253906 C 71.929688 43.03125 72.210938 45.171875 72.316406 46.382812 C 72.425781 47.59375 72.835938 48.589844 72.792969 50.039062 C 72.75 51.484375 72.75 53.042969 72.554688 54.664062 C 72.363281 56.285156 72.316406 58.578125 72.316406 59.398438 C 72.316406 60.222656 72.46875 60.546875 72.339844 61.023438 C 72.210938 61.5 72.339844 62.816406 72.449219 63.378906 C 72.554688 63.941406 72.902344 64.675781 72.730469 65.824219 C 72.554688 66.96875 72.578125 68.09375 72.511719 68.675781 C 72.449219 69.261719 72.621094 69.390625 72.46875 69.972656 C 72.316406 70.558594 72.078125 70.730469 71.972656 71.378906 C 71.863281 72.03125 71.949219 72.179688 71.710938 72.980469 C 71.472656 73.78125 71.429688 75.097656 71.644531 76.441406 C 71.863281 77.78125 72.121094 78.820312 72.058594 79.640625 C 71.992188 80.460938 71.558594 81.800781 71.691406 83.335938 C 71.820312 84.875 71.625 85.304688 71.972656 86.710938 C 72.316406 88.117188 72.40625 90.992188 72.363281 92.398438 C 72.316406 93.804688 72.253906 95.554688 72.144531 96.570312 C 72.035156 97.589844 71.886719 98.042969 72.035156 98.667969 C 72.1875 99.296875 72.773438 99.597656 72.96875 99.46875 C 73.164062 99.339844 73.226562 100.03125 72.949219 100.832031 C 72.664062 101.632812 72.578125 103.230469 73.226562 106.085938 C 73.878906 108.941406 74.984375 112.464844 75.003906 113.785156 C 75.027344 115.101562 75.9375 115.796875 75.113281 117.199219 C 74.289062 118.605469 73.792969 119.730469 73.53125 120.550781 C 73.269531 121.375 73.378906 121.484375 73.054688 122.023438 C 72.730469 122.5625 72.167969 125.324219 71.15625 127.34375 C 70.144531 129.359375 69.074219 132.648438 71.386719 135.011719 C 73.695312 137.375 76.933594 138.210938 78.175781 135.011719 C 79.417969 131.8125 79.070312 131.035156 79.214844 129.589844 C 79.359375 128.148438 79.1875 126.132812 80.167969 123.910156 C 81.152344 121.691406 81.121094 120.367188 81.09375 119.210938 C 81.066406 118.058594 80.34375 116.820312 80.777344 114.859375 C 81.210938 112.898438 81.816406 110.589844 82.828125 109.003906 C 83.835938 107.417969 84.414062 106.4375 84.445312 104.449219 C 84.472656 102.460938 84.242188 101.507812 84.386719 100.988281 C 84.53125 100.472656 84.703125 101.078125 84.9375 100.585938 C 85.167969 100.097656 84.878906 99.953125 85.542969 99.808594 C 86.207031 99.664062 87.277344 99.230469 87.449219 98.105469 C 87.625 96.984375 87.796875 94.445312 88.085938 93.148438 C 88.375 91.851562 88.980469 88.792969 88.980469 90.148438 C 88.980469 91.503906 89.671875 93.667969 89.617188 95.078125 C 89.558594 96.492188 90.25 98.335938 90.308594 99.085938 C 90.367188 99.835938 89.875 100.296875 90.539062 100.644531 C 91.207031 100.988281 91.207031 100.988281 91.207031 100.988281 C 91.207031 100.988281 91.609375 102.519531 91.523438 103.382812 C 91.4375 104.25 90.308594 107.679688 90.480469 109.957031 C 90.65625 112.234375 90.945312 113.128906 91.175781 114.539062 C 91.40625 115.953125 92.015625 119.097656 92.042969 121.519531 C 92.070312 123.941406 92.246094 126.015625 92.042969 128.238281 C 91.839844 130.457031 91.695312 131.378906 91.550781 131.871094 C 91.40625 132.359375 91.261719 132.847656 91.378906 133.136719 C 91.496094 133.425781 91.320312 133.082031 91.175781 133.945312 C 91.03125 134.808594 90.769531 135.617188 93.167969 135.644531 C 95.566406 135.675781 96.839844 135.386719 97.761719 134.925781 C 98.6875 134.464844 97.820312 133.945312 99.785156 133.800781 C 101.75 133.65625 103.484375 133.136719 103.628906 132.589844 C 103.773438 132.042969 103.800781 131.464844 103.628906 131.351562 C 103.453125 131.234375 103.511719 130.167969 102.644531 129.878906 C 101.777344 129.589844 99.8125 129.332031 99.527344 128.667969 C 99.234375 128.003906 98.660156 126.9375 98.457031 126.765625 C 98.253906 126.59375 97.792969 126.652344 97.675781 126.417969 C 97.558594 126.191406 97.011719 125.0625 97.445312 123.882812 C 97.878906 122.699219 100.277344 116.789062 101.316406 111.371094 C 102.355469 105.949219 102.007812 105.054688 101.664062 103.816406 C 101.316406 102.574219 100.824219 101.710938 101.257812 101.652344 C 101.691406 101.59375 101.546875 101.59375 102.703125 101.335938 C 103.859375 101.074219 106.316406 101.507812 106.371094 100.238281 C 106.429688 98.972656 106.113281 98.566406 106.371094 97.128906 C 106.632812 95.683594 106.703125 94.964844 106.378906 93.839844 C 106.054688 92.714844 105.449219 89.515625 105.621094 87.324219 C 105.792969 85.132812 105.9375 82.222656 106.226562 80.433594 C 106.515625 78.644531 106.660156 78.328125 106.316406 77.320312 C 105.964844 76.3125 105.9375 75.90625 105.824219 74.839844 C 105.707031 73.773438 105.304688 71.09375 104.925781 69.507812 C 104.550781 67.921875 104.03125 67.429688 103.886719 66.996094 C 103.742188 66.566406 103.542969 66.160156 103.683594 65.324219 C 103.828125 64.488281 104.78125 64.230469 104.550781 63.914062 C 104.320312 63.59375 103.570312 63.324219 103.65625 62.640625 C 103.742188 61.953125 104.148438 60.625 103.800781 60.28125 C 103.453125 59.933594 103.164062 59.5 103.28125 58.953125 C 103.398438 58.40625 103.425781 55.609375 103.164062 54.773438 C 102.90625 53.9375 102.617188 52.839844 102.617188 51.863281 C 102.617188 50.878906 102.414062 50.417969 102.15625 49.929688 C 101.894531 49.441406 101.546875 49.007812 101.664062 48.34375 C 101.777344 47.679688 102.15625 45.632812 102.066406 44.824219 C 101.980469 44.019531 101.691406 44.046875 101.777344 43.210938 C 101.867188 42.375 101.808594 40.671875 101.894531 41.769531 C 101.980469 42.863281 102.210938 43.269531 102.386719 43.789062 C 102.558594 44.308594 103.222656 45.230469 103.25 45.664062 C 103.28125 46.09375 103.28125 46.269531 103.484375 46.296875 C 103.683594 46.324219 103.859375 46.410156 103.859375 46.410156 C 103.859375 46.410156 104.175781 47.304688 104.523438 48.601562 C 104.871094 49.898438 105.964844 53.1875 106.429688 54.886719 C 106.890625 56.589844 107.902344 58.722656 109.089844 61.492188 C 110.273438 64.257812 111.570312 66.046875 110.9375 67.316406 C 110.300781 68.582031 109.867188 69.074219 109.867188 70.023438 C 109.867188 70.976562 110.242188 71.898438 110.085938 72.722656 C 109.925781 73.542969 109.882812 74.4375 109.8125 74.722656 C 109.738281 75.011719 109.695312 75.242188 109.59375 75.375 C 109.492188 75.503906 109.492188 76.398438 110.375 76.164062 C 110.375 76.164062 110.1875 76.800781 111.238281 76.511719 C 112.296875 76.222656 112.859375 76.050781 113.03125 75.921875 C 113.207031 75.792969 113.984375 75.285156 113.738281 75.546875 C 113.492188 75.804688 113.636719 76.007812 112.972656 76.253906 C 112.308594 76.496094 112.238281 76.425781 111.992188 76.597656 C 111.746094 76.769531 111.628906 76.613281 111.398438 77.015625 C 111.167969 77.421875 111.125 78.15625 112.367188 77.78125 C 113.609375 77.40625 113.8125 77.507812 114.203125 77.203125 C 114.589844 76.902344 115.15625 76.355469 115.457031 76.136719 C 115.761719 75.921875 116.238281 75.054688 116.382812 74.074219 C 116.527344 73.097656 116.453125 72.722656 116.597656 72.316406 C 116.742188 71.914062 116.773438 71.710938 116.597656 71.121094 Z M 113.492188 73.066406 C 113.464844 73.511719 113.261719 73.742188 113.175781 74.03125 C 113.089844 74.320312 112.699219 74.4375 112.394531 74.695312 C 112.09375 74.957031 111.585938 75.113281 111.585938 75.113281 C 111.6875 74.941406 111.660156 74.363281 111.703125 73.902344 C 111.746094 73.441406 111.859375 73.050781 111.933594 72.679688 C 112.003906 72.304688 112.078125 72.621094 112.25 72.589844 C 112.425781 72.5625 112.757812 72.519531 112.972656 72.359375 C 113.191406 72.203125 113.347656 72.117188 113.4375 72.289062 C 113.523438 72.460938 113.523438 72.621094 113.492188 73.066406 " fill-opacity="1" fill-rule="nonzero"/></g><g clip-path="url(#id2)"><path fill="rgb(0%, 0%, 0%)" d="M 36.054688 93.609375 C 36.054688 93.609375 35.851562 92.484375 35.824219 91.9375 C 35.792969 91.390625 35.273438 89.6875 35.390625 88.996094 C 35.503906 88.304688 35.894531 87.035156 35.714844 85.710938 C 35.535156 84.382812 35.535156 80.921875 34.550781 79.078125 C 33.570312 77.234375 32.875 76.742188 32.328125 77.40625 C 31.777344 78.070312 31.632812 80.203125 31.34375 81.703125 C 31.054688 83.199219 31.171875 84.46875 30.449219 84.613281 C 29.726562 84.757812 28.773438 84.613281 28.425781 84.179688 C 28.082031 83.75 27.761719 83.171875 27.359375 82.308594 C 26.953125 81.441406 26.839844 81.414062 26.78125 80.347656 C 26.722656 79.28125 26.40625 78.558594 25.710938 78.703125 C 25.019531 78.847656 24.671875 80.175781 24.269531 81.296875 C 23.863281 82.421875 23.71875 84.671875 23.804688 85.507812 C 23.890625 86.34375 23.871094 87.410156 23.78125 87.757812 C 23.691406 88.101562 23.699219 89.199219 23.78125 89.773438 C 23.863281 90.351562 24.269531 91.246094 24.296875 91.964844 C 24.324219 92.6875 24.09375 93.03125 24.269531 93.609375 C 24.441406 94.1875 24.671875 94.273438 24.671875 95.28125 C 24.671875 96.292969 24.238281 96.808594 24.671875 98.019531 C 25.105469 99.230469 25.394531 99.058594 25.191406 99.636719 C 24.988281 100.210938 24.527344 100.730469 24.355469 103.613281 C 24.179688 106.496094 23.429688 108.285156 24.007812 110.445312 C 24.585938 112.609375 26 114.683594 25.855469 115.203125 C 25.710938 115.722656 25.363281 115.722656 25.625 118.289062 C 25.882812 120.855469 26.605469 123.96875 26.953125 126.160156 C 27.300781 128.351562 27.328125 128.871094 27.5 130.339844 C 27.675781 131.8125 27.359375 132.820312 27.589844 133.597656 C 27.820312 134.378906 28.082031 135.128906 27.734375 135.675781 C 27.386719 136.222656 26.027344 137.808594 27.417969 138.355469 C 28.804688 138.902344 29.699219 138.558594 29.699219 138.558594 C 29.699219 138.558594 29.785156 140.027344 28.976562 142.21875 C 28.167969 144.410156 27.851562 144.929688 27.5625 146.113281 C 27.269531 147.292969 26.316406 148.707031 27.328125 149.425781 C 28.339844 150.148438 28.195312 149.800781 29.640625 149.886719 C 31.085938 149.976562 31.027344 150.089844 31.664062 149.628906 C 32.296875 149.167969 32.441406 148.679688 32.296875 148.445312 C 32.152344 148.214844 31.953125 147.84375 32.210938 147.410156 C 32.472656 146.976562 32.964844 145.476562 32.964844 144.957031 C 32.964844 144.441406 32.472656 143.371094 32.761719 142.421875 C 33.050781 141.46875 33.714844 139.796875 33.828125 138.585938 C 33.945312 137.375 33.945312 135.820312 34.175781 134.839844 C 34.40625 133.859375 34.4375 132.847656 34.175781 132.15625 C 33.917969 131.464844 32.558594 129.101562 33.511719 127.542969 C 34.464844 125.988281 34.695312 125.957031 34.695312 125.496094 C 34.695312 125.035156 34.523438 124.980469 34.785156 124.632812 C 35.042969 124.285156 35.304688 123.679688 35.332031 123.566406 C 35.359375 123.449219 35.449219 123.132812 35.59375 123.019531 C 35.738281 122.902344 36.023438 122.816406 36.054688 122.730469 C 36.082031 122.644531 36.371094 122.644531 36.457031 122.527344 C 36.546875 122.410156 36.660156 121.980469 36.746094 122.324219 C 36.835938 122.671875 37.46875 124.863281 37.441406 125.121094 C 37.410156 125.382812 37.644531 127.054688 37.441406 127.226562 C 37.238281 127.398438 36.890625 127.660156 36.890625 128.0625 C 36.890625 128.464844 36.140625 129.820312 36.746094 130.832031 C 37.355469 131.839844 37.324219 132.011719 37.757812 131.898438 C 38.191406 131.78125 38.652344 131.695312 38.625 132.042969 C 38.59375 132.386719 38.941406 134.058594 38.886719 135.5 C 38.828125 136.945312 38.914062 138.992188 39.519531 140.71875 C 40.128906 142.449219 40.648438 143.488281 43.101562 143.371094 C 45.558594 143.257812 45.820312 142.882812 45.90625 142.679688 C 45.992188 142.480469 46.136719 142.074219 45.90625 141.671875 C 45.675781 141.269531 45.386719 141.066406 45.589844 141.066406 C 45.789062 141.066406 48.160156 141.554688 49.054688 140.578125 C 49.949219 139.597656 50.902344 138.183594 48.765625 137.636719 C 46.628906 137.089844 45.53125 135.644531 45.066406 134.839844 C 44.605469 134.03125 42.902344 131.636719 43.132812 130.890625 C 43.363281 130.140625 44.375 129.070312 44.316406 124.949219 C 44.257812 120.824219 43.855469 119.617188 44.632812 116.875 C 45.414062 114.136719 45.617188 111.484375 44.578125 109.207031 C 43.535156 106.929688 43.074219 106.382812 42.324219 104.535156 C 41.574219 102.691406 40.703125 101.367188 39.261719 99.085938 C 37.816406 96.808594 37.789062 96.433594 37.296875 95.800781 C 36.804688 95.167969 36.175781 94.351562 36.054688 93.609375 " fill-opacity="1" fill-rule="nonzero"/></g><path fill="rgb(0%, 0%, 0%)" d="M 27.90625 95.136719 C 27.90625 95.136719 29.148438 93.550781 30.535156 93.203125 C 31.921875 92.859375 32.675781 92.832031 33.597656 92.886719 C 34.523438 92.945312 35.824219 93.0625 35.96875 93.0625 C 36.113281 93.0625 37.066406 93.636719 37.066406 93.636719 C 37.066406 93.636719 37.527344 93.636719 37.644531 93.550781 C 37.757812 93.464844 37.847656 92.925781 38.078125 92.863281 C 38.308594 92.800781 38.683594 92.195312 38.828125 91.964844 C 38.972656 91.734375 39.058594 91.300781 39.320312 91.101562 C 39.578125 90.898438 40.472656 89.6875 40.703125 89.3125 C 40.9375 88.9375 44.691406 82.335938 46.136719 77.839844 C 47.582031 73.339844 48.792969 70.542969 48.996094 70.023438 C 49.199219 69.507812 50.035156 68.589844 50.125 68.570312 C 50.210938 68.554688 50.324219 68.957031 50.324219 69.074219 C 50.324219 69.1875 50.066406 69.535156 50.066406 69.535156 C 50.066406 69.535156 49.691406 68.8125 48.304688 72.851562 C 46.917969 76.886719 44.460938 83.460938 43.246094 85.765625 C 42.035156 88.074219 41.226562 89.515625 40.648438 90.46875 C 40.070312 91.417969 40.039062 91.503906 39.898438 91.648438 C 39.753906 91.792969 39.664062 91.9375 39.609375 92.140625 C 39.550781 92.339844 39.550781 92.542969 39.289062 92.628906 C 39.03125 92.714844 38.855469 92.714844 38.742188 92.976562 C 38.625 93.234375 38.105469 93.582031 37.929688 93.898438 C 37.757812 94.214844 37.875 94.328125 37.671875 94.761719 C 37.46875 95.195312 37.007812 95.628906 36.746094 95.453125 C 36.488281 95.28125 35.878906 94.847656 35.878906 94.847656 C 35.878906 94.847656 34.582031 94.042969 32.441406 94.128906 C 30.304688 94.214844 28.890625 94.707031 28.714844 94.792969 C 28.542969 94.878906 27.90625 95.136719 27.90625 95.136719 " fill-opacity="1" fill-rule="nonzero"/></svg>